<?xml version="1.0" encoding="utf-8"?>
<!-- Generator: Adobe Illustrator 19.2.0, SVG Export Plug-In . SVG Version: 6.00 Build 0)  -->
<svg version="1.1" id="圖層_1" xmlns="http://www.w3.org/2000/svg" xmlns:xlink="http://www.w3.org/1999/xlink" x="0px" y="0px"
	 viewBox="0 0 406 192" style="enable-background:new 0 0 406 192;" xml:space="preserve">
<style type="text/css">
	.st0{fill:none;stroke:#D3D3D3;stroke-miterlimit:10;}
	.st1{fill:#8E8E8E;}
	.st2{fill:#FF9D00;}
</style>
<rect x="330.5" y="12.5" class="st0" width="46" height="30"/>
<rect x="285.5" y="12.5" class="st0" width="45" height="30"/>
<rect x="239.5" y="12.5" class="st0" width="46" height="30"/>
<rect x="193.5" y="12.5" class="st0" width="46" height="30"/>
<rect x="147.5" y="12.5" class="st0" width="46" height="30"/>
<rect x="102.5" y="12.5" class="st0" width="45" height="30"/>
<rect x="56.5" y="12.5" class="st0" width="46" height="30"/>
<rect x="330.5" y="42.5" class="st0" width="46" height="30"/>
<rect x="285.5" y="42.5" class="st0" width="45" height="30"/>
<rect x="239.5" y="42.5" class="st0" width="46" height="30"/>
<rect x="193.5" y="42.5" class="st0" width="46" height="30"/>
<rect x="147.5" y="42.5" class="st0" width="46" height="30"/>
<rect x="102.5" y="42.5" class="st0" width="45" height="30"/>
<rect x="56.5" y="42.5" class="st0" width="46" height="30"/>
<rect x="330.5" y="72.5" class="st0" width="46" height="31"/>
<rect x="285.5" y="72.5" class="st0" width="45" height="31"/>
<rect x="239.5" y="72.5" class="st0" width="46" height="31"/>
<rect x="193.5" y="72.5" class="st0" width="46" height="31"/>
<rect x="147.5" y="72.5" class="st0" width="46" height="31"/>
<rect x="102.5" y="72.5" class="st0" width="45" height="31"/>
<rect x="56.5" y="72.5" class="st0" width="46" height="31"/>
<rect x="330.5" y="103.5" class="st0" width="46" height="30"/>
<rect x="285.5" y="103.5" class="st0" width="45" height="30"/>
<rect x="239.5" y="103.5" class="st0" width="46" height="30"/>
<rect x="193.5" y="103.5" class="st0" width="46" height="30"/>
<rect x="147.5" y="103.5" class="st0" width="46" height="30"/>
<rect x="102.5" y="103.5" class="st0" width="45" height="30"/>
<rect x="56.5" y="103.5" class="st0" width="46" height="30"/>
<rect x="330.5" y="133.5" class="st0" width="46" height="30"/>
<rect x="285.5" y="133.5" class="st0" width="45" height="30"/>
<rect x="239.5" y="133.5" class="st0" width="46" height="30"/>
<rect x="193.5" y="133.5" class="st0" width="46" height="30"/>
<rect x="147.5" y="133.5" class="st0" width="46" height="30"/>
<rect x="102.5" y="133.5" class="st0" width="45" height="30"/>
<rect x="56.5" y="133.5" class="st0" width="46" height="30"/>
<line class="st0" x1="376.5" y1="163.8" x2="376.5" y2="167.1"/>
<line class="st0" x1="285.6" y1="163.8" x2="285.6" y2="167.1"/>
<line class="st0" x1="330.5" y1="163.8" x2="330.5" y2="167.1"/>
<line class="st0" x1="239.5" y1="163.8" x2="239.5" y2="167.1"/>
<line class="st0" x1="193.6" y1="163.8" x2="193.6" y2="167.1"/>
<line class="st0" x1="147.6" y1="163.8" x2="147.6" y2="167.1"/>
<line class="st0" x1="102.5" y1="163.7" x2="102.5" y2="167"/>
<line class="st0" x1="56.4" y1="163.8" x2="56.4" y2="167.1"/>
<line class="st0" x1="56.4" y1="12.5" x2="53.1" y2="12.5"/>
<line class="st0" x1="56.4" y1="42.7" x2="53.1" y2="42.7"/>
<line class="st0" x1="56.4" y1="72.4" x2="53.1" y2="72.4"/>
<line class="st0" x1="56.7" y1="103.4" x2="53.3" y2="103.4"/>
<line class="st0" x1="56.4" y1="133.3" x2="53.1" y2="133.3"/>
<line class="st0" x1="56.4" y1="163.5" x2="53.1" y2="163.5"/>
<g>
	<path d="M10.5,150.5h1.6v-5.9h-1.3v-0.4c0.6-0.1,1-0.3,1.4-0.5h0.5v6.8h1.5v0.5h-3.8v-0.5H10.5z"/>
	<path d="M15.5,147.3c0-2.5,0.8-3.7,2.1-3.7c1.3,0,2.1,1.2,2.1,3.7c0,2.6-0.8,3.8-2.1,3.8S15.5,149.9,15.5,147.3z M19.2,147.3
		c0-2.2-0.6-3.3-1.6-3.3c-0.9,0-1.6,1.1-1.6,3.3s0.6,3.3,1.6,3.3S19.2,149.5,19.2,147.3z"/>
	<path d="M29.8,149.3H26v2.4h-0.5v-2.4h-4.7v-0.5h1.7v-2.7h3v-1.7h-2.6c-0.5,0.8-1,1.5-1.6,2.1c-0.1-0.1-0.3-0.2-0.4-0.3
		c1-0.8,1.8-2.1,2.4-3.5l0.5,0.1c-0.2,0.4-0.3,0.8-0.5,1.2h6.2v0.5H26v1.7h3.1v0.5H26v2.3h3.7L29.8,149.3L29.8,149.3z M25.6,148.9
		v-2.3H23v2.3H25.6z"/>
	<path d="M35,148.9c-1.4,0.6-3,1.3-4.1,1.8l-0.2-0.5c0.4-0.2,0.9-0.4,1.4-0.6l-0.1-6.4h0.5l0.1,6.2c0.7-0.3,1.5-0.7,2.3-1L35,148.9z
		 M39.5,151.7c-0.5-0.7-1.6-1.9-2.5-2.8c-0.8,1.2-1.9,2.2-3.6,2.8c-0.1-0.1-0.3-0.3-0.4-0.4c3.6-1.3,4.6-3.7,5.1-8.2l0.5,0.1
		c-0.3,2.2-0.6,3.9-1.4,5.3c0.9,0.9,2.1,2.2,2.6,2.9L39.5,151.7z M35.6,146.6c-0.3-0.7-0.9-1.7-1.6-2.4l0.4-0.2
		c0.7,0.7,1.3,1.7,1.6,2.4L35.6,146.6z"/>
	<path d="M49.7,150.8v0.5h-8.8v-0.5h3.8v-7.9h0.5v3.2h3.9v0.5h-3.9v4.3h4.5V150.8z"/>
</g>
<g>
	<path d="M19.2,120.7l0.3-0.4c0.4,0.4,1,0.9,1.9,0.9s1.7-0.8,1.7-1.9c0-1.2-0.6-1.9-1.7-1.9c-0.5,0-0.9,0.2-1.3,0.5l-0.4-0.2
		l0.2-3.3h3.3v0.5h-2.8l-0.2,2.4c0.3-0.2,0.7-0.3,1.2-0.3c1.2,0,2.2,0.7,2.2,2.3c0,1.6-1.1,2.5-2.3,2.5
		C20.3,121.6,19.7,121.1,19.2,120.7z"/>
	<path d="M25.9,117.6c-0.3,0-0.6,0.2-0.9,0.7l-0.3-0.2c0.3-0.6,0.8-0.9,1.2-0.9c0.8,0,1.4,1,2,1c0.3,0,0.6-0.2,0.9-0.7l0.4,0.2
		c-0.3,0.6-0.8,0.9-1.2,0.9C27.1,118.6,26.6,117.6,25.9,117.6z"/>
	<path d="M30.5,121h1.6v-5.9h-1.3v-0.4c0.6-0.1,1-0.3,1.4-0.5h0.5v6.8h1.5v0.5h-3.8L30.5,121L30.5,121z"/>
	<path d="M35.5,117.8c0-2.5,0.8-3.7,2.1-3.7s2.1,1.2,2.1,3.7c0,2.6-0.8,3.8-2.1,3.8C36.3,121.6,35.5,120.4,35.5,117.8z M39.2,117.8
		c0-2.2-0.6-3.3-1.6-3.3c-0.9,0-1.6,1.1-1.6,3.3c0,2.2,0.6,3.3,1.6,3.3C38.6,121.1,39.2,120,39.2,117.8z"/>
	<path d="M49.8,119.8H46v2.4h-0.5v-2.4h-4.7v-0.5h1.7v-2.7h3v-1.7h-2.6c-0.5,0.8-1,1.5-1.6,2.1c-0.1-0.1-0.3-0.2-0.4-0.3
		c1-0.8,1.8-2.1,2.4-3.5l0.5,0.1c-0.2,0.4-0.3,0.8-0.5,1.2h6.2v0.5H46v1.7h3.1v0.5H46v2.3h3.7L49.8,119.8L49.8,119.8z M45.6,119.4
		v-2.3H43v2.3H45.6z"/>
</g>
<g>
	<path d="M24.6,88.6l0.3-0.4c0.4,0.4,1,0.9,1.9,0.9s1.6-0.6,1.6-1.6s-0.7-1.6-2.4-1.6v-0.5c1.6,0,2.2-0.7,2.2-1.6
		c0-0.8-0.5-1.3-1.4-1.3c-0.6,0-1.2,0.3-1.6,0.8l-0.3-0.4c0.5-0.5,1.1-0.8,1.9-0.9c1.1,0,2,0.6,2,1.8c0,0.9-0.6,1.5-1.3,1.8l0,0
		c0.9,0.2,1.6,0.8,1.6,1.9c0,1.3-1,2.1-2.2,2.1C25.7,89.6,25,89.1,24.6,88.6z"/>
	<path d="M31.3,85.6c-0.3,0-0.6,0.2-0.9,0.7l-0.3-0.2c0.3-0.6,0.8-0.9,1.2-0.9c0.8,0,1.4,1,2,1c0.3,0,0.6-0.2,0.9-0.7l0.4,0.2
		c-0.3,0.6-0.8,0.9-1.2,0.9C32.4,86.6,31.9,85.6,31.3,85.6z"/>
	<path d="M35.2,88.7l0.3-0.4c0.4,0.4,1,0.9,1.9,0.9s1.7-0.8,1.7-1.9c0-1.2-0.6-1.9-1.7-1.9c-0.5,0-0.9,0.2-1.3,0.5l-0.4-0.2l0.3-3.3
		h3.3v0.5h-2.8l-0.2,2.4c0.3-0.2,0.7-0.3,1.2-0.3c1.2,0,2.2,0.7,2.2,2.3c0,1.6-1.1,2.5-2.3,2.5C36.4,89.6,35.7,89.1,35.2,88.7z"/>
	<path d="M49.8,87.8H46v2.4h-0.5v-2.4h-4.7v-0.5h1.7v-2.7h3v-1.7h-2.6c-0.5,0.8-1,1.5-1.6,2.1c-0.1-0.1-0.3-0.2-0.4-0.3
		c1-0.8,1.8-2.1,2.4-3.5l0.5,0.1c-0.2,0.4-0.3,0.8-0.5,1.2h6.2V83H46v1.7h3.1v0.5H46v2.3h3.7L49.8,87.8L49.8,87.8z M45.6,87.4v-2.3
		H43v2.3H45.6z"/>
</g>
<g>
	<path d="M25.2,60h1.6v-5.9h-1.3v-0.4c0.6-0.1,1-0.3,1.4-0.5h0.5V60h1.5v0.5h-3.8L25.2,60L25.2,60z"/>
	<path d="M31.3,56.6c-0.3,0-0.6,0.2-0.9,0.7l-0.3-0.2c0.3-0.6,0.8-0.9,1.2-0.9c0.8,0,1.4,1,2,1c0.3,0,0.6-0.2,0.9-0.7l0.4,0.2
		c-0.3,0.6-0.8,0.9-1.2,0.9C32.4,57.6,31.9,56.6,31.3,56.6z"/>
	<path d="M35.3,59.6l0.3-0.4c0.4,0.4,1,0.9,1.9,0.9s1.6-0.6,1.6-1.6s-0.7-1.6-2.4-1.6v-0.5c1.6,0,2.2-0.7,2.2-1.6
		c0-0.8-0.5-1.3-1.4-1.3c-0.6,0-1.2,0.3-1.6,0.8l-0.3-0.4c0.5-0.5,1.1-0.8,1.9-0.9c1.1,0,2,0.6,2,1.8c0,0.9-0.6,1.5-1.3,1.8l0,0
		c0.9,0.2,1.6,0.8,1.6,1.9c0,1.3-1,2.1-2.2,2.1C36.4,60.6,35.7,60.1,35.3,59.6z"/>
	<path d="M49.8,58.8H46v2.4h-0.5v-2.4h-4.7v-0.5h1.7v-2.7h3v-1.7h-2.6c-0.5,0.8-1,1.5-1.6,2.1c-0.1-0.1-0.3-0.2-0.4-0.3
		c1-0.8,1.8-2.1,2.4-3.5l0.5,0.1c-0.2,0.4-0.3,0.8-0.5,1.2h6.2V54H46v1.7h3.1v0.5H46v2.3h3.7L49.8,58.8L49.8,58.8z M45.6,58.4v-2.3
		H43v2.3H45.6z"/>
</g>
<g>
	<path d="M19.8,25.8v0.5h-9v-0.5H19.8z"/>
	<path d="M29.8,28.3H26v2.4h-0.5v-2.4h-4.7v-0.5h1.7v-2.7h3v-1.7h-2.6c-0.5,0.8-1,1.5-1.6,2.1c-0.1-0.1-0.3-0.2-0.4-0.3
		c1-0.8,1.8-2.1,2.4-3.5l0.5,0.1c-0.2,0.4-0.3,0.8-0.5,1.2h6.2v0.5H26v1.7h3.1v0.5H26V28h3.7L29.8,28.3L29.8,28.3z M25.6,27.9v-2.3
		H23v2.3H25.6z"/>
	<path d="M35,27.9c-1.4,0.6-3,1.3-4.1,1.8l-0.2-0.5c0.4-0.2,0.9-0.4,1.4-0.6L32,22.2h0.5l0.1,6.2c0.7-0.3,1.5-0.7,2.3-1L35,27.9z
		 M39.5,30.7C39,30,38,28.8,37.1,27.9c-0.8,1.2-1.9,2.2-3.6,2.8c-0.1-0.1-0.3-0.3-0.4-0.4c3.6-1.3,4.6-3.7,5.1-8.2l0.5,0.1
		c-0.3,2.2-0.6,3.9-1.4,5.3c0.9,0.9,2.1,2.2,2.6,2.9L39.5,30.7z M35.6,25.6c-0.3-0.7-0.9-1.7-1.6-2.4l0.4-0.2
		c0.7,0.7,1.3,1.7,1.6,2.4L35.6,25.6z"/>
	<path d="M45.4,22.9v1.9l0.1-0.1c1.2,0.6,2.8,1.5,3.6,2.1l-0.3,0.4c-0.7-0.6-2.2-1.5-3.4-2.1v5.5h-0.5v-7.8h-4v-0.5h8.8v0.5h-4.3
		V22.9z"/>
</g>
<g>
	<path d="M55.4,177.3c0-0.8,0.1-1.5,0.3-2s0.4-0.9,0.8-1.2s0.8-0.4,1.3-0.4c0.4,0,0.7,0.1,1,0.2s0.5,0.4,0.7,0.7s0.3,0.6,0.4,1.1
		s0.2,1,0.2,1.7c0,0.8-0.1,1.5-0.3,2s-0.4,0.9-0.8,1.2s-0.8,0.4-1.3,0.4c-0.7,0-1.2-0.2-1.6-0.7C55.7,179.6,55.4,178.6,55.4,177.3z
		 M56.3,177.3c0,1.2,0.1,2,0.4,2.3s0.6,0.6,1,0.6s0.7-0.2,1-0.6s0.4-1.2,0.4-2.3c0-1.2-0.1-2-0.4-2.3s-0.6-0.6-1-0.6s-0.7,0.2-1,0.5
		C56.5,175.3,56.3,176.1,56.3,177.3z"/>
</g>
<g>
	<path d="M93.2,180.8h-0.9v-5.6c-0.2,0.2-0.5,0.4-0.8,0.6s-0.7,0.4-0.9,0.5v-0.8c0.5-0.2,0.9-0.5,1.3-0.8s0.6-0.6,0.8-1h0.6
		L93.2,180.8L93.2,180.8z"/>
	<path d="M95.4,179l0.9-0.1c0.1,0.4,0.2,0.8,0.5,1s0.5,0.3,0.9,0.3s0.8-0.2,1.1-0.5s0.4-0.7,0.4-1.3c0-0.5-0.1-0.9-0.4-1.2
		s-0.7-0.4-1.1-0.4c-0.3,0-0.5,0.1-0.8,0.2s-0.4,0.3-0.5,0.5l-0.8-0.1l0.7-3.7h3.6v0.8H97l-0.4,1.9c0.4-0.3,0.9-0.4,1.4-0.4
		c0.6,0,1.2,0.2,1.6,0.6s0.6,1,0.6,1.7c0,0.6-0.2,1.2-0.6,1.7c-0.5,0.6-1.1,0.9-1.9,0.9c-0.7,0-1.2-0.2-1.6-0.5S95.5,179.6,95.4,179
		z"/>
	<path d="M101,177.3c0-0.8,0.1-1.5,0.3-2s0.4-0.9,0.8-1.2s0.8-0.4,1.3-0.4c0.4,0,0.7,0.1,1,0.2s0.5,0.4,0.7,0.7s0.3,0.6,0.4,1.1
		s0.2,1,0.2,1.7c0,0.8-0.1,1.5-0.3,2s-0.4,0.9-0.8,1.2s-0.8,0.4-1.3,0.4c-0.7,0-1.2-0.2-1.6-0.7C101.2,179.6,101,178.6,101,177.3z
		 M101.9,177.3c0,1.2,0.1,2,0.4,2.3s0.6,0.6,1,0.6s0.7-0.2,1-0.6s0.4-1.2,0.4-2.3c0-1.2-0.1-2-0.4-2.3s-0.6-0.6-1-0.6
		s-0.7,0.2-1,0.5C102.1,175.3,101.9,176.1,101.9,177.3z"/>
	<path d="M106.6,177.3c0-0.8,0.1-1.5,0.3-2s0.4-0.9,0.8-1.2s0.8-0.4,1.3-0.4c0.4,0,0.7,0.1,1,0.2s0.5,0.4,0.7,0.7s0.3,0.6,0.4,1.1
		s0.2,1,0.2,1.7c0,0.8-0.1,1.5-0.3,2s-0.4,0.9-0.8,1.2s-0.8,0.4-1.3,0.4c-0.7,0-1.2-0.2-1.6-0.7
		C106.8,179.6,106.6,178.6,106.6,177.3z M107.5,177.3c0,1.2,0.1,2,0.4,2.3s0.6,0.6,1,0.6s0.7-0.2,1-0.6s0.4-1.2,0.4-2.3
		c0-1.2-0.1-2-0.4-2.3s-0.6-0.6-1-0.6s-0.7,0.2-1,0.5C107.6,175.3,107.5,176.1,107.5,177.3z"/>
	<path d="M112.1,177.3c0-0.8,0.1-1.5,0.3-2s0.4-0.9,0.8-1.2s0.8-0.4,1.3-0.4c0.4,0,0.7,0.1,1,0.2s0.5,0.4,0.7,0.7s0.3,0.6,0.4,1.1
		s0.2,1,0.2,1.7c0,0.8-0.1,1.5-0.3,2s-0.4,0.9-0.8,1.2s-0.8,0.4-1.3,0.4c-0.7,0-1.2-0.2-1.6-0.7
		C112.4,179.6,112.1,178.6,112.1,177.3z M113,177.3c0,1.2,0.1,2,0.4,2.3s0.6,0.6,1,0.6s0.7-0.2,1-0.6s0.4-1.2,0.4-2.3
		c0-1.2-0.1-2-0.4-2.3s-0.6-0.6-1-0.6s-0.7,0.2-1,0.5C113.2,175.3,113,176.1,113,177.3z"/>
</g>
<g>
	<path d="M135.7,178.9l0.9-0.1c0.1,0.5,0.3,0.9,0.5,1.1s0.5,0.3,0.9,0.3s0.8-0.1,1-0.4s0.4-0.6,0.4-1.1c0-0.4-0.1-0.7-0.4-1
		s-0.6-0.4-1-0.4c-0.2,0-0.4,0-0.6,0.1l0.1-0.8c0.1,0,0.1,0,0.1,0c0.4,0,0.7-0.1,1-0.3s0.4-0.5,0.4-0.9c0-0.3-0.1-0.6-0.3-0.8
		s-0.5-0.3-0.8-0.3s-0.6,0.1-0.9,0.3s-0.4,0.5-0.4,1l-0.9-0.2c0.1-0.6,0.4-1,0.7-1.4s0.9-0.5,1.4-0.5c0.4,0,0.8,0.1,1.1,0.3
		s0.6,0.4,0.8,0.7s0.3,0.6,0.3,0.9c0,0.3-0.1,0.6-0.2,0.8s-0.4,0.5-0.7,0.6c0.4,0.1,0.8,0.3,1,0.6s0.4,0.7,0.4,1.2
		c0,0.6-0.2,1.2-0.7,1.6s-1,0.7-1.7,0.7c-0.6,0-1.1-0.2-1.6-0.6S135.8,179.5,135.7,178.9z"/>
	<path d="M141.3,177.3c0-0.8,0.1-1.5,0.3-2s0.4-0.9,0.8-1.2s0.8-0.4,1.3-0.4c0.4,0,0.7,0.1,1,0.2s0.5,0.4,0.7,0.7s0.3,0.6,0.4,1.1
		s0.2,1,0.2,1.7c0,0.8-0.1,1.5-0.3,2s-0.4,0.9-0.8,1.2s-0.8,0.4-1.3,0.4c-0.7,0-1.2-0.2-1.6-0.7
		C141.5,179.6,141.3,178.6,141.3,177.3z M142.2,177.3c0,1.2,0.1,2,0.4,2.3s0.6,0.6,1,0.6s0.7-0.2,1-0.6s0.4-1.2,0.4-2.3
		c0-1.2-0.1-2-0.4-2.3s-0.6-0.6-1-0.6s-0.7,0.2-1,0.5C142.4,175.3,142.2,176.1,142.2,177.3z"/>
	<path d="M146.9,177.3c0-0.8,0.1-1.5,0.3-2s0.4-0.9,0.8-1.2s0.8-0.4,1.3-0.4c0.4,0,0.7,0.1,1,0.2s0.5,0.4,0.7,0.7s0.3,0.6,0.4,1.1
		s0.2,1,0.2,1.7c0,0.8-0.1,1.5-0.3,2s-0.4,0.9-0.8,1.2s-0.8,0.4-1.3,0.4c-0.7,0-1.2-0.2-1.6-0.7
		C147.1,179.6,146.9,178.6,146.9,177.3z M147.8,177.3c0,1.2,0.1,2,0.4,2.3s0.6,0.6,1,0.6s0.7-0.2,1-0.6s0.4-1.2,0.4-2.3
		c0-1.2-0.1-2-0.4-2.3s-0.6-0.6-1-0.6s-0.7,0.2-1,0.5C147.9,175.3,147.8,176.1,147.8,177.3z"/>
	<path d="M152.4,177.3c0-0.8,0.1-1.5,0.3-2s0.4-0.9,0.8-1.2s0.8-0.4,1.3-0.4c0.4,0,0.7,0.1,1,0.2s0.5,0.4,0.7,0.7s0.3,0.6,0.4,1.1
		s0.2,1,0.2,1.7c0,0.8-0.1,1.5-0.3,2s-0.4,0.9-0.8,1.2s-0.8,0.4-1.3,0.4c-0.7,0-1.2-0.2-1.6-0.7
		C152.7,179.6,152.4,178.6,152.4,177.3z M153.3,177.3c0,1.2,0.1,2,0.4,2.3s0.6,0.6,1,0.6s0.7-0.2,1-0.6s0.4-1.2,0.4-2.3
		c0-1.2-0.1-2-0.4-2.3s-0.6-0.6-1-0.6s-0.7,0.2-1,0.5C153.5,175.3,153.3,176.1,153.3,177.3z"/>
	<path d="M158,177.3c0-0.8,0.1-1.5,0.3-2s0.4-0.9,0.8-1.2s0.8-0.4,1.3-0.4c0.4,0,0.7,0.1,1,0.2s0.5,0.4,0.7,0.7s0.3,0.6,0.4,1.1
		s0.2,1,0.2,1.7c0,0.8-0.1,1.5-0.3,2s-0.4,0.9-0.8,1.2s-0.8,0.4-1.3,0.4c-0.7,0-1.2-0.2-1.6-0.7C158.2,179.6,158,178.6,158,177.3z
		 M158.9,177.3c0,1.2,0.1,2,0.4,2.3s0.6,0.6,1,0.6s0.7-0.2,1-0.6s0.4-1.2,0.4-2.3c0-1.2-0.1-2-0.4-2.3s-0.6-0.6-1-0.6
		s-0.7,0.2-1,0.5C159,175.3,158.9,176.1,158.9,177.3z"/>
</g>
<g>
	<path d="M184.4,180.8v-1.7h-3.1v-0.8l3.3-4.6h0.7v4.6h1v0.8h-1v1.7H184.4z M184.4,178.3v-3.2l-2.2,3.2H184.4z"/>
	<path d="M187.2,179l0.9-0.1c0.1,0.4,0.2,0.8,0.5,1s0.5,0.3,0.9,0.3s0.8-0.2,1.1-0.5s0.4-0.7,0.4-1.3c0-0.5-0.1-0.9-0.4-1.2
		s-0.7-0.4-1.1-0.4c-0.3,0-0.5,0.1-0.8,0.2s-0.4,0.3-0.5,0.5l-0.8-0.1l0.7-3.7h3.6v0.8h-2.9l-0.4,1.9c0.4-0.3,0.9-0.4,1.4-0.4
		c0.6,0,1.2,0.2,1.6,0.6s0.6,1,0.6,1.7c0,0.6-0.2,1.2-0.6,1.7c-0.5,0.6-1.1,0.9-1.9,0.9c-0.7,0-1.2-0.2-1.6-0.5
		S187.2,179.6,187.2,179z"/>
	<path d="M192.7,177.3c0-0.8,0.1-1.5,0.3-2s0.4-0.9,0.8-1.2s0.8-0.4,1.3-0.4c0.4,0,0.7,0.1,1,0.2s0.5,0.4,0.7,0.7s0.3,0.6,0.4,1.1
		s0.2,1,0.2,1.7c0,0.8-0.1,1.5-0.3,2s-0.4,0.9-0.8,1.2s-0.8,0.4-1.3,0.4c-0.7,0-1.2-0.2-1.6-0.7
		C192.9,179.6,192.7,178.6,192.7,177.3z M193.6,177.3c0,1.2,0.1,2,0.4,2.3s0.6,0.6,1,0.6s0.7-0.2,1-0.6s0.4-1.2,0.4-2.3
		c0-1.2-0.1-2-0.4-2.3s-0.6-0.6-1-0.6s-0.7,0.2-1,0.5C193.8,175.3,193.6,176.1,193.6,177.3z"/>
	<path d="M198.3,177.3c0-0.8,0.1-1.5,0.3-2s0.4-0.9,0.8-1.2s0.8-0.4,1.3-0.4c0.4,0,0.7,0.1,1,0.2s0.5,0.4,0.7,0.7s0.3,0.6,0.4,1.1
		s0.2,1,0.2,1.7c0,0.8-0.1,1.5-0.3,2s-0.4,0.9-0.8,1.2s-0.8,0.4-1.3,0.4c-0.7,0-1.2-0.2-1.6-0.7
		C198.5,179.6,198.3,178.6,198.3,177.3z M199.2,177.3c0,1.2,0.1,2,0.4,2.3s0.6,0.6,1,0.6s0.7-0.2,1-0.6s0.4-1.2,0.4-2.3
		c0-1.2-0.1-2-0.4-2.3s-0.6-0.6-1-0.6s-0.7,0.2-1,0.5C199.3,175.3,199.2,176.1,199.2,177.3z"/>
	<path d="M203.8,177.3c0-0.8,0.1-1.5,0.3-2s0.4-0.9,0.8-1.2s0.8-0.4,1.3-0.4c0.4,0,0.7,0.1,1,0.2s0.5,0.4,0.7,0.7s0.3,0.6,0.4,1.1
		s0.2,1,0.2,1.7c0,0.8-0.1,1.5-0.3,2s-0.4,0.9-0.8,1.2s-0.8,0.4-1.3,0.4c-0.7,0-1.2-0.2-1.6-0.7
		C204.1,179.6,203.8,178.6,203.8,177.3z M204.7,177.3c0,1.2,0.1,2,0.4,2.3s0.6,0.6,1,0.6s0.7-0.2,1-0.6s0.4-1.2,0.4-2.3
		c0-1.2-0.1-2-0.4-2.3s-0.6-0.6-1-0.6s-0.7,0.2-1,0.5C204.9,175.3,204.7,176.1,204.7,177.3z"/>
</g>
<g>
	<path d="M232,175.4l-0.9,0.1c-0.1-0.3-0.2-0.6-0.3-0.8c-0.2-0.3-0.5-0.4-0.9-0.4c-0.3,0-0.5,0.1-0.7,0.2c-0.3,0.2-0.5,0.5-0.7,0.9
		s-0.2,0.9-0.2,1.7c0.2-0.3,0.5-0.6,0.8-0.7s0.6-0.2,1-0.2c0.6,0,1.1,0.2,1.5,0.6s0.6,1,0.6,1.7c0,0.4-0.1,0.9-0.3,1.3
		s-0.5,0.7-0.8,0.9s-0.7,0.3-1.2,0.3c-0.7,0-1.3-0.3-1.8-0.8s-0.7-1.4-0.7-2.7c0-1.4,0.3-2.4,0.8-3c0.4-0.5,1-0.8,1.8-0.8
		c0.6,0,1,0.2,1.4,0.5S231.9,174.9,232,175.4z M228.4,178.5c0,0.3,0.1,0.6,0.2,0.9s0.3,0.5,0.5,0.6s0.5,0.2,0.7,0.2
		c0.4,0,0.7-0.1,1-0.4s0.4-0.7,0.4-1.2s-0.1-0.9-0.4-1.2s-0.6-0.4-1-0.4s-0.7,0.1-1,0.4S228.4,178.1,228.4,178.5z"/>
	<path d="M233,177.3c0-0.8,0.1-1.5,0.3-2s0.4-0.9,0.8-1.2s0.8-0.4,1.3-0.4c0.4,0,0.7,0.1,1,0.2s0.5,0.4,0.7,0.7s0.3,0.6,0.4,1.1
		s0.2,1,0.2,1.7c0,0.8-0.1,1.5-0.3,2s-0.4,0.9-0.8,1.2s-0.8,0.4-1.3,0.4c-0.7,0-1.2-0.2-1.6-0.7C233.2,179.6,233,178.6,233,177.3z
		 M233.9,177.3c0,1.2,0.1,2,0.4,2.3s0.6,0.6,1,0.6s0.7-0.2,1-0.6s0.4-1.2,0.4-2.3c0-1.2-0.1-2-0.4-2.3s-0.6-0.6-1-0.6
		s-0.7,0.2-1,0.5C234.1,175.3,233.9,176.1,233.9,177.3z"/>
	<path d="M238.6,177.3c0-0.8,0.1-1.5,0.3-2s0.4-0.9,0.8-1.2s0.8-0.4,1.3-0.4c0.4,0,0.7,0.1,1,0.2s0.5,0.4,0.7,0.7s0.3,0.6,0.4,1.1
		s0.2,1,0.2,1.7c0,0.8-0.1,1.5-0.3,2s-0.4,0.9-0.8,1.2s-0.8,0.4-1.3,0.4c-0.7,0-1.2-0.2-1.6-0.7
		C238.8,179.6,238.6,178.6,238.6,177.3z M239.5,177.3c0,1.2,0.1,2,0.4,2.3s0.6,0.6,1,0.6s0.7-0.2,1-0.6s0.4-1.2,0.4-2.3
		c0-1.2-0.1-2-0.4-2.3s-0.6-0.6-1-0.6s-0.7,0.2-1,0.5C239.6,175.3,239.5,176.1,239.5,177.3z"/>
	<path d="M244.1,177.3c0-0.8,0.1-1.5,0.3-2s0.4-0.9,0.8-1.2s0.8-0.4,1.3-0.4c0.4,0,0.7,0.1,1,0.2s0.5,0.4,0.7,0.7s0.3,0.6,0.4,1.1
		s0.2,1,0.2,1.7c0,0.8-0.1,1.5-0.3,2s-0.4,0.9-0.8,1.2s-0.8,0.4-1.3,0.4c-0.7,0-1.2-0.2-1.6-0.7
		C244.4,179.6,244.1,178.6,244.1,177.3z M245,177.3c0,1.2,0.1,2,0.4,2.3s0.6,0.6,1,0.6s0.7-0.2,1-0.6s0.4-1.2,0.4-2.3
		c0-1.2-0.1-2-0.4-2.3s-0.6-0.6-1-0.6s-0.7,0.2-1,0.5C245.2,175.3,245,176.1,245,177.3z"/>
	<path d="M249.7,177.3c0-0.8,0.1-1.5,0.3-2s0.4-0.9,0.8-1.2s0.8-0.4,1.3-0.4c0.4,0,0.7,0.1,1,0.2s0.5,0.4,0.7,0.7s0.3,0.6,0.4,1.1
		s0.2,1,0.2,1.7c0,0.8-0.1,1.5-0.3,2s-0.4,0.9-0.8,1.2s-0.8,0.4-1.3,0.4c-0.7,0-1.2-0.2-1.6-0.7
		C249.9,179.6,249.7,178.6,249.7,177.3z M250.6,177.3c0,1.2,0.1,2,0.4,2.3s0.6,0.6,1,0.6s0.7-0.2,1-0.6s0.4-1.2,0.4-2.3
		c0-1.2-0.1-2-0.4-2.3s-0.6-0.6-1-0.6s-0.7,0.2-1,0.5C250.7,175.3,250.6,176.1,250.6,177.3z"/>
</g>
<g>
	<path d="M273.4,174.6v-0.8h4.6v0.7c-0.5,0.5-0.9,1.1-1.4,1.9s-0.8,1.6-1,2.5c-0.2,0.6-0.3,1.3-0.3,2h-0.9c0-0.6,0.1-1.2,0.3-2
		s0.5-1.6,0.9-2.3s0.8-1.4,1.3-1.9L273.4,174.6L273.4,174.6z"/>
	<path d="M278.9,179l0.9-0.1c0.1,0.4,0.2,0.8,0.5,1s0.5,0.3,0.9,0.3s0.8-0.2,1.1-0.5s0.4-0.7,0.4-1.3c0-0.5-0.1-0.9-0.4-1.2
		s-0.7-0.4-1.1-0.4c-0.3,0-0.5,0.1-0.8,0.2s-0.4,0.3-0.5,0.5l-0.8-0.1l0.7-3.7h3.6v0.8h-2.9l-0.4,1.9c0.4-0.3,0.9-0.4,1.4-0.4
		c0.6,0,1.2,0.2,1.6,0.6s0.6,1,0.6,1.7c0,0.6-0.2,1.2-0.6,1.7c-0.5,0.6-1.1,0.9-1.9,0.9c-0.7,0-1.2-0.2-1.6-0.5
		S278.9,179.6,278.9,179z"/>
	<path d="M284.4,177.3c0-0.8,0.1-1.5,0.3-2s0.4-0.9,0.8-1.2s0.8-0.4,1.3-0.4c0.4,0,0.7,0.1,1,0.2s0.5,0.4,0.7,0.7s0.3,0.6,0.4,1.1
		s0.2,1,0.2,1.7c0,0.8-0.1,1.5-0.3,2s-0.4,0.9-0.8,1.2s-0.8,0.4-1.3,0.4c-0.7,0-1.2-0.2-1.6-0.7
		C284.7,179.6,284.4,178.6,284.4,177.3z M285.3,177.3c0,1.2,0.1,2,0.4,2.3s0.6,0.6,1,0.6s0.7-0.2,1-0.6s0.4-1.2,0.4-2.3
		c0-1.2-0.1-2-0.4-2.3s-0.6-0.6-1-0.6s-0.7,0.2-1,0.5C285.5,175.3,285.3,176.1,285.3,177.3z"/>
	<path d="M290,177.3c0-0.8,0.1-1.5,0.3-2s0.4-0.9,0.8-1.2s0.8-0.4,1.3-0.4c0.4,0,0.7,0.1,1,0.2s0.5,0.4,0.7,0.7s0.3,0.6,0.4,1.1
		s0.2,1,0.2,1.7c0,0.8-0.1,1.5-0.3,2s-0.4,0.9-0.8,1.2s-0.8,0.4-1.3,0.4c-0.7,0-1.2-0.2-1.6-0.7C290.2,179.6,290,178.6,290,177.3z
		 M290.9,177.3c0,1.2,0.1,2,0.4,2.3s0.6,0.6,1,0.6s0.7-0.2,1-0.6s0.4-1.2,0.4-2.3c0-1.2-0.1-2-0.4-2.3s-0.6-0.6-1-0.6
		s-0.7,0.2-1,0.5C291,175.3,290.9,176.1,290.9,177.3z"/>
	<path d="M295.5,177.3c0-0.8,0.1-1.5,0.3-2s0.4-0.9,0.8-1.2s0.8-0.4,1.3-0.4c0.4,0,0.7,0.1,1,0.2s0.5,0.4,0.7,0.7s0.3,0.6,0.4,1.1
		s0.2,1,0.2,1.7c0,0.8-0.1,1.5-0.3,2s-0.4,0.9-0.8,1.2s-0.8,0.4-1.3,0.4c-0.7,0-1.2-0.2-1.6-0.7
		C295.8,179.6,295.5,178.6,295.5,177.3z M296.5,177.3c0,1.2,0.1,2,0.4,2.3s0.6,0.6,1,0.6s0.7-0.2,1-0.6s0.4-1.2,0.4-2.3
		c0-1.2-0.1-2-0.4-2.3s-0.6-0.6-1-0.6s-0.7,0.2-1,0.5C296.6,175.3,296.5,176.1,296.5,177.3z"/>
</g>
<g>
	<path d="M319.3,179.2l0.8-0.1c0.1,0.4,0.2,0.7,0.4,0.9s0.5,0.3,0.8,0.3s0.5-0.1,0.7-0.2s0.4-0.3,0.5-0.5s0.2-0.5,0.3-0.8
		s0.1-0.7,0.1-1.1c0,0,0-0.1,0-0.2c-0.2,0.3-0.4,0.5-0.7,0.7s-0.6,0.3-1,0.3c-0.6,0-1.1-0.2-1.5-0.6s-0.6-1-0.6-1.7s0.2-1.3,0.6-1.8
		s1-0.7,1.6-0.7c0.5,0,0.9,0.1,1.3,0.4s0.7,0.6,0.9,1.1s0.3,1.1,0.3,2s-0.1,1.6-0.3,2.2s-0.5,1-0.9,1.2s-0.9,0.4-1.4,0.4
		c-0.6,0-1-0.2-1.4-0.5S319.4,179.7,319.3,179.2z M322.9,176c0-0.5-0.1-0.9-0.4-1.2s-0.6-0.4-1-0.4s-0.7,0.2-1,0.5s-0.4,0.7-0.4,1.2
		s0.1,0.8,0.4,1.1s0.6,0.4,1,0.4s0.7-0.1,1-0.4S322.9,176.5,322.9,176z"/>
	<path d="M324.7,177.3c0-0.8,0.1-1.5,0.3-2s0.4-0.9,0.8-1.2s0.8-0.4,1.3-0.4c0.4,0,0.7,0.1,1,0.2s0.5,0.4,0.7,0.7s0.3,0.6,0.4,1.1
		s0.2,1,0.2,1.7c0,0.8-0.1,1.5-0.3,2s-0.4,0.9-0.8,1.2s-0.8,0.4-1.3,0.4c-0.7,0-1.2-0.2-1.6-0.7C325,179.6,324.7,178.6,324.7,177.3z
		 M325.6,177.3c0,1.2,0.1,2,0.4,2.3s0.6,0.6,1,0.6s0.7-0.2,1-0.6s0.4-1.2,0.4-2.3c0-1.2-0.1-2-0.4-2.3s-0.6-0.6-1-0.6
		s-0.7,0.2-1,0.5C325.8,175.3,325.6,176.1,325.6,177.3z"/>
	<path d="M330.3,177.3c0-0.8,0.1-1.5,0.3-2s0.4-0.9,0.8-1.2s0.8-0.4,1.3-0.4c0.4,0,0.7,0.1,1,0.2s0.5,0.4,0.7,0.7s0.3,0.6,0.4,1.1
		s0.2,1,0.2,1.7c0,0.8-0.1,1.5-0.3,2s-0.4,0.9-0.8,1.2s-0.8,0.4-1.3,0.4c-0.7,0-1.2-0.2-1.6-0.7
		C330.5,179.6,330.3,178.6,330.3,177.3z M331.2,177.3c0,1.2,0.1,2,0.4,2.3s0.6,0.6,1,0.6s0.7-0.2,1-0.6s0.4-1.2,0.4-2.3
		c0-1.2-0.1-2-0.4-2.3s-0.6-0.6-1-0.6s-0.7,0.2-1,0.5C331.3,175.3,331.2,176.1,331.2,177.3z"/>
	<path d="M335.8,177.3c0-0.8,0.1-1.5,0.3-2s0.4-0.9,0.8-1.2s0.8-0.4,1.3-0.4c0.4,0,0.7,0.1,1,0.2s0.5,0.4,0.7,0.7s0.3,0.6,0.4,1.1
		s0.2,1,0.2,1.7c0,0.8-0.1,1.5-0.3,2s-0.4,0.9-0.8,1.2s-0.8,0.4-1.3,0.4c-0.7,0-1.2-0.2-1.6-0.7
		C336.1,179.6,335.8,178.6,335.8,177.3z M336.7,177.3c0,1.2,0.1,2,0.4,2.3s0.6,0.6,1,0.6s0.7-0.2,1-0.6s0.4-1.2,0.4-2.3
		c0-1.2-0.1-2-0.4-2.3s-0.6-0.6-1-0.6s-0.7,0.2-1,0.5C336.9,175.3,336.7,176.1,336.7,177.3z"/>
	<path d="M341.4,177.3c0-0.8,0.1-1.5,0.3-2s0.4-0.9,0.8-1.2s0.8-0.4,1.3-0.4c0.4,0,0.7,0.1,1,0.2s0.5,0.4,0.7,0.7s0.3,0.6,0.4,1.1
		s0.2,1,0.2,1.7c0,0.8-0.1,1.5-0.3,2s-0.4,0.9-0.8,1.2s-0.8,0.4-1.3,0.4c-0.7,0-1.2-0.2-1.6-0.7
		C341.6,179.6,341.4,178.6,341.4,177.3z M342.3,177.3c0,1.2,0.1,2,0.4,2.3s0.6,0.6,1,0.6s0.7-0.2,1-0.6s0.4-1.2,0.4-2.3
		c0-1.2-0.1-2-0.4-2.3s-0.6-0.6-1-0.6s-0.7,0.2-1,0.5C342.5,175.3,342.3,176.1,342.3,177.3z"/>
</g>
<g>
	<path d="M365.5,180.8h-0.9v-5.6c-0.2,0.2-0.5,0.4-0.8,0.6s-0.7,0.4-0.9,0.5v-0.8c0.5-0.2,0.9-0.5,1.3-0.8s0.6-0.6,0.8-1h0.6v7.1
		H365.5z"/>
	<path d="M367.8,177.3c0-0.8,0.1-1.5,0.3-2s0.4-0.9,0.8-1.2s0.8-0.4,1.3-0.4c0.4,0,0.7,0.1,1,0.2s0.5,0.4,0.7,0.7s0.3,0.6,0.4,1.1
		s0.2,1,0.2,1.7c0,0.8-0.1,1.5-0.3,2s-0.4,0.9-0.8,1.2s-0.8,0.4-1.3,0.4c-0.7,0-1.2-0.2-1.6-0.7C368,179.6,367.8,178.6,367.8,177.3z
		 M368.7,177.3c0,1.2,0.1,2,0.4,2.3s0.6,0.6,1,0.6s0.7-0.2,1-0.6s0.4-1.2,0.4-2.3c0-1.2-0.1-2-0.4-2.3s-0.6-0.6-1-0.6
		s-0.7,0.2-1,0.5C368.8,175.3,368.7,176.1,368.7,177.3z"/>
	<path d="M373.4,179l0.9-0.1c0.1,0.4,0.2,0.8,0.5,1s0.5,0.3,0.9,0.3s0.8-0.2,1.1-0.5s0.4-0.7,0.4-1.3c0-0.5-0.1-0.9-0.4-1.2
		s-0.7-0.4-1.1-0.4c-0.3,0-0.5,0.1-0.8,0.2s-0.4,0.3-0.5,0.5l-0.8-0.1l0.7-3.7h3.6v0.8H375l-0.4,1.9c0.4-0.3,0.9-0.4,1.4-0.4
		c0.6,0,1.2,0.2,1.6,0.6s0.6,1,0.6,1.7c0,0.6-0.2,1.2-0.6,1.7c-0.5,0.6-1.1,0.9-1.9,0.9c-0.7,0-1.2-0.2-1.6-0.5
		S373.4,179.6,373.4,179z"/>
	<path d="M378.9,177.3c0-0.8,0.1-1.5,0.3-2s0.4-0.9,0.8-1.2s0.8-0.4,1.3-0.4c0.4,0,0.7,0.1,1,0.2s0.5,0.4,0.7,0.7s0.3,0.6,0.4,1.1
		s0.2,1,0.2,1.7c0,0.8-0.1,1.5-0.3,2s-0.4,0.9-0.8,1.2s-0.8,0.4-1.3,0.4c-0.7,0-1.2-0.2-1.6-0.7
		C379.2,179.6,378.9,178.6,378.9,177.3z M379.8,177.3c0,1.2,0.1,2,0.4,2.3s0.6,0.6,1,0.6s0.7-0.2,1-0.6s0.4-1.2,0.4-2.3
		c0-1.2-0.1-2-0.4-2.3s-0.6-0.6-1-0.6s-0.7,0.2-1,0.5C380,175.3,379.8,176.1,379.8,177.3z"/>
	<path d="M384.5,177.3c0-0.8,0.1-1.5,0.3-2s0.4-0.9,0.8-1.2s0.8-0.4,1.3-0.4c0.4,0,0.7,0.1,1,0.2s0.5,0.4,0.7,0.7s0.3,0.6,0.4,1.1
		s0.2,1,0.2,1.7c0,0.8-0.1,1.5-0.3,2s-0.4,0.9-0.8,1.2s-0.8,0.4-1.3,0.4c-0.7,0-1.2-0.2-1.6-0.7
		C384.7,179.6,384.5,178.6,384.5,177.3z M385.4,177.3c0,1.2,0.1,2,0.4,2.3s0.6,0.6,1,0.6s0.7-0.2,1-0.6s0.4-1.2,0.4-2.3
		c0-1.2-0.1-2-0.4-2.3s-0.6-0.6-1-0.6s-0.7,0.2-1,0.5C385.5,175.3,385.4,176.1,385.4,177.3z"/>
	<path d="M390,177.3c0-0.8,0.1-1.5,0.3-2s0.4-0.9,0.8-1.2s0.8-0.4,1.3-0.4c0.4,0,0.7,0.1,1,0.2s0.5,0.4,0.7,0.7s0.3,0.6,0.4,1.1
		s0.2,1,0.2,1.7c0,0.8-0.1,1.5-0.3,2s-0.4,0.9-0.8,1.2s-0.8,0.4-1.3,0.4c-0.7,0-1.2-0.2-1.6-0.7C390.3,179.6,390,178.6,390,177.3z
		 M390.9,177.3c0,1.2,0.1,2,0.4,2.3s0.6,0.6,1,0.6s0.7-0.2,1-0.6s0.4-1.2,0.4-2.3c0-1.2-0.1-2-0.4-2.3s-0.6-0.6-1-0.6
		s-0.7,0.2-1,0.5C391.1,175.3,390.9,176.1,390.9,177.3z"/>
</g>
<g>
	<path class="st1" d="M213.9,28l0.9-0.1c0.1,0.4,0.2,0.8,0.5,1s0.5,0.3,0.9,0.3s0.8-0.2,1.1-0.5s0.4-0.7,0.4-1.3
		c0-0.5-0.1-0.9-0.4-1.2s-0.7-0.4-1.1-0.4c-0.3,0-0.5,0.1-0.8,0.2s-0.4,0.3-0.5,0.5l-0.8-0.1l0.7-3.7h3.6v0.8h-2.9l-0.4,1.9
		c0.4-0.3,0.9-0.4,1.4-0.4c0.6,0,1.2,0.2,1.6,0.6s0.6,1,0.6,1.7c0,0.6-0.2,1.2-0.6,1.7c-0.5,0.6-1.1,0.9-1.9,0.9
		c-0.7,0-1.2-0.2-1.6-0.5S214,28.6,213.9,28z"/>
	<path class="st1" d="M219.5,26.4c0-0.8,0.1-1.5,0.3-2s0.4-0.9,0.8-1.2s0.8-0.4,1.3-0.4c0.4,0,0.7,0.1,1,0.2s0.5,0.4,0.7,0.7
		s0.3,0.6,0.4,1.1s0.2,1,0.2,1.7c0,0.8-0.1,1.5-0.3,2s-0.4,0.9-0.8,1.2s-0.8,0.4-1.3,0.4c-0.7,0-1.2-0.2-1.6-0.7
		C219.7,28.7,219.5,27.7,219.5,26.4z M220.4,26.4c0,1.2,0.1,2,0.4,2.3s0.6,0.6,1,0.6s0.7-0.2,1-0.6s0.4-1.2,0.4-2.3
		c0-1.2-0.1-2-0.4-2.3s-0.6-0.6-1-0.6s-0.7,0.2-1,0.5C220.5,24.4,220.4,25.2,220.4,26.4z"/>
	<path class="st1" d="M225.5,29.9v-1h1v1c0,0.4-0.1,0.7-0.2,0.9s-0.3,0.4-0.6,0.5l-0.2-0.4c0.2-0.1,0.3-0.2,0.4-0.4s0.1-0.4,0.1-0.7
		h-0.5V29.9z"/>
	<path class="st1" d="M227.8,26.4c0-0.8,0.1-1.5,0.3-2s0.4-0.9,0.8-1.2s0.8-0.4,1.3-0.4c0.4,0,0.7,0.1,1,0.2s0.5,0.4,0.7,0.7
		s0.3,0.6,0.4,1.1s0.2,1,0.2,1.7c0,0.8-0.1,1.5-0.3,2s-0.4,0.9-0.8,1.2s-0.8,0.4-1.3,0.4c-0.7,0-1.2-0.2-1.6-0.7
		C228.1,28.7,227.8,27.7,227.8,26.4z M228.7,26.4c0,1.2,0.1,2,0.4,2.3s0.6,0.6,1,0.6s0.7-0.2,1-0.6s0.4-1.2,0.4-2.3
		c0-1.2-0.1-2-0.4-2.3s-0.6-0.6-1-0.6s-0.7,0.2-1,0.5C228.9,24.4,228.7,25.2,228.7,26.4z"/>
	<path class="st1" d="M233.4,26.4c0-0.8,0.1-1.5,0.3-2s0.4-0.9,0.8-1.2s0.8-0.4,1.3-0.4c0.4,0,0.7,0.1,1,0.2s0.5,0.4,0.7,0.7
		s0.3,0.6,0.4,1.1s0.2,1,0.2,1.7c0,0.8-0.1,1.5-0.3,2s-0.4,0.9-0.8,1.2s-0.8,0.4-1.3,0.4c-0.7,0-1.2-0.2-1.6-0.7
		C233.6,28.7,233.4,27.7,233.4,26.4z M234.3,26.4c0,1.2,0.1,2,0.4,2.3s0.6,0.6,1,0.6s0.7-0.2,1-0.6s0.4-1.2,0.4-2.3
		c0-1.2-0.1-2-0.4-2.3s-0.6-0.6-1-0.6s-0.7,0.2-1,0.5C234.4,24.4,234.3,25.2,234.3,26.4z"/>
	<path class="st1" d="M238.9,26.4c0-0.8,0.1-1.5,0.3-2s0.4-0.9,0.8-1.2s0.8-0.4,1.3-0.4c0.4,0,0.7,0.1,1,0.2s0.5,0.4,0.7,0.7
		s0.3,0.6,0.4,1.1s0.2,1,0.2,1.7c0,0.8-0.1,1.5-0.3,2s-0.4,0.9-0.8,1.2s-0.8,0.4-1.3,0.4c-0.7,0-1.2-0.2-1.6-0.7
		C239.2,28.7,238.9,27.7,238.9,26.4z M239.8,26.4c0,1.2,0.1,2,0.4,2.3s0.6,0.6,1,0.6s0.7-0.2,1-0.6s0.4-1.2,0.4-2.3
		c0-1.2-0.1-2-0.4-2.3s-0.6-0.6-1-0.6s-0.7,0.2-1,0.5C240,24.4,239.8,25.2,239.8,26.4z"/>
</g>
<g>
	<path class="st1" d="M219.7,58.5l0.9-0.1c0.1,0.4,0.2,0.8,0.5,1s0.5,0.3,0.9,0.3s0.8-0.2,1.1-0.5s0.4-0.7,0.4-1.3
		c0-0.5-0.1-0.9-0.4-1.2s-0.7-0.4-1.1-0.4c-0.3,0-0.5,0.1-0.8,0.2s-0.4,0.3-0.5,0.5l-0.8-0.1l0.7-3.7h3.6V54h-2.9l-0.4,1.9
		c0.4-0.3,0.9-0.4,1.4-0.4c0.6,0,1.2,0.2,1.6,0.6s0.6,1,0.6,1.7c0,0.6-0.2,1.2-0.6,1.7c-0.5,0.6-1.1,0.9-1.9,0.9
		c-0.7,0-1.2-0.2-1.6-0.5S219.8,59.1,219.7,58.5z"/>
	<path class="st1" d="M229.9,59.5v0.8h-4.7c0-0.2,0-0.4,0.1-0.6c0.1-0.3,0.3-0.6,0.6-1s0.6-0.7,1.1-1.1c0.8-0.6,1.3-1.1,1.6-1.5
		s0.4-0.7,0.4-1.1c0-0.3-0.1-0.6-0.4-0.9s-0.6-0.4-1-0.4s-0.8,0.1-1,0.4s-0.4,0.6-0.4,1.1l-0.9-0.1c0.1-0.7,0.3-1.2,0.7-1.5
		s0.9-0.5,1.6-0.5c0.7,0,1.2,0.2,1.6,0.6s0.6,0.9,0.6,1.4c0,0.3-0.1,0.6-0.2,0.8s-0.3,0.6-0.6,0.9s-0.7,0.7-1.4,1.3
		c-0.5,0.4-0.9,0.7-1,0.9s-0.3,0.3-0.4,0.5C226.2,59.5,229.9,59.5,229.9,59.5z"/>
	<path class="st1" d="M231.3,60.4v-1h1v1c0,0.4-0.1,0.7-0.2,0.9s-0.3,0.4-0.6,0.5l-0.2-0.4c0.2-0.1,0.3-0.2,0.4-0.4s0.1-0.4,0.1-0.7
		h-0.5V60.4z"/>
	<path class="st1" d="M233.6,56.8c0-0.8,0.1-1.5,0.3-2s0.4-0.9,0.8-1.2s0.8-0.4,1.3-0.4c0.4,0,0.7,0.1,1,0.2s0.5,0.4,0.7,0.7
		s0.3,0.6,0.4,1.1s0.2,1,0.2,1.7c0,0.8-0.1,1.5-0.3,2s-0.4,0.9-0.8,1.2s-0.8,0.4-1.3,0.4c-0.7,0-1.2-0.2-1.6-0.7
		C233.9,59.1,233.6,58.2,233.6,56.8z M234.6,56.8c0,1.2,0.1,2,0.4,2.3s0.6,0.6,1,0.6s0.7-0.2,1-0.6s0.4-1.2,0.4-2.3
		c0-1.2-0.1-2-0.4-2.3s-0.6-0.6-1-0.6s-0.7,0.2-1,0.5C234.7,54.8,234.6,55.6,234.6,56.8z"/>
	<path class="st1" d="M239.2,56.8c0-0.8,0.1-1.5,0.3-2s0.4-0.9,0.8-1.2s0.8-0.4,1.3-0.4c0.4,0,0.7,0.1,1,0.2s0.5,0.4,0.7,0.7
		s0.3,0.6,0.4,1.1s0.2,1,0.2,1.7c0,0.8-0.1,1.5-0.3,2s-0.4,0.9-0.8,1.2s-0.8,0.4-1.3,0.4c-0.7,0-1.2-0.2-1.6-0.7
		C239.4,59.1,239.2,58.2,239.2,56.8z M240.1,56.8c0,1.2,0.1,2,0.4,2.3s0.6,0.6,1,0.6s0.7-0.2,1-0.6s0.4-1.2,0.4-2.3
		c0-1.2-0.1-2-0.4-2.3s-0.6-0.6-1-0.6s-0.7,0.2-1,0.5C240.3,54.8,240.1,55.6,240.1,56.8z"/>
	<path class="st1" d="M244.8,56.8c0-0.8,0.1-1.5,0.3-2s0.4-0.9,0.8-1.2s0.8-0.4,1.3-0.4c0.4,0,0.7,0.1,1,0.2s0.5,0.4,0.7,0.7
		s0.3,0.6,0.4,1.1s0.2,1,0.2,1.7c0,0.8-0.1,1.5-0.3,2s-0.4,0.9-0.8,1.2s-0.8,0.4-1.3,0.4c-0.7,0-1.2-0.2-1.6-0.7
		C245,59.1,244.8,58.2,244.8,56.8z M245.7,56.8c0,1.2,0.1,2,0.4,2.3s0.6,0.6,1,0.6s0.7-0.2,1-0.6s0.4-1.2,0.4-2.3
		c0-1.2-0.1-2-0.4-2.3s-0.6-0.6-1-0.6s-0.7,0.2-1,0.5C245.8,54.8,245.7,55.6,245.7,56.8z"/>
</g>
<g>
	<path class="st1" d="M230,88.9l0.9-0.1c0.1,0.4,0.2,0.8,0.5,1s0.5,0.3,0.9,0.3s0.8-0.2,1.1-0.5s0.4-0.7,0.4-1.3
		c0-0.5-0.1-0.9-0.4-1.2s-0.7-0.4-1.1-0.4c-0.3,0-0.5,0.1-0.8,0.2s-0.4,0.3-0.5,0.5l-0.8-0.1l0.7-3.7h3.6v0.8h-2.9l-0.4,1.9
		c0.4-0.3,0.9-0.4,1.4-0.4c0.6,0,1.2,0.2,1.6,0.6s0.6,1,0.6,1.7c0,0.6-0.2,1.2-0.6,1.7c-0.5,0.6-1.1,0.9-1.9,0.9
		c-0.7,0-1.2-0.2-1.6-0.5S230.1,89.5,230,88.9z"/>
	<path class="st1" d="M235.6,88.9l0.9-0.1c0.1,0.4,0.2,0.8,0.5,1s0.5,0.3,0.9,0.3s0.8-0.2,1.1-0.5s0.4-0.7,0.4-1.3
		c0-0.5-0.1-0.9-0.4-1.2s-0.7-0.4-1.1-0.4c-0.3,0-0.5,0.1-0.8,0.2s-0.4,0.3-0.5,0.5l-0.8-0.1l0.7-3.7h3.6v0.8h-2.9l-0.4,1.9
		c0.4-0.3,0.9-0.4,1.4-0.4c0.6,0,1.2,0.2,1.6,0.6s0.6,1,0.6,1.7c0,0.6-0.2,1.2-0.6,1.7c-0.5,0.6-1.1,0.9-1.9,0.9
		c-0.7,0-1.2-0.2-1.6-0.5S235.6,89.5,235.6,88.9z"/>
	<path class="st1" d="M241.6,90.8v-1h1v1c0,0.4-0.1,0.7-0.2,0.9s-0.3,0.4-0.6,0.5l-0.2-0.4c0.2-0.1,0.3-0.2,0.4-0.4s0.1-0.4,0.1-0.7
		L241.6,90.8L241.6,90.8z"/>
	<path class="st1" d="M243.9,87.3c0-0.8,0.1-1.5,0.3-2s0.4-0.9,0.8-1.2s0.8-0.4,1.3-0.4c0.4,0,0.7,0.1,1,0.2s0.5,0.4,0.7,0.7
		s0.3,0.6,0.4,1.1s0.2,1,0.2,1.7c0,0.8-0.1,1.5-0.3,2s-0.4,0.9-0.8,1.2s-0.8,0.4-1.3,0.4c-0.7,0-1.2-0.2-1.6-0.7
		C244.1,89.6,243.9,88.6,243.9,87.3z M244.8,87.3c0,1.2,0.1,2,0.4,2.3s0.6,0.6,1,0.6s0.7-0.2,1-0.6s0.4-1.2,0.4-2.3
		c0-1.2-0.1-2-0.4-2.3s-0.6-0.6-1-0.6s-0.7,0.2-1,0.5C245,85.3,244.8,86.1,244.8,87.3z"/>
	<path class="st1" d="M249.5,87.3c0-0.8,0.1-1.5,0.3-2s0.4-0.9,0.8-1.2s0.8-0.4,1.3-0.4c0.4,0,0.7,0.1,1,0.2s0.5,0.4,0.7,0.7
		s0.3,0.6,0.4,1.1s0.2,1,0.2,1.7c0,0.8-0.1,1.5-0.3,2s-0.4,0.9-0.8,1.2s-0.8,0.4-1.3,0.4c-0.7,0-1.2-0.2-1.6-0.7
		C249.7,89.6,249.5,88.6,249.5,87.3z M250.4,87.3c0,1.2,0.1,2,0.4,2.3s0.6,0.6,1,0.6s0.7-0.2,1-0.6s0.4-1.2,0.4-2.3
		c0-1.2-0.1-2-0.4-2.3s-0.6-0.6-1-0.6s-0.7,0.2-1,0.5C250.5,85.3,250.4,86.1,250.4,87.3z"/>
	<path class="st1" d="M255,87.3c0-0.8,0.1-1.5,0.3-2s0.4-0.9,0.8-1.2c0.4-0.3,0.8-0.4,1.3-0.4c0.4,0,0.7,0.1,1,0.2s0.5,0.4,0.7,0.7
		s0.3,0.6,0.4,1.1s0.2,1,0.2,1.7c0,0.8-0.1,1.5-0.3,2s-0.4,0.9-0.8,1.2s-0.8,0.4-1.3,0.4c-0.7,0-1.2-0.2-1.6-0.7
		C255.3,89.6,255,88.6,255,87.3z M255.9,87.3c0,1.2,0.1,2,0.4,2.3s0.6,0.6,1,0.6s0.7-0.2,1-0.6s0.4-1.2,0.4-2.3c0-1.2-0.1-2-0.4-2.3
		s-0.6-0.6-1-0.6s-0.7,0.2-1,0.5C256.1,85.3,255.9,86.1,255.9,87.3z"/>
</g>
<g>
	<path class="st1" d="M236.3,119.4l0.9-0.1c0.1,0.4,0.2,0.8,0.5,1s0.5,0.3,0.9,0.3s0.8-0.2,1.1-0.5s0.4-0.7,0.4-1.3
		c0-0.5-0.1-0.9-0.4-1.2s-0.7-0.4-1.1-0.4c-0.3,0-0.5,0.1-0.8,0.2s-0.4,0.3-0.5,0.5l-0.8-0.1l0.7-3.7h3.6v0.8h-2.9l-0.4,1.9
		c0.4-0.3,0.9-0.4,1.4-0.4c0.6,0,1.2,0.2,1.6,0.6s0.6,1,0.6,1.7c0,0.6-0.2,1.2-0.6,1.7c-0.5,0.6-1.1,0.9-1.9,0.9
		c-0.7,0-1.2-0.2-1.6-0.5S236.4,120,236.3,119.4z"/>
	<path class="st1" d="M242,115v-0.8h4.6v0.7c-0.5,0.5-0.9,1.1-1.4,1.9s-0.8,1.6-1,2.5c-0.2,0.6-0.3,1.3-0.3,2H243
		c0-0.6,0.1-1.2,0.3-2s0.5-1.6,0.9-2.3s0.8-1.4,1.3-1.9L242,115L242,115z"/>
	<path class="st1" d="M247.9,121.2v-1h1v1c0,0.4-0.1,0.7-0.2,0.9s-0.3,0.4-0.6,0.5l-0.2-0.4c0.2-0.1,0.3-0.2,0.4-0.4
		s0.1-0.4,0.1-0.7L247.9,121.2L247.9,121.2z"/>
	<path class="st1" d="M250.2,117.7c0-0.8,0.1-1.5,0.3-2s0.4-0.9,0.8-1.2s0.8-0.4,1.3-0.4c0.4,0,0.7,0.1,1,0.2s0.5,0.4,0.7,0.7
		s0.3,0.6,0.4,1.1s0.2,1,0.2,1.7c0,0.8-0.1,1.5-0.3,2s-0.4,0.9-0.8,1.2s-0.8,0.4-1.3,0.4c-0.7,0-1.2-0.2-1.6-0.7
		C250.5,120,250.2,119,250.2,117.7z M251.1,117.7c0,1.2,0.1,2,0.4,2.3s0.6,0.6,1,0.6s0.7-0.2,1-0.6s0.4-1.2,0.4-2.3
		c0-1.2-0.1-2-0.4-2.3s-0.6-0.6-1-0.6s-0.7,0.2-1,0.5C251.3,115.7,251.1,116.5,251.1,117.7z"/>
	<path class="st1" d="M255.8,117.7c0-0.8,0.1-1.5,0.3-2c0.2-0.5,0.4-0.9,0.8-1.2s0.8-0.4,1.3-0.4c0.4,0,0.7,0.1,1,0.2
		s0.5,0.4,0.7,0.7s0.3,0.6,0.4,1.1s0.2,1,0.2,1.7c0,0.8-0.1,1.5-0.3,2s-0.4,0.9-0.8,1.2s-0.8,0.4-1.3,0.4c-0.7,0-1.2-0.2-1.6-0.7
		C256,120,255.8,119,255.8,117.7z M256.7,117.7c0,1.2,0.1,2,0.4,2.3s0.6,0.6,1,0.6s0.7-0.2,1-0.6s0.4-1.2,0.4-2.3
		c0-1.2-0.1-2-0.4-2.3s-0.6-0.6-1-0.6s-0.7,0.2-1,0.5C256.8,115.7,256.7,116.5,256.7,117.7z"/>
	<path class="st1" d="M261.4,117.7c0-0.8,0.1-1.5,0.3-2s0.4-0.9,0.8-1.2s0.8-0.4,1.3-0.4c0.4,0,0.7,0.1,1,0.2s0.5,0.4,0.7,0.7
		s0.3,0.6,0.4,1.1s0.2,1,0.2,1.7c0,0.8-0.1,1.5-0.3,2s-0.4,0.9-0.8,1.2s-0.8,0.4-1.3,0.4c-0.7,0-1.2-0.2-1.6-0.7
		C261.6,120,261.4,119,261.4,117.7z M262.3,117.7c0,1.2,0.1,2,0.4,2.3s0.6,0.6,1,0.6s0.7-0.2,1-0.6s0.4-1.2,0.4-2.3
		c0-1.2-0.1-2-0.4-2.3s-0.6-0.6-1-0.6s-0.7,0.2-1,0.5C262.4,115.7,262.3,116.5,262.3,117.7z"/>
</g>
<g>
	<path class="st1" d="M250.1,146.3l-0.9,0.1c-0.1-0.3-0.2-0.6-0.3-0.8c-0.2-0.3-0.5-0.4-0.9-0.4c-0.3,0-0.5,0.1-0.7,0.2
		c-0.3,0.2-0.5,0.5-0.7,0.9s-0.2,0.9-0.2,1.7c0.2-0.3,0.5-0.6,0.8-0.7s0.6-0.2,1-0.2c0.6,0,1.1,0.2,1.5,0.6s0.6,1,0.6,1.7
		c0,0.4-0.1,0.9-0.3,1.3s-0.5,0.7-0.8,0.9s-0.7,0.3-1.2,0.3c-0.7,0-1.3-0.3-1.8-0.8s-0.7-1.4-0.7-2.7c0-1.4,0.3-2.4,0.8-3
		c0.4-0.5,1-0.8,1.8-0.8c0.6,0,1,0.2,1.4,0.5S250,145.7,250.1,146.3z M246.5,149.3c0,0.3,0.1,0.6,0.2,0.9s0.3,0.5,0.5,0.6
		s0.5,0.2,0.7,0.2c0.4,0,0.7-0.1,1-0.4s0.4-0.7,0.4-1.2s-0.1-0.9-0.4-1.2s-0.6-0.4-1-0.4s-0.7,0.1-1,0.4S246.5,148.9,246.5,149.3z"
		/>
	<path class="st1" d="M251.1,148.1c0-0.8,0.1-1.5,0.3-2s0.4-0.9,0.8-1.2s0.8-0.4,1.3-0.4c0.4,0,0.7,0.1,1,0.2s0.5,0.4,0.7,0.7
		s0.3,0.6,0.4,1.1s0.2,1,0.2,1.7c0,0.8-0.1,1.5-0.3,2s-0.4,0.9-0.8,1.2s-0.8,0.4-1.3,0.4c-0.7,0-1.2-0.2-1.6-0.7
		C251.3,150.5,251.1,149.5,251.1,148.1z M252,148.1c0,1.2,0.1,2,0.4,2.3s0.6,0.6,1,0.6s0.7-0.2,1-0.6s0.4-1.2,0.4-2.3
		c0-1.2-0.1-2-0.4-2.3s-0.6-0.6-1-0.6s-0.7,0.2-1,0.5C252.1,146.2,252,147,252,148.1z"/>
	<path class="st1" d="M257.1,151.7v-1h1v1c0,0.4-0.1,0.7-0.2,0.9s-0.3,0.4-0.6,0.5l-0.2-0.4c0.2-0.1,0.3-0.2,0.4-0.4
		s0.1-0.4,0.1-0.7L257.1,151.7L257.1,151.7z"/>
	<path class="st1" d="M259.4,148.1c0-0.8,0.1-1.5,0.3-2s0.4-0.9,0.8-1.2s0.8-0.4,1.3-0.4c0.4,0,0.7,0.1,1,0.2s0.5,0.4,0.7,0.7
		s0.3,0.6,0.4,1.1s0.2,1,0.2,1.7c0,0.8-0.1,1.5-0.3,2s-0.4,0.9-0.8,1.2s-0.8,0.4-1.3,0.4c-0.7,0-1.2-0.2-1.6-0.7
		C259.6,150.5,259.4,149.5,259.4,148.1z M260.3,148.1c0,1.2,0.1,2,0.4,2.3s0.6,0.6,1,0.6s0.7-0.2,1-0.6s0.4-1.2,0.4-2.3
		c0-1.2-0.1-2-0.4-2.3s-0.6-0.6-1-0.6s-0.7,0.2-1,0.5C260.5,146.2,260.3,147,260.3,148.1z"/>
	<path class="st1" d="M265,148.1c0-0.8,0.1-1.5,0.3-2s0.4-0.9,0.8-1.2s0.8-0.4,1.3-0.4c0.4,0,0.7,0.1,1,0.2s0.5,0.4,0.7,0.7
		s0.3,0.6,0.4,1.1s0.2,1,0.2,1.7c0,0.8-0.1,1.5-0.3,2s-0.4,0.9-0.8,1.2s-0.8,0.4-1.3,0.4c-0.7,0-1.2-0.2-1.6-0.7
		C265.2,150.5,265,149.5,265,148.1z M265.9,148.1c0,1.2,0.1,2,0.4,2.3s0.6,0.6,1,0.6s0.7-0.2,1-0.6s0.4-1.2,0.4-2.3
		c0-1.2-0.1-2-0.4-2.3s-0.6-0.6-1-0.6s-0.7,0.2-1,0.5C266,146.2,265.9,147,265.9,148.1z"/>
	<path class="st1" d="M270.5,148.1c0-0.8,0.1-1.5,0.3-2s0.4-0.9,0.8-1.2s0.8-0.4,1.3-0.4c0.4,0,0.7,0.1,1,0.2s0.5,0.4,0.7,0.7
		s0.3,0.6,0.4,1.1s0.2,1,0.2,1.7c0,0.8-0.1,1.5-0.3,2s-0.4,0.9-0.8,1.2s-0.8,0.4-1.3,0.4c-0.7,0-1.2-0.2-1.6-0.7
		C270.8,150.5,270.5,149.5,270.5,148.1z M271.4,148.1c0,1.2,0.1,2,0.4,2.3s0.6,0.6,1,0.6s0.7-0.2,1-0.6s0.4-1.2,0.4-2.3
		c0-1.2-0.1-2-0.4-2.3s-0.6-0.6-1-0.6s-0.7,0.2-1,0.5C271.6,146.2,271.4,147,271.4,148.1z"/>
</g>
<rect x="57" y="22.9" class="st2" width="152.2" height="9"/>
<rect x="57" y="53.2" class="st2" width="158.9" height="9"/>
<rect x="57" y="83.4" class="st2" width="168.1" height="9"/>
<rect x="57" y="113.7" class="st2" width="174" height="9"/>
<rect x="57" y="143.9" class="st2" width="183" height="9"/>
</svg>
