<?xml version="1.0" encoding="utf-8"?>
<!-- Generator: Adobe Illustrator 19.2.0, SVG Export Plug-In . SVG Version: 6.00 Build 0)  -->
<svg version="1.1" id="圖層_1" xmlns="http://www.w3.org/2000/svg" xmlns:xlink="http://www.w3.org/1999/xlink" x="0px" y="0px"
	 viewBox="0 0 406 192" style="enable-background:new 0 0 406 192;" xml:space="preserve">
<style type="text/css">
	.st0{fill:none;stroke:#D3D3D3;stroke-miterlimit:10;}
	.st1{fill:#8E8E8E;}
	.st2{fill:#FF9D00;}
</style>
<rect x="58.5" y="12.5" class="st0" width="53" height="30"/>
<rect x="111.5" y="12.5" class="st0" width="54" height="30"/>
<rect x="165.5" y="12.5" class="st0" width="53" height="30"/>
<rect x="218.5" y="12.5" class="st0" width="54" height="30"/>
<rect x="272.5" y="12.5" class="st0" width="53" height="30"/>
<rect x="325.5" y="12.5" class="st0" width="53" height="30"/>
<rect x="58.5" y="42.5" class="st0" width="53" height="30"/>
<rect x="111.5" y="42.5" class="st0" width="54" height="30"/>
<rect x="165.5" y="42.5" class="st0" width="53" height="30"/>
<rect x="218.5" y="42.5" class="st0" width="54" height="30"/>
<rect x="272.5" y="42.5" class="st0" width="53" height="30"/>
<rect x="325.5" y="42.5" class="st0" width="53" height="30"/>
<rect x="58.5" y="72.5" class="st0" width="53" height="31"/>
<rect x="111.5" y="72.5" class="st0" width="54" height="31"/>
<rect x="165.5" y="72.5" class="st0" width="53" height="31"/>
<rect x="218.5" y="72.5" class="st0" width="54" height="31"/>
<rect x="272.5" y="72.5" class="st0" width="53" height="31"/>
<rect x="325.5" y="72.5" class="st0" width="53" height="31"/>
<rect x="58.5" y="103.5" class="st0" width="53" height="30"/>
<rect x="111.5" y="103.5" class="st0" width="54" height="30"/>
<rect x="165.5" y="103.5" class="st0" width="53" height="30"/>
<rect x="218.5" y="103.5" class="st0" width="54" height="30"/>
<rect x="272.5" y="103.5" class="st0" width="53" height="30"/>
<rect x="325.5" y="103.5" class="st0" width="53" height="30"/>
<rect x="58.5" y="133.5" class="st0" width="53" height="30"/>
<rect x="111.5" y="133.5" class="st0" width="54" height="30"/>
<rect x="165.5" y="133.5" class="st0" width="53" height="30"/>
<rect x="218.5" y="133.5" class="st0" width="54" height="30"/>
<rect x="272.5" y="133.5" class="st0" width="53" height="30"/>
<rect x="325.5" y="133.5" class="st0" width="53" height="30"/>
<line class="st0" x1="378.5" y1="163.8" x2="378.5" y2="167.1"/>
<line class="st0" x1="325.7" y1="163.8" x2="325.7" y2="167.1"/>
<line class="st0" x1="272.7" y1="163.8" x2="272.7" y2="167.1"/>
<line class="st0" x1="218.5" y1="163.8" x2="218.5" y2="167.1"/>
<line class="st0" x1="165.7" y1="163.8" x2="165.7" y2="167.1"/>
<line class="st0" x1="111.7" y1="163.6" x2="111.7" y2="167"/>
<line class="st0" x1="58.5" y1="163.8" x2="58.5" y2="167.1"/>
<line class="st0" x1="58.5" y1="12.5" x2="55.1" y2="12.5"/>
<line class="st0" x1="58.5" y1="42.7" x2="55.1" y2="42.7"/>
<line class="st0" x1="58.5" y1="72.4" x2="55.1" y2="72.4"/>
<line class="st0" x1="58.8" y1="103.4" x2="55.4" y2="103.4"/>
<line class="st0" x1="58.5" y1="133.3" x2="55.1" y2="133.3"/>
<line class="st0" x1="58.5" y1="163.5" x2="55.1" y2="163.5"/>
<g>
	<path d="M12.5,150.5h1.6v-5.9h-1.3v-0.4c0.6-0.1,1-0.3,1.4-0.5h0.5v6.8h1.5v0.5h-3.8L12.5,150.5L12.5,150.5z"/>
	<path d="M17.5,147.3c0-2.5,0.8-3.7,2.1-3.7c1.3,0,2.1,1.2,2.1,3.7c0,2.6-0.8,3.8-2.1,3.8S17.5,149.9,17.5,147.3z M21.2,147.3
		c0-2.2-0.6-3.3-1.6-3.3c-0.9,0-1.6,1.1-1.6,3.3s0.6,3.3,1.6,3.3S21.2,149.5,21.2,147.3z"/>
	<path d="M31.8,149.3H28v2.4h-0.5v-2.4h-4.7v-0.5h1.7v-2.7h3v-1.7h-2.6c-0.5,0.8-1,1.5-1.6,2.1c-0.1-0.1-0.3-0.2-0.4-0.3
		c1-0.8,1.8-2.1,2.4-3.5l0.5,0.1c-0.2,0.4-0.3,0.8-0.5,1.2h6.2v0.5H28v1.7h3.1v0.5H28v2.3h3.7L31.8,149.3L31.8,149.3z M27.6,148.9
		v-2.3H25v2.3H27.6z"/>
	<path d="M37,148.9c-1.4,0.6-3,1.3-4.1,1.8l-0.2-0.5c0.4-0.2,0.9-0.4,1.4-0.6l-0.1-6.4h0.5l0.1,6.2c0.7-0.3,1.5-0.7,2.3-1L37,148.9z
		 M41.5,151.7c-0.5-0.7-1.6-1.9-2.5-2.8c-0.8,1.2-1.9,2.2-3.6,2.8c-0.1-0.1-0.3-0.3-0.4-0.4c3.6-1.3,4.6-3.7,5.1-8.2l0.5,0.1
		c-0.3,2.2-0.6,3.9-1.4,5.3c0.9,0.9,2.1,2.2,2.6,2.9L41.5,151.7z M37.6,146.6c-0.3-0.7-0.9-1.7-1.6-2.4l0.4-0.2
		c0.7,0.7,1.3,1.7,1.6,2.4L37.6,146.6z"/>
	<path d="M51.7,150.8v0.5h-8.8v-0.5h3.8v-7.9h0.5v3.2h3.9v0.5h-3.9v4.3h4.5V150.8z"/>
</g>
<g>
	<path d="M21.2,120.7l0.3-0.4c0.4,0.4,1,0.9,1.9,0.9s1.7-0.8,1.7-1.9c0-1.2-0.6-1.9-1.7-1.9c-0.5,0-0.9,0.2-1.3,0.5l-0.4-0.2
		l0.2-3.3h3.3v0.5h-2.8l-0.2,2.4c0.3-0.2,0.7-0.3,1.2-0.3c1.2,0,2.2,0.7,2.2,2.3c0,1.6-1.1,2.5-2.3,2.5
		C22.3,121.6,21.7,121.1,21.2,120.7z"/>
	<path d="M27.9,117.6c-0.3,0-0.6,0.2-0.9,0.7l-0.3-0.2c0.3-0.6,0.8-0.9,1.2-0.9c0.8,0,1.4,1,2,1c0.3,0,0.6-0.2,0.9-0.7l0.4,0.2
		c-0.3,0.6-0.8,0.9-1.2,0.9C29.1,118.6,28.6,117.6,27.9,117.6z"/>
	<path d="M32.5,121h1.6v-5.9h-1.3v-0.4c0.6-0.1,1-0.3,1.4-0.5h0.5v6.8h1.5v0.5h-3.8L32.5,121L32.5,121z"/>
	<path d="M37.5,117.8c0-2.5,0.8-3.7,2.1-3.7s2.1,1.2,2.1,3.7c0,2.6-0.8,3.8-2.1,3.8C38.3,121.6,37.5,120.4,37.5,117.8z M41.2,117.8
		c0-2.2-0.6-3.3-1.6-3.3c-0.9,0-1.6,1.1-1.6,3.3c0,2.2,0.6,3.3,1.6,3.3C40.6,121.1,41.2,120,41.2,117.8z"/>
	<path d="M51.8,119.8H48v2.4h-0.5v-2.4h-4.7v-0.5h1.7v-2.7h3v-1.7h-2.6c-0.5,0.8-1,1.5-1.6,2.1c-0.1-0.1-0.3-0.2-0.4-0.3
		c1-0.8,1.8-2.1,2.4-3.5l0.5,0.1c-0.2,0.4-0.3,0.8-0.5,1.2h6.2v0.5H48v1.7h3.1v0.5H48v2.3h3.7L51.8,119.8L51.8,119.8z M47.6,119.4
		v-2.3H45v2.3H47.6z"/>
</g>
<g>
	<path d="M26.6,88.6l0.3-0.4c0.4,0.4,1,0.9,1.9,0.9s1.6-0.6,1.6-1.6s-0.7-1.6-2.4-1.6v-0.5c1.6,0,2.2-0.7,2.2-1.6
		c0-0.8-0.5-1.3-1.4-1.3c-0.6,0-1.2,0.3-1.6,0.8l-0.3-0.4c0.5-0.5,1.1-0.8,1.9-0.9c1.1,0,2,0.6,2,1.8c0,0.9-0.6,1.5-1.3,1.8l0,0
		c0.9,0.2,1.6,0.8,1.6,1.9c0,1.3-1,2.1-2.2,2.1C27.7,89.6,27,89.1,26.6,88.6z"/>
	<path d="M33.3,85.6c-0.3,0-0.6,0.2-0.9,0.7l-0.3-0.2c0.3-0.6,0.8-0.9,1.2-0.9c0.8,0,1.4,1,2,1c0.3,0,0.6-0.2,0.9-0.7l0.4,0.2
		c-0.3,0.6-0.8,0.9-1.2,0.9C34.4,86.6,33.9,85.6,33.3,85.6z"/>
	<path d="M37.2,88.7l0.3-0.4c0.4,0.4,1,0.9,1.9,0.9s1.7-0.8,1.7-1.9c0-1.2-0.6-1.9-1.7-1.9c-0.5,0-0.9,0.2-1.3,0.5l-0.4-0.2l0.3-3.3
		h3.3v0.5h-2.8l-0.2,2.4c0.3-0.2,0.7-0.3,1.2-0.3c1.2,0,2.2,0.7,2.2,2.3c0,1.6-1.1,2.5-2.3,2.5C38.4,89.6,37.7,89.1,37.2,88.7z"/>
	<path d="M51.8,87.8H48v2.4h-0.5v-2.4h-4.7v-0.5h1.7v-2.7h3v-1.7h-2.6c-0.5,0.8-1,1.5-1.6,2.1c-0.1-0.1-0.3-0.2-0.4-0.3
		c1-0.8,1.8-2.1,2.4-3.5l0.5,0.1c-0.2,0.4-0.3,0.8-0.5,1.2h6.2V83H48v1.7h3.1v0.5H48v2.3h3.7L51.8,87.8L51.8,87.8z M47.6,87.4v-2.3
		H45v2.3H47.6z"/>
</g>
<g>
	<path d="M27.2,60h1.6v-5.9h-1.3v-0.4c0.6-0.1,1-0.3,1.4-0.5h0.5V60h1.5v0.5h-3.8L27.2,60L27.2,60z"/>
	<path d="M33.3,56.6c-0.3,0-0.6,0.2-0.9,0.7l-0.3-0.2c0.3-0.6,0.8-0.9,1.2-0.9c0.8,0,1.4,1,2,1c0.3,0,0.6-0.2,0.9-0.7l0.4,0.2
		c-0.3,0.6-0.8,0.9-1.2,0.9C34.4,57.6,33.9,56.6,33.3,56.6z"/>
	<path d="M37.3,59.6l0.3-0.4c0.4,0.4,1,0.9,1.9,0.9s1.6-0.6,1.6-1.6s-0.7-1.6-2.4-1.6v-0.5c1.6,0,2.2-0.7,2.2-1.6
		c0-0.8-0.5-1.3-1.4-1.3c-0.6,0-1.2,0.3-1.6,0.8l-0.3-0.4c0.5-0.5,1.1-0.8,1.9-0.9c1.1,0,2,0.6,2,1.8c0,0.9-0.6,1.5-1.3,1.8l0,0
		c0.9,0.2,1.6,0.8,1.6,1.9c0,1.3-1,2.1-2.2,2.1C38.4,60.6,37.7,60.1,37.3,59.6z"/>
	<path d="M51.8,58.8H48v2.4h-0.5v-2.4h-4.7v-0.5h1.7v-2.7h3v-1.7h-2.6c-0.5,0.8-1,1.5-1.6,2.1c-0.1-0.1-0.3-0.2-0.4-0.3
		c1-0.8,1.8-2.1,2.4-3.5l0.5,0.1c-0.2,0.4-0.3,0.8-0.5,1.2h6.2V54H48v1.7h3.1v0.5H48v2.3h3.7L51.8,58.8L51.8,58.8z M47.6,58.4v-2.3
		H45v2.3H47.6z"/>
</g>
<g>
	<path d="M21.8,25.8v0.5h-9v-0.5H21.8z"/>
	<path d="M31.8,28.3H28v2.4h-0.5v-2.4h-4.7v-0.5h1.7v-2.7h3v-1.7h-2.6c-0.5,0.8-1,1.5-1.6,2.1c-0.1-0.1-0.3-0.2-0.4-0.3
		c1-0.8,1.8-2.1,2.4-3.5l0.5,0.1c-0.2,0.4-0.3,0.8-0.5,1.2h6.2v0.5H28v1.7h3.1v0.5H28V28h3.7L31.8,28.3L31.8,28.3z M27.6,27.9v-2.3
		H25v2.3H27.6z"/>
	<path d="M37,27.9c-1.4,0.6-3,1.3-4.1,1.8l-0.2-0.5c0.4-0.2,0.9-0.4,1.4-0.6L34,22.2h0.5l0.1,6.2c0.7-0.3,1.5-0.7,2.3-1L37,27.9z
		 M41.5,30.7C41,30,40,28.8,39.1,27.9c-0.8,1.2-1.9,2.2-3.6,2.8c-0.1-0.1-0.3-0.3-0.4-0.4c3.6-1.3,4.6-3.7,5.1-8.2l0.5,0.1
		c-0.3,2.2-0.6,3.9-1.4,5.3c0.9,0.9,2.1,2.2,2.6,2.9L41.5,30.7z M37.6,25.6c-0.3-0.7-0.9-1.7-1.6-2.4l0.4-0.2
		c0.7,0.7,1.3,1.7,1.6,2.4L37.6,25.6z"/>
	<path d="M47.4,22.9v1.9l0.1-0.1c1.2,0.6,2.8,1.5,3.6,2.1l-0.3,0.4c-0.7-0.6-2.2-1.5-3.4-2.1v5.5h-0.5v-7.8h-4v-0.5h8.8v0.5h-4.3
		V22.9z"/>
</g>
<g>
	<path d="M57.4,177c0-0.8,0.1-1.5,0.3-2s0.4-0.9,0.8-1.2s0.8-0.4,1.3-0.4c0.4,0,0.7,0.1,1,0.2s0.5,0.4,0.7,0.7s0.3,0.6,0.4,1.1
		s0.2,1,0.2,1.7c0,0.8-0.1,1.5-0.3,2s-0.4,0.9-0.8,1.2s-0.8,0.4-1.3,0.4c-0.7,0-1.2-0.2-1.6-0.7C57.7,179.3,57.4,178.3,57.4,177z
		 M58.3,177c0,1.2,0.1,2,0.4,2.3s0.6,0.6,1,0.6s0.7-0.2,1-0.6s0.4-1.2,0.4-2.3c0-1.2-0.1-2-0.4-2.3s-0.6-0.6-1-0.6s-0.7,0.2-1,0.5
		C58.5,175,58.3,175.8,58.3,177z"/>
</g>
<g>
	<path d="M100.6,180.5h-0.9v-5.6c-0.2,0.2-0.5,0.4-0.8,0.6s-0.7,0.4-0.9,0.5v-0.8c0.5-0.2,0.9-0.5,1.3-0.8s0.6-0.6,0.8-1h0.6
		L100.6,180.5L100.6,180.5z"/>
	<path d="M102.8,178.6l0.9-0.1c0.1,0.4,0.2,0.8,0.5,1s0.5,0.3,0.9,0.3s0.8-0.2,1.1-0.5s0.4-0.7,0.4-1.3c0-0.5-0.1-0.9-0.4-1.2
		s-0.7-0.4-1.1-0.4c-0.3,0-0.5,0.1-0.8,0.2s-0.4,0.3-0.5,0.5L103,177l0.7-3.7h3.6v0.8h-2.9L104,176c0.4-0.3,0.9-0.4,1.4-0.4
		c0.6,0,1.2,0.2,1.6,0.6s0.6,1,0.6,1.7c0,0.6-0.2,1.2-0.6,1.7c-0.5,0.6-1.1,0.9-1.9,0.9c-0.7,0-1.2-0.2-1.6-0.5
		S102.9,179.2,102.8,178.6z"/>
	<path d="M108.4,177c0-0.8,0.1-1.5,0.3-2s0.4-0.9,0.8-1.2s0.8-0.4,1.3-0.4c0.4,0,0.7,0.1,1,0.2s0.5,0.4,0.7,0.7s0.3,0.6,0.4,1.1
		s0.2,1,0.2,1.7c0,0.8-0.1,1.5-0.3,2s-0.4,0.9-0.8,1.2s-0.8,0.4-1.3,0.4c-0.7,0-1.2-0.2-1.6-0.7C108.6,179.3,108.4,178.3,108.4,177z
		 M109.3,177c0,1.2,0.1,2,0.4,2.3s0.6,0.6,1,0.6s0.7-0.2,1-0.6s0.4-1.2,0.4-2.3c0-1.2-0.1-2-0.4-2.3s-0.6-0.6-1-0.6s-0.7,0.2-1,0.5
		C109.4,175,109.3,175.8,109.3,177z"/>
	<path d="M113.9,177c0-0.8,0.1-1.5,0.3-2s0.4-0.9,0.8-1.2s0.8-0.4,1.3-0.4c0.4,0,0.7,0.1,1,0.2s0.5,0.4,0.7,0.7s0.3,0.6,0.4,1.1
		s0.2,1,0.2,1.7c0,0.8-0.1,1.5-0.3,2s-0.4,0.9-0.8,1.2s-0.8,0.4-1.3,0.4c-0.7,0-1.2-0.2-1.6-0.7C114.2,179.3,113.9,178.3,113.9,177z
		 M114.8,177c0,1.2,0.1,2,0.4,2.3s0.6,0.6,1,0.6s0.7-0.2,1-0.6s0.4-1.2,0.4-2.3c0-1.2-0.1-2-0.4-2.3s-0.6-0.6-1-0.6s-0.7,0.2-1,0.5
		C115,175,114.8,175.8,114.8,177z"/>
	<path d="M119.5,177c0-0.8,0.1-1.5,0.3-2s0.4-0.9,0.8-1.2s0.8-0.4,1.3-0.4c0.4,0,0.7,0.1,1,0.2s0.5,0.4,0.7,0.7s0.3,0.6,0.4,1.1
		s0.2,1,0.2,1.7c0,0.8-0.1,1.5-0.3,2s-0.4,0.9-0.8,1.2s-0.8,0.4-1.3,0.4c-0.7,0-1.2-0.2-1.6-0.7C119.7,179.3,119.5,178.3,119.5,177z
		 M120.4,177c0,1.2,0.1,2,0.4,2.3s0.6,0.6,1,0.6s0.7-0.2,1-0.6s0.4-1.2,0.4-2.3c0-1.2-0.1-2-0.4-2.3s-0.6-0.6-1-0.6s-0.7,0.2-1,0.5
		C120.6,175,120.4,175.8,120.4,177z"/>
</g>
<g>
	<path d="M151,178.6l0.9-0.1c0.1,0.5,0.3,0.9,0.5,1.1s0.5,0.3,0.9,0.3s0.8-0.1,1-0.4s0.4-0.6,0.4-1.1c0-0.4-0.1-0.7-0.4-1
		s-0.6-0.4-1-0.4c-0.2,0-0.4,0-0.6,0.1l0.1-0.8c0.1,0,0.1,0,0.1,0c0.4,0,0.7-0.1,1-0.3s0.4-0.5,0.4-0.9c0-0.3-0.1-0.6-0.3-0.8
		s-0.5-0.3-0.8-0.3s-0.6,0.1-0.9,0.3s-0.4,0.5-0.4,1l-0.9-0.2c0.1-0.6,0.4-1,0.7-1.4s0.9-0.5,1.4-0.5c0.4,0,0.8,0.1,1.1,0.3
		s0.6,0.4,0.8,0.7s0.3,0.6,0.3,0.9c0,0.3-0.1,0.6-0.2,0.8s-0.4,0.5-0.7,0.6c0.4,0.1,0.8,0.3,1,0.6s0.4,0.7,0.4,1.2
		c0,0.6-0.2,1.2-0.7,1.6s-1,0.7-1.7,0.7c-0.6,0-1.1-0.2-1.6-0.6S151.1,179.2,151,178.6z"/>
	<path d="M156.6,177c0-0.8,0.1-1.5,0.3-2s0.4-0.9,0.8-1.2s0.8-0.4,1.3-0.4c0.4,0,0.7,0.1,1,0.2s0.5,0.4,0.7,0.7s0.3,0.6,0.4,1.1
		s0.2,1,0.2,1.7c0,0.8-0.1,1.5-0.3,2s-0.4,0.9-0.8,1.2s-0.8,0.4-1.3,0.4c-0.7,0-1.2-0.2-1.6-0.7C156.8,179.3,156.6,178.3,156.6,177z
		 M157.5,177c0,1.2,0.1,2,0.4,2.3s0.6,0.6,1,0.6s0.7-0.2,1-0.6s0.4-1.2,0.4-2.3c0-1.2-0.1-2-0.4-2.3s-0.6-0.6-1-0.6s-0.7,0.2-1,0.5
		C157.6,175,157.5,175.8,157.5,177z"/>
	<path d="M162.1,177c0-0.8,0.1-1.5,0.3-2s0.4-0.9,0.8-1.2s0.8-0.4,1.3-0.4c0.4,0,0.7,0.1,1,0.2s0.5,0.4,0.7,0.7s0.3,0.6,0.4,1.1
		s0.2,1,0.2,1.7c0,0.8-0.1,1.5-0.3,2s-0.4,0.9-0.8,1.2s-0.8,0.4-1.3,0.4c-0.7,0-1.2-0.2-1.6-0.7C162.4,179.3,162.1,178.3,162.1,177z
		 M163,177c0,1.2,0.1,2,0.4,2.3s0.6,0.6,1,0.6s0.7-0.2,1-0.6s0.4-1.2,0.4-2.3c0-1.2-0.1-2-0.4-2.3s-0.6-0.6-1-0.6s-0.7,0.2-1,0.5
		C163.2,175,163,175.8,163,177z"/>
	<path d="M167.7,177c0-0.8,0.1-1.5,0.3-2s0.4-0.9,0.8-1.2s0.8-0.4,1.3-0.4c0.4,0,0.7,0.1,1,0.2s0.5,0.4,0.7,0.7s0.3,0.6,0.4,1.1
		s0.2,1,0.2,1.7c0,0.8-0.1,1.5-0.3,2s-0.4,0.9-0.8,1.2s-0.8,0.4-1.3,0.4c-0.7,0-1.2-0.2-1.6-0.7C167.9,179.3,167.7,178.3,167.7,177z
		 M168.6,177c0,1.2,0.1,2,0.4,2.3s0.6,0.6,1,0.6s0.7-0.2,1-0.6s0.4-1.2,0.4-2.3c0-1.2-0.1-2-0.4-2.3s-0.6-0.6-1-0.6s-0.7,0.2-1,0.5
		C168.8,175,168.6,175.8,168.6,177z"/>
	<path d="M173.3,177c0-0.8,0.1-1.5,0.3-2s0.4-0.9,0.8-1.2s0.8-0.4,1.3-0.4c0.4,0,0.7,0.1,1,0.2s0.5,0.4,0.7,0.7s0.3,0.6,0.4,1.1
		s0.2,1,0.2,1.7c0,0.8-0.1,1.5-0.3,2s-0.4,0.9-0.8,1.2s-0.8,0.4-1.3,0.4c-0.7,0-1.2-0.2-1.6-0.7C173.5,179.3,173.3,178.3,173.3,177z
		 M174.2,177c0,1.2,0.1,2,0.4,2.3s0.6,0.6,1,0.6s0.7-0.2,1-0.6s0.4-1.2,0.4-2.3c0-1.2-0.1-2-0.4-2.3s-0.6-0.6-1-0.6s-0.7,0.2-1,0.5
		C174.3,175,174.2,175.8,174.2,177z"/>
</g>
<g>
	<path d="M207.6,180.5v-1.7h-3.1V178l3.3-4.6h0.7v4.6h1v0.8h-1v1.7H207.6z M207.6,178v-3.2l-2.2,3.2H207.6z"/>
	<path d="M210.3,178.6l0.9-0.1c0.1,0.4,0.2,0.8,0.5,1s0.5,0.3,0.9,0.3s0.8-0.2,1.1-0.5s0.4-0.7,0.4-1.3c0-0.5-0.1-0.9-0.4-1.2
		s-0.7-0.4-1.1-0.4c-0.3,0-0.5,0.1-0.8,0.2s-0.4,0.3-0.5,0.5l-0.8-0.1l0.7-3.7h3.6v0.8h-2.9l-0.4,1.9c0.4-0.3,0.9-0.4,1.4-0.4
		c0.6,0,1.2,0.2,1.6,0.6s0.6,1,0.6,1.7c0,0.6-0.2,1.2-0.6,1.7c-0.5,0.6-1.1,0.9-1.9,0.9c-0.7,0-1.2-0.2-1.6-0.5
		S210.4,179.2,210.3,178.6z"/>
	<path d="M215.9,177c0-0.8,0.1-1.5,0.3-2s0.4-0.9,0.8-1.2s0.8-0.4,1.3-0.4c0.4,0,0.7,0.1,1,0.2s0.5,0.4,0.7,0.7s0.3,0.6,0.4,1.1
		s0.2,1,0.2,1.7c0,0.8-0.1,1.5-0.3,2s-0.4,0.9-0.8,1.2s-0.8,0.4-1.3,0.4c-0.7,0-1.2-0.2-1.6-0.7C216.1,179.3,215.9,178.3,215.9,177z
		 M216.8,177c0,1.2,0.1,2,0.4,2.3s0.6,0.6,1,0.6s0.7-0.2,1-0.6s0.4-1.2,0.4-2.3c0-1.2-0.1-2-0.4-2.3s-0.6-0.6-1-0.6s-0.7,0.2-1,0.5
		C216.9,175,216.8,175.8,216.8,177z"/>
	<path d="M221.4,177c0-0.8,0.1-1.5,0.3-2s0.4-0.9,0.8-1.2s0.8-0.4,1.3-0.4c0.4,0,0.7,0.1,1,0.2s0.5,0.4,0.7,0.7s0.3,0.6,0.4,1.1
		s0.2,1,0.2,1.7c0,0.8-0.1,1.5-0.3,2s-0.4,0.9-0.8,1.2s-0.8,0.4-1.3,0.4c-0.7,0-1.2-0.2-1.6-0.7C221.7,179.3,221.4,178.3,221.4,177z
		 M222.3,177c0,1.2,0.1,2,0.4,2.3s0.6,0.6,1,0.6s0.7-0.2,1-0.6s0.4-1.2,0.4-2.3c0-1.2-0.1-2-0.4-2.3s-0.6-0.6-1-0.6s-0.7,0.2-1,0.5
		C222.5,175,222.3,175.8,222.3,177z"/>
	<path d="M227,177c0-0.8,0.1-1.5,0.3-2s0.4-0.9,0.8-1.2s0.8-0.4,1.3-0.4c0.4,0,0.7,0.1,1,0.2s0.5,0.4,0.7,0.7s0.3,0.6,0.4,1.1
		s0.2,1,0.2,1.7c0,0.8-0.1,1.5-0.3,2s-0.4,0.9-0.8,1.2s-0.8,0.4-1.3,0.4c-0.7,0-1.2-0.2-1.6-0.7C227.2,179.3,227,178.3,227,177z
		 M227.9,177c0,1.2,0.1,2,0.4,2.3s0.6,0.6,1,0.6s0.7-0.2,1-0.6s0.4-1.2,0.4-2.3c0-1.2-0.1-2-0.4-2.3s-0.6-0.6-1-0.6s-0.7,0.2-1,0.5
		C228.1,175,227.9,175.8,227.9,177z"/>
</g>
<g>
	<path d="M263.1,175.1l-0.9,0.1c-0.1-0.3-0.2-0.6-0.3-0.8c-0.2-0.3-0.5-0.4-0.9-0.4c-0.3,0-0.5,0.1-0.7,0.2
		c-0.3,0.2-0.5,0.5-0.7,0.9s-0.2,0.9-0.2,1.7c0.2-0.3,0.5-0.6,0.8-0.7s0.6-0.2,1-0.2c0.6,0,1.1,0.2,1.5,0.6s0.6,1,0.6,1.7
		c0,0.4-0.1,0.9-0.3,1.3s-0.5,0.7-0.8,0.9s-0.7,0.3-1.2,0.3c-0.7,0-1.3-0.3-1.8-0.8s-0.7-1.4-0.7-2.7c0-1.4,0.3-2.4,0.8-3
		c0.4-0.5,1-0.8,1.8-0.8c0.6,0,1,0.2,1.4,0.5S263,174.5,263.1,175.1z M259.5,178.2c0,0.3,0.1,0.6,0.2,0.9s0.3,0.5,0.5,0.6
		s0.5,0.2,0.7,0.2c0.4,0,0.7-0.1,1-0.4s0.4-0.7,0.4-1.2s-0.1-0.9-0.4-1.2s-0.6-0.4-1-0.4s-0.7,0.1-1,0.4S259.5,177.7,259.5,178.2z"
		/>
	<path d="M264.1,177c0-0.8,0.1-1.5,0.3-2s0.4-0.9,0.8-1.2s0.8-0.4,1.3-0.4c0.4,0,0.7,0.1,1,0.2s0.5,0.4,0.7,0.7s0.3,0.6,0.4,1.1
		s0.2,1,0.2,1.7c0,0.8-0.1,1.5-0.3,2s-0.4,0.9-0.8,1.2s-0.8,0.4-1.3,0.4c-0.7,0-1.2-0.2-1.6-0.7C264.3,179.3,264.1,178.3,264.1,177z
		 M265,177c0,1.2,0.1,2,0.4,2.3s0.6,0.6,1,0.6s0.7-0.2,1-0.6s0.4-1.2,0.4-2.3c0-1.2-0.1-2-0.4-2.3s-0.6-0.6-1-0.6s-0.7,0.2-1,0.5
		C265.1,175,265,175.8,265,177z"/>
	<path d="M269.6,177c0-0.8,0.1-1.5,0.3-2s0.4-0.9,0.8-1.2s0.8-0.4,1.3-0.4c0.4,0,0.7,0.1,1,0.2s0.5,0.4,0.7,0.7s0.3,0.6,0.4,1.1
		s0.2,1,0.2,1.7c0,0.8-0.1,1.5-0.3,2s-0.4,0.9-0.8,1.2s-0.8,0.4-1.3,0.4c-0.7,0-1.2-0.2-1.6-0.7C269.9,179.3,269.6,178.3,269.6,177z
		 M270.5,177c0,1.2,0.1,2,0.4,2.3s0.6,0.6,1,0.6s0.7-0.2,1-0.6s0.4-1.2,0.4-2.3c0-1.2-0.1-2-0.4-2.3s-0.6-0.6-1-0.6s-0.7,0.2-1,0.5
		C270.7,175,270.5,175.8,270.5,177z"/>
	<path d="M275.2,177c0-0.8,0.1-1.5,0.3-2s0.4-0.9,0.8-1.2s0.8-0.4,1.3-0.4c0.4,0,0.7,0.1,1,0.2s0.5,0.4,0.7,0.7s0.3,0.6,0.4,1.1
		s0.2,1,0.2,1.7c0,0.8-0.1,1.5-0.3,2s-0.4,0.9-0.8,1.2s-0.8,0.4-1.3,0.4c-0.7,0-1.2-0.2-1.6-0.7C275.4,179.3,275.2,178.3,275.2,177z
		 M276.1,177c0,1.2,0.1,2,0.4,2.3s0.6,0.6,1,0.6s0.7-0.2,1-0.6s0.4-1.2,0.4-2.3c0-1.2-0.1-2-0.4-2.3s-0.6-0.6-1-0.6s-0.7,0.2-1,0.5
		C276.3,175,276.1,175.8,276.1,177z"/>
	<path d="M280.8,177c0-0.8,0.1-1.5,0.3-2s0.4-0.9,0.8-1.2s0.8-0.4,1.3-0.4c0.4,0,0.7,0.1,1,0.2s0.5,0.4,0.7,0.7s0.3,0.6,0.4,1.1
		s0.2,1,0.2,1.7c0,0.8-0.1,1.5-0.3,2s-0.4,0.9-0.8,1.2s-0.8,0.4-1.3,0.4c-0.7,0-1.2-0.2-1.6-0.7C281,179.3,280.8,178.3,280.8,177z
		 M281.7,177c0,1.2,0.1,2,0.4,2.3s0.6,0.6,1,0.6s0.7-0.2,1-0.6s0.4-1.2,0.4-2.3c0-1.2-0.1-2-0.4-2.3s-0.6-0.6-1-0.6s-0.7,0.2-1,0.5
		C281.8,175,281.7,175.8,281.7,177z"/>
</g>
<g>
	<path d="M312.3,174.3v-0.8h4.6v0.7c-0.5,0.5-0.9,1.1-1.4,1.9s-0.8,1.6-1,2.5c-0.2,0.6-0.3,1.3-0.3,2h-0.9c0-0.6,0.1-1.2,0.3-2
		s0.5-1.6,0.9-2.3s0.8-1.4,1.3-1.9L312.3,174.3L312.3,174.3z"/>
	<path d="M317.8,178.6l0.9-0.1c0.1,0.4,0.2,0.8,0.5,1s0.5,0.3,0.9,0.3s0.8-0.2,1.1-0.5s0.4-0.7,0.4-1.3c0-0.5-0.1-0.9-0.4-1.2
		s-0.7-0.4-1.1-0.4c-0.3,0-0.5,0.1-0.8,0.2s-0.4,0.3-0.5,0.5L318,177l0.7-3.7h3.6v0.8h-2.9L319,176c0.4-0.3,0.9-0.4,1.4-0.4
		c0.6,0,1.2,0.2,1.6,0.6s0.6,1,0.6,1.7c0,0.6-0.2,1.2-0.6,1.7c-0.5,0.6-1.1,0.9-1.9,0.9c-0.7,0-1.2-0.2-1.6-0.5
		S317.9,179.2,317.8,178.6z"/>
	<path d="M323.4,177c0-0.8,0.1-1.5,0.3-2s0.4-0.9,0.8-1.2s0.8-0.4,1.3-0.4c0.4,0,0.7,0.1,1,0.2s0.5,0.4,0.7,0.7s0.3,0.6,0.4,1.1
		s0.2,1,0.2,1.7c0,0.8-0.1,1.5-0.3,2s-0.4,0.9-0.8,1.2s-0.8,0.4-1.3,0.4c-0.7,0-1.2-0.2-1.6-0.7C323.6,179.3,323.4,178.3,323.4,177z
		 M324.3,177c0,1.2,0.1,2,0.4,2.3s0.6,0.6,1,0.6s0.7-0.2,1-0.6s0.4-1.2,0.4-2.3c0-1.2-0.1-2-0.4-2.3s-0.6-0.6-1-0.6s-0.7,0.2-1,0.5
		C324.4,175,324.3,175.8,324.3,177z"/>
	<path d="M328.9,177c0-0.8,0.1-1.5,0.3-2s0.4-0.9,0.8-1.2s0.8-0.4,1.3-0.4c0.4,0,0.7,0.1,1,0.2s0.5,0.4,0.7,0.7s0.3,0.6,0.4,1.1
		s0.2,1,0.2,1.7c0,0.8-0.1,1.5-0.3,2s-0.4,0.9-0.8,1.2s-0.8,0.4-1.3,0.4c-0.7,0-1.2-0.2-1.6-0.7C329.2,179.3,328.9,178.3,328.9,177z
		 M329.8,177c0,1.2,0.1,2,0.4,2.3s0.6,0.6,1,0.6s0.7-0.2,1-0.6s0.4-1.2,0.4-2.3c0-1.2-0.1-2-0.4-2.3s-0.6-0.6-1-0.6s-0.7,0.2-1,0.5
		C330,175,329.8,175.8,329.8,177z"/>
	<path d="M334.5,177c0-0.8,0.1-1.5,0.3-2s0.4-0.9,0.8-1.2s0.8-0.4,1.3-0.4c0.4,0,0.7,0.1,1,0.2s0.5,0.4,0.7,0.7s0.3,0.6,0.4,1.1
		s0.2,1,0.2,1.7c0,0.8-0.1,1.5-0.3,2s-0.4,0.9-0.8,1.2s-0.8,0.4-1.3,0.4c-0.7,0-1.2-0.2-1.6-0.7C334.7,179.3,334.5,178.3,334.5,177z
		 M335.4,177c0,1.2,0.1,2,0.4,2.3s0.6,0.6,1,0.6s0.7-0.2,1-0.6s0.4-1.2,0.4-2.3c0-1.2-0.1-2-0.4-2.3s-0.6-0.6-1-0.6s-0.7,0.2-1,0.5
		C335.6,175,335.4,175.8,335.4,177z"/>
</g>
<g>
	<path d="M366.1,178.8l0.8-0.1c0.1,0.4,0.2,0.7,0.4,0.9s0.5,0.3,0.8,0.3s0.5-0.1,0.7-0.2s0.4-0.3,0.5-0.5s0.2-0.5,0.3-0.8
		s0.1-0.7,0.1-1.1c0,0,0-0.1,0-0.2c-0.2,0.3-0.4,0.5-0.7,0.7s-0.6,0.3-1,0.3c-0.6,0-1.1-0.2-1.5-0.6s-0.6-1-0.6-1.7s0.2-1.3,0.6-1.8
		s1-0.7,1.6-0.7c0.5,0,0.9,0.1,1.3,0.4s0.7,0.6,0.9,1.1s0.3,1.1,0.3,2s-0.1,1.6-0.3,2.2s-0.5,1-0.9,1.2s-0.9,0.4-1.4,0.4
		c-0.6,0-1-0.2-1.4-0.5S366.2,179.4,366.1,178.8z M369.7,175.7c0-0.5-0.1-0.9-0.4-1.2s-0.6-0.4-1-0.4s-0.7,0.2-1,0.5
		s-0.4,0.7-0.4,1.2s0.1,0.8,0.4,1.1s0.6,0.4,1,0.4s0.7-0.1,1-0.4S369.7,176.2,369.7,175.7z"/>
	<path d="M371.6,177c0-0.8,0.1-1.5,0.3-2s0.4-0.9,0.8-1.2s0.8-0.4,1.3-0.4c0.4,0,0.7,0.1,1,0.2s0.5,0.4,0.7,0.7s0.3,0.6,0.4,1.1
		s0.2,1,0.2,1.7c0,0.8-0.1,1.5-0.3,2s-0.4,0.9-0.8,1.2s-0.8,0.4-1.3,0.4c-0.7,0-1.2-0.2-1.6-0.7C371.8,179.3,371.6,178.3,371.6,177z
		 M372.5,177c0,1.2,0.1,2,0.4,2.3s0.6,0.6,1,0.6s0.7-0.2,1-0.6s0.4-1.2,0.4-2.3c0-1.2-0.1-2-0.4-2.3s-0.6-0.6-1-0.6s-0.7,0.2-1,0.5
		C372.6,175,372.5,175.8,372.5,177z"/>
	<path d="M377.1,177c0-0.8,0.1-1.5,0.3-2s0.4-0.9,0.8-1.2s0.8-0.4,1.3-0.4c0.4,0,0.7,0.1,1,0.2s0.5,0.4,0.7,0.7s0.3,0.6,0.4,1.1
		s0.2,1,0.2,1.7c0,0.8-0.1,1.5-0.3,2s-0.4,0.9-0.8,1.2s-0.8,0.4-1.3,0.4c-0.7,0-1.2-0.2-1.6-0.7C377.4,179.3,377.1,178.3,377.1,177z
		 M378,177c0,1.2,0.1,2,0.4,2.3s0.6,0.6,1,0.6s0.7-0.2,1-0.6s0.4-1.2,0.4-2.3c0-1.2-0.1-2-0.4-2.3s-0.6-0.6-1-0.6s-0.7,0.2-1,0.5
		C378.2,175,378,175.8,378,177z"/>
	<path d="M382.7,177c0-0.8,0.1-1.5,0.3-2s0.4-0.9,0.8-1.2s0.8-0.4,1.3-0.4c0.4,0,0.7,0.1,1,0.2s0.5,0.4,0.7,0.7s0.3,0.6,0.4,1.1
		s0.2,1,0.2,1.7c0,0.8-0.1,1.5-0.3,2s-0.4,0.9-0.8,1.2s-0.8,0.4-1.3,0.4c-0.7,0-1.2-0.2-1.6-0.7C382.9,179.3,382.7,178.3,382.7,177z
		 M383.6,177c0,1.2,0.1,2,0.4,2.3s0.6,0.6,1,0.6s0.7-0.2,1-0.6s0.4-1.2,0.4-2.3c0-1.2-0.1-2-0.4-2.3s-0.6-0.6-1-0.6s-0.7,0.2-1,0.5
		C383.8,175,383.6,175.8,383.6,177z"/>
	<path d="M388.3,177c0-0.8,0.1-1.5,0.3-2s0.4-0.9,0.8-1.2s0.8-0.4,1.3-0.4c0.4,0,0.7,0.1,1,0.2s0.5,0.4,0.7,0.7s0.3,0.6,0.4,1.1
		s0.2,1,0.2,1.7c0,0.8-0.1,1.5-0.3,2s-0.4,0.9-0.8,1.2s-0.8,0.4-1.3,0.4c-0.7,0-1.2-0.2-1.6-0.7C388.5,179.3,388.3,178.3,388.3,177z
		 M389.2,177c0,1.2,0.1,2,0.4,2.3s0.6,0.6,1,0.6s0.7-0.2,1-0.6s0.4-1.2,0.4-2.3c0-1.2-0.1-2-0.4-2.3s-0.6-0.6-1-0.6s-0.7,0.2-1,0.5
		C389.3,175,389.2,175.8,389.2,177z"/>
</g>
<g>
	<path class="st1" d="M220.1,29.6v-1.7H217v-0.8l3.3-4.6h0.7v4.6h1v0.8h-1v1.7H220.1z M220.1,27.1v-3.2l-2.2,3.2H220.1z"/>
	<path class="st1" d="M222.8,27.7l0.9-0.1c0.1,0.5,0.3,0.9,0.5,1.1s0.5,0.3,0.9,0.3s0.8-0.1,1-0.4s0.4-0.6,0.4-1.1
		c0-0.4-0.1-0.7-0.4-1s-0.6-0.4-1-0.4c-0.2,0-0.4,0-0.6,0.1l0.1-0.8c0.1,0,0.1,0,0.1,0c0.4,0,0.7-0.1,1-0.3s0.4-0.5,0.4-0.9
		c0-0.3-0.1-0.6-0.3-0.8s-0.5-0.3-0.8-0.3s-0.6,0.1-0.9,0.3s-0.4,0.5-0.4,1l-0.9-0.2c0.1-0.6,0.4-1,0.7-1.4s0.9-0.5,1.4-0.5
		c0.4,0,0.8,0.1,1.1,0.3s0.6,0.4,0.8,0.7s0.3,0.6,0.3,0.9s-0.1,0.6-0.2,0.8s-0.4,0.5-0.7,0.6c0.4,0.1,0.8,0.3,1,0.6s0.4,0.7,0.4,1.2
		c0,0.6-0.2,1.2-0.7,1.6s-1,0.7-1.7,0.7c-0.6,0-1.1-0.2-1.6-0.6S222.9,28.3,222.8,27.7z"/>
	<path class="st1" d="M228.8,29.6v-1h1v1c0,0.4-0.1,0.7-0.2,0.9s-0.3,0.4-0.6,0.5l-0.2-0.4c0.2-0.1,0.3-0.2,0.4-0.4s0.1-0.4,0.1-0.7
		h-0.5V29.6z"/>
	<path class="st1" d="M231.1,26.1c0-0.8,0.1-1.5,0.3-2s0.4-0.9,0.8-1.2s0.8-0.4,1.3-0.4c0.4,0,0.7,0.1,1,0.2s0.5,0.4,0.7,0.7
		s0.3,0.6,0.4,1.1s0.2,1,0.2,1.7c0,0.8-0.1,1.5-0.3,2s-0.4,0.9-0.8,1.2s-0.8,0.4-1.3,0.4c-0.7,0-1.2-0.2-1.6-0.7
		C231.4,28.4,231.1,27.4,231.1,26.1z M232.1,26.1c0,1.2,0.1,2,0.4,2.3s0.6,0.6,1,0.6s0.7-0.2,1-0.6s0.4-1.2,0.4-2.3
		c0-1.2-0.1-2-0.4-2.3s-0.6-0.6-1-0.6s-0.7,0.2-1,0.5C232.2,24.1,232.1,24.9,232.1,26.1z"/>
	<path class="st1" d="M236.7,26.1c0-0.8,0.1-1.5,0.3-2s0.4-0.9,0.8-1.2s0.8-0.4,1.3-0.4c0.4,0,0.7,0.1,1,0.2s0.5,0.4,0.7,0.7
		s0.3,0.6,0.4,1.1s0.2,1,0.2,1.7c0,0.8-0.1,1.5-0.3,2s-0.4,0.9-0.8,1.2s-0.8,0.4-1.3,0.4c-0.7,0-1.2-0.2-1.6-0.7
		C236.9,28.4,236.7,27.4,236.7,26.1z M237.6,26.1c0,1.2,0.1,2,0.4,2.3s0.6,0.6,1,0.6s0.7-0.2,1-0.6s0.4-1.2,0.4-2.3
		c0-1.2-0.1-2-0.4-2.3s-0.6-0.6-1-0.6s-0.7,0.2-1,0.5C237.8,24.1,237.6,24.9,237.6,26.1z"/>
	<path class="st1" d="M242.3,26.1c0-0.8,0.1-1.5,0.3-2s0.4-0.9,0.8-1.2s0.8-0.4,1.3-0.4c0.4,0,0.7,0.1,1,0.2s0.5,0.4,0.7,0.7
		s0.3,0.6,0.4,1.1s0.2,1,0.2,1.7c0,0.8-0.1,1.5-0.3,2s-0.4,0.9-0.8,1.2s-0.8,0.4-1.3,0.4c-0.7,0-1.2-0.2-1.6-0.7
		C242.5,28.4,242.3,27.4,242.3,26.1z M243.2,26.1c0,1.2,0.1,2,0.4,2.3s0.6,0.6,1,0.6s0.7-0.2,1-0.6s0.4-1.2,0.4-2.3
		c0-1.2-0.1-2-0.4-2.3s-0.6-0.6-1-0.6s-0.7,0.2-1,0.5C243.3,24.1,243.2,24.9,243.2,26.1z"/>
</g>
<g>
	<path class="st1" d="M234.6,60v-1.7h-3.1v-0.8l3.3-4.6h0.7v4.6h1v0.8h-1V60H234.6z M234.6,57.5v-3.2l-2.2,3.2H234.6z"/>
	<path class="st1" d="M237.4,53.8V53h4.6v0.7c-0.5,0.5-0.9,1.1-1.4,1.9s-0.8,1.6-1,2.5c-0.2,0.6-0.3,1.3-0.3,2h-0.9
		c0-0.6,0.1-1.2,0.3-2s0.5-1.6,0.9-2.3s0.8-1.4,1.3-1.9h-3.5V53.8z"/>
	<path class="st1" d="M243.3,60v-1h1v1c0,0.4-0.1,0.7-0.2,0.9s-0.3,0.4-0.6,0.5l-0.2-0.4c0.2-0.1,0.3-0.2,0.4-0.4s0.1-0.4,0.1-0.7
		h-0.5V60z"/>
	<path class="st1" d="M245.6,56.5c0-0.8,0.1-1.5,0.3-2s0.4-0.9,0.8-1.2s0.8-0.4,1.3-0.4c0.4,0,0.7,0.1,1,0.2s0.5,0.4,0.7,0.7
		s0.3,0.6,0.4,1.1s0.2,1,0.2,1.7c0,0.8-0.1,1.5-0.3,2s-0.4,0.9-0.8,1.2s-0.8,0.4-1.3,0.4c-0.7,0-1.2-0.2-1.6-0.7
		C245.9,58.8,245.6,57.8,245.6,56.5z M246.6,56.5c0,1.2,0.1,2,0.4,2.3s0.6,0.6,1,0.6s0.7-0.2,1-0.6s0.4-1.2,0.4-2.3
		c0-1.2-0.1-2-0.4-2.3s-0.6-0.6-1-0.6s-0.7,0.2-1,0.5C246.7,54.5,246.6,55.3,246.6,56.5z"/>
	<path class="st1" d="M251.2,56.5c0-0.8,0.1-1.5,0.3-2s0.4-0.9,0.8-1.2s0.8-0.4,1.3-0.4c0.4,0,0.7,0.1,1,0.2s0.5,0.4,0.7,0.7
		s0.3,0.6,0.4,1.1s0.2,1,0.2,1.7c0,0.8-0.1,1.5-0.3,2s-0.4,0.9-0.8,1.2s-0.8,0.4-1.3,0.4c-0.7,0-1.2-0.2-1.6-0.7
		C251.4,58.8,251.2,57.8,251.2,56.5z M252.1,56.5c0,1.2,0.1,2,0.4,2.3s0.6,0.6,1,0.6s0.7-0.2,1-0.6s0.4-1.2,0.4-2.3
		c0-1.2-0.1-2-0.4-2.3s-0.6-0.6-1-0.6s-0.7,0.2-1,0.5C252.3,54.5,252.1,55.3,252.1,56.5z"/>
	<path class="st1" d="M256.8,56.5c0-0.8,0.1-1.5,0.3-2s0.4-0.9,0.8-1.2s0.8-0.4,1.3-0.4c0.4,0,0.7,0.1,1,0.2s0.5,0.4,0.7,0.7
		s0.3,0.6,0.4,1.1s0.2,1,0.2,1.7c0,0.8-0.1,1.5-0.3,2s-0.4,0.9-0.8,1.2s-0.8,0.4-1.3,0.4c-0.7,0-1.2-0.2-1.6-0.7
		C257,58.8,256.8,57.8,256.8,56.5z M257.7,56.5c0,1.2,0.1,2,0.4,2.3s0.6,0.6,1,0.6s0.7-0.2,1-0.6s0.4-1.2,0.4-2.3
		c0-1.2-0.1-2-0.4-2.3s-0.6-0.6-1-0.6s-0.7,0.2-1,0.5C257.8,54.5,257.7,55.3,257.7,56.5z"/>
</g>
<g>
	<path class="st1" d="M245.7,88.6l0.9-0.1c0.1,0.4,0.2,0.8,0.5,1s0.5,0.3,0.9,0.3s0.8-0.2,1.1-0.5s0.4-0.7,0.4-1.3
		c0-0.5-0.1-0.9-0.4-1.2s-0.7-0.4-1.1-0.4c-0.3,0-0.5,0.1-0.8,0.2s-0.4,0.3-0.5,0.5l-0.8-0.1l0.7-3.7h3.6v0.8h-2.9l-0.4,1.9
		c0.4-0.3,0.9-0.4,1.4-0.4c0.6,0,1.2,0.2,1.6,0.6s0.6,1,0.6,1.7c0,0.6-0.2,1.2-0.6,1.7c-0.5,0.6-1.1,0.9-1.9,0.9
		c-0.7,0-1.2-0.2-1.6-0.5S245.7,89.2,245.7,88.6z"/>
	<path class="st1" d="M254.5,90.5h-0.9v-5.6c-0.2,0.2-0.5,0.4-0.8,0.6s-0.7,0.4-0.9,0.5v-0.8c0.5-0.2,0.9-0.5,1.3-0.8s0.6-0.6,0.8-1
		h0.6v7.1H254.5z"/>
	<path class="st1" d="M257.3,90.5v-1h1v1c0,0.4-0.1,0.7-0.2,0.9s-0.3,0.4-0.6,0.5l-0.2-0.4c0.2-0.1,0.3-0.2,0.4-0.4s0.1-0.4,0.1-0.7
		L257.3,90.5L257.3,90.5z"/>
	<path class="st1" d="M259.6,86.9c0-0.8,0.1-1.5,0.3-2s0.4-0.9,0.8-1.2s0.8-0.4,1.3-0.4c0.4,0,0.7,0.1,1,0.2s0.5,0.4,0.7,0.7
		s0.3,0.6,0.4,1.1s0.2,1,0.2,1.7c0,0.8-0.1,1.5-0.3,2s-0.4,0.9-0.8,1.2s-0.8,0.4-1.3,0.4c-0.7,0-1.2-0.2-1.6-0.7
		C259.8,89.2,259.6,88.3,259.6,86.9z M260.5,86.9c0,1.2,0.1,2,0.4,2.3s0.6,0.6,1,0.6s0.7-0.2,1-0.6s0.4-1.2,0.4-2.3
		c0-1.2-0.1-2-0.4-2.3s-0.6-0.6-1-0.6s-0.7,0.2-1,0.5C260.6,84.9,260.5,85.8,260.5,86.9z"/>
	<path class="st1" d="M265.1,86.9c0-0.8,0.1-1.5,0.3-2s0.4-0.9,0.8-1.2s0.8-0.4,1.3-0.4c0.4,0,0.7,0.1,1,0.2s0.5,0.4,0.7,0.7
		s0.3,0.6,0.4,1.1s0.2,1,0.2,1.7c0,0.8-0.1,1.5-0.3,2s-0.4,0.9-0.8,1.2s-0.8,0.4-1.3,0.4c-0.7,0-1.2-0.2-1.6-0.7
		C265.4,89.2,265.1,88.3,265.1,86.9z M266,86.9c0,1.2,0.1,2,0.4,2.3s0.6,0.6,1,0.6s0.7-0.2,1-0.6s0.4-1.2,0.4-2.3
		c0-1.2-0.1-2-0.4-2.3s-0.6-0.6-1-0.6s-0.7,0.2-1,0.5C266.2,84.9,266,85.8,266,86.9z"/>
	<path class="st1" d="M270.7,86.9c0-0.8,0.1-1.5,0.3-2s0.4-0.9,0.8-1.2s0.8-0.4,1.3-0.4c0.4,0,0.7,0.1,1,0.2s0.5,0.4,0.7,0.7
		s0.3,0.6,0.4,1.1s0.2,1,0.2,1.7c0,0.8-0.1,1.5-0.3,2s-0.4,0.9-0.8,1.2s-0.8,0.4-1.3,0.4c-0.7,0-1.2-0.2-1.6-0.7
		C270.9,89.2,270.7,88.3,270.7,86.9z M271.6,86.9c0,1.2,0.1,2,0.4,2.3s0.6,0.6,1,0.6s0.7-0.2,1-0.6s0.4-1.2,0.4-2.3
		c0-1.2-0.1-2-0.4-2.3s-0.6-0.6-1-0.6s-0.7,0.2-1,0.5C271.7,84.9,271.6,85.8,271.6,86.9z"/>
</g>
<g>
	<path class="st1" d="M260,119l0.9-0.1c0.1,0.4,0.2,0.8,0.5,1s0.5,0.3,0.9,0.3s0.8-0.2,1.1-0.5s0.4-0.7,0.4-1.3
		c0-0.5-0.1-0.9-0.4-1.2s-0.7-0.4-1.1-0.4c-0.3,0-0.5,0.1-0.8,0.2s-0.4,0.3-0.5,0.5l-0.8-0.1l0.7-3.7h3.6v0.8h-2.9l-0.4,1.9
		c0.4-0.3,0.9-0.4,1.4-0.4c0.6,0,1.2,0.2,1.6,0.6s0.6,1,0.6,1.7c0,0.6-0.2,1.2-0.6,1.7c-0.5,0.6-1.1,0.9-1.9,0.9
		c-0.7,0-1.2-0.2-1.6-0.5S260.1,119.6,260,119z"/>
	<path class="st1" d="M265.6,119l0.9-0.1c0.1,0.4,0.2,0.8,0.5,1s0.5,0.3,0.9,0.3s0.8-0.2,1.1-0.5s0.4-0.7,0.4-1.3
		c0-0.5-0.1-0.9-0.4-1.2s-0.7-0.4-1.1-0.4c-0.3,0-0.5,0.1-0.8,0.2s-0.4,0.3-0.5,0.5l-0.8-0.1l0.7-3.7h3.6v0.8h-2.9l-0.4,1.9
		c0.4-0.3,0.9-0.4,1.4-0.4c0.6,0,1.2,0.2,1.6,0.6s0.6,1,0.6,1.7c0,0.6-0.2,1.2-0.6,1.7c-0.5,0.6-1.1,0.9-1.9,0.9
		c-0.7,0-1.2-0.2-1.6-0.5S265.6,119.6,265.6,119z"/>
	<path class="st1" d="M271.6,120.9v-1h1v1c0,0.4-0.1,0.7-0.2,0.9s-0.3,0.4-0.6,0.5l-0.2-0.4c0.2-0.1,0.3-0.2,0.4-0.4
		s0.1-0.4,0.1-0.7L271.6,120.9L271.6,120.9z"/>
	<path class="st1" d="M273.9,117.4c0-0.8,0.1-1.5,0.3-2s0.4-0.9,0.8-1.2s0.8-0.4,1.3-0.4c0.4,0,0.7,0.1,1,0.2s0.5,0.4,0.7,0.7
		s0.3,0.6,0.4,1.1s0.2,1,0.2,1.7c0,0.8-0.1,1.5-0.3,2s-0.4,0.9-0.8,1.2s-0.8,0.4-1.3,0.4c-0.7,0-1.2-0.2-1.6-0.7
		C274.1,119.7,273.9,118.7,273.9,117.4z M274.8,117.4c0,1.2,0.1,2,0.4,2.3s0.6,0.6,1,0.6s0.7-0.2,1-0.6s0.4-1.2,0.4-2.3
		c0-1.2-0.1-2-0.4-2.3s-0.6-0.6-1-0.6s-0.7,0.2-1,0.5C275,115.4,274.8,116.2,274.8,117.4z"/>
	<path class="st1" d="M279.5,117.4c0-0.8,0.1-1.5,0.3-2s0.4-0.9,0.8-1.2s0.8-0.4,1.3-0.4c0.4,0,0.7,0.1,1,0.2s0.5,0.4,0.7,0.7
		s0.3,0.6,0.4,1.1s0.2,1,0.2,1.7c0,0.8-0.1,1.5-0.3,2s-0.4,0.9-0.8,1.2s-0.8,0.4-1.3,0.4c-0.7,0-1.2-0.2-1.6-0.7
		C279.7,119.7,279.5,118.7,279.5,117.4z M280.4,117.4c0,1.2,0.1,2,0.4,2.3s0.6,0.6,1,0.6s0.7-0.2,1-0.6s0.4-1.2,0.4-2.3
		c0-1.2-0.1-2-0.4-2.3s-0.6-0.6-1-0.6s-0.7,0.2-1,0.5C280.5,115.4,280.4,116.2,280.4,117.4z"/>
	<path class="st1" d="M285,117.4c0-0.8,0.1-1.5,0.3-2s0.4-0.9,0.8-1.2s0.8-0.4,1.3-0.4c0.4,0,0.7,0.1,1,0.2s0.5,0.4,0.7,0.7
		s0.3,0.6,0.4,1.1s0.2,1,0.2,1.7c0,0.8-0.1,1.5-0.3,2s-0.4,0.9-0.8,1.2s-0.8,0.4-1.3,0.4c-0.7,0-1.2-0.2-1.6-0.7
		C285.3,119.7,285,118.7,285,117.4z M285.9,117.4c0,1.2,0.1,2,0.4,2.3s0.6,0.6,1,0.6s0.7-0.2,1-0.6s0.4-1.2,0.4-2.3
		c0-1.2-0.1-2-0.4-2.3s-0.6-0.6-1-0.6s-0.7,0.2-1,0.5C286.1,115.4,285.9,116.2,285.9,117.4z"/>
</g>
<g>
	<path class="st1" d="M274.5,149.5l0.9-0.1c0.1,0.4,0.2,0.8,0.5,1s0.5,0.3,0.9,0.3s0.8-0.2,1.1-0.5s0.4-0.7,0.4-1.3
		c0-0.5-0.1-0.9-0.4-1.2s-0.7-0.4-1.1-0.4c-0.3,0-0.5,0.1-0.8,0.2s-0.4,0.3-0.5,0.5l-0.8-0.1l0.7-3.7h3.6v0.8h-2.9l-0.4,1.9
		c0.4-0.3,0.9-0.4,1.4-0.4c0.6,0,1.2,0.2,1.6,0.6s0.6,1,0.6,1.7c0,0.6-0.2,1.2-0.6,1.7c-0.5,0.6-1.1,0.9-1.9,0.9
		c-0.7,0-1.2-0.2-1.6-0.5S274.6,150.1,274.5,149.5z"/>
	<path class="st1" d="M280.2,149.7l0.8-0.1c0.1,0.4,0.2,0.7,0.4,0.9s0.5,0.3,0.8,0.3s0.5-0.1,0.7-0.2s0.4-0.3,0.5-0.5
		s0.2-0.5,0.3-0.8s0.1-0.7,0.1-1.1c0,0,0-0.1,0-0.2c-0.2,0.3-0.4,0.5-0.7,0.7s-0.6,0.3-1,0.3c-0.6,0-1.1-0.2-1.5-0.6s-0.6-1-0.6-1.7
		s0.2-1.3,0.6-1.8s1-0.7,1.6-0.7c0.5,0,0.9,0.1,1.3,0.4s0.7,0.6,0.9,1.1s0.3,1.1,0.3,2s-0.1,1.6-0.3,2.2s-0.5,1-0.9,1.2
		s-0.9,0.4-1.4,0.4c-0.6,0-1-0.2-1.4-0.5S280.3,150.2,280.2,149.7z M283.8,146.5c0-0.5-0.1-0.9-0.4-1.2s-0.6-0.4-1-0.4
		s-0.7,0.2-1,0.5s-0.4,0.7-0.4,1.2s0.1,0.8,0.4,1.1s0.6,0.4,1,0.4s0.7-0.1,1-0.4S283.8,147,283.8,146.5z"/>
	<path class="st1" d="M286.1,151.3v-1h1v1c0,0.4-0.1,0.7-0.2,0.9s-0.3,0.4-0.6,0.5l-0.2-0.4c0.2-0.1,0.3-0.2,0.4-0.4
		s0.1-0.4,0.1-0.7L286.1,151.3L286.1,151.3z"/>
	<path class="st1" d="M288.4,147.8c0-0.8,0.1-1.5,0.3-2s0.4-0.9,0.8-1.2s0.8-0.4,1.3-0.4c0.4,0,0.7,0.1,1,0.2s0.5,0.4,0.7,0.7
		s0.3,0.6,0.4,1.1s0.2,1,0.2,1.7c0,0.8-0.1,1.5-0.3,2s-0.4,0.9-0.8,1.2s-0.8,0.4-1.3,0.4c-0.7,0-1.2-0.2-1.6-0.7
		C288.6,150.1,288.4,149.1,288.4,147.8z M289.3,147.8c0,1.2,0.1,2,0.4,2.3s0.6,0.6,1,0.6s0.7-0.2,1-0.6s0.4-1.2,0.4-2.3
		c0-1.2-0.1-2-0.4-2.3s-0.6-0.6-1-0.6s-0.7,0.2-1,0.5C289.5,145.8,289.3,146.6,289.3,147.8z"/>
	<path class="st1" d="M294,147.8c0-0.8,0.1-1.5,0.3-2s0.4-0.9,0.8-1.2s0.8-0.4,1.3-0.4c0.4,0,0.7,0.1,1,0.2s0.5,0.4,0.7,0.7
		s0.3,0.6,0.4,1.1s0.2,1,0.2,1.7c0,0.8-0.1,1.5-0.3,2s-0.4,0.9-0.8,1.2s-0.8,0.4-1.3,0.4c-0.7,0-1.2-0.2-1.6-0.7
		C294.2,150.1,294,149.1,294,147.8z M294.9,147.8c0,1.2,0.1,2,0.4,2.3s0.6,0.6,1,0.6s0.7-0.2,1-0.6s0.4-1.2,0.4-2.3
		c0-1.2-0.1-2-0.4-2.3s-0.6-0.6-1-0.6s-0.7,0.2-1,0.5C295,145.8,294.9,146.6,294.9,147.8z"/>
	<path class="st1" d="M299.5,147.8c0-0.8,0.1-1.5,0.3-2s0.4-0.9,0.8-1.2s0.8-0.4,1.3-0.4c0.4,0,0.7,0.1,1,0.2s0.5,0.4,0.7,0.7
		s0.3,0.6,0.4,1.1s0.2,1,0.2,1.7c0,0.8-0.1,1.5-0.3,2s-0.4,0.9-0.8,1.2s-0.8,0.4-1.3,0.4c-0.7,0-1.2-0.2-1.6-0.7
		C299.8,150.1,299.5,149.1,299.5,147.8z M300.4,147.8c0,1.2,0.1,2,0.4,2.3s0.6,0.6,1,0.6s0.7-0.2,1-0.6s0.4-1.2,0.4-2.3
		c0-1.2-0.1-2-0.4-2.3s-0.6-0.6-1-0.6s-0.7,0.2-1,0.5C300.6,145.8,300.4,146.6,300.4,147.8z"/>
</g>
<rect x="59" y="22" class="st2" width="152.5" height="9"/>
<rect x="59" y="52.3" class="st2" width="167.3" height="9"/>
<rect x="59" y="82.5" class="st2" width="181.8" height="9"/>
<rect x="59" y="112.8" class="st2" width="196" height="9"/>
<rect x="59" y="143" class="st2" width="210.3" height="9"/>
</svg>
