<?xml version="1.0" encoding="utf-8"?>
<!-- Generator: Adobe Illustrator 19.2.0, SVG Export Plug-In . SVG Version: 6.00 Build 0)  -->
<svg version="1.1" id="圖層_1" xmlns="http://www.w3.org/2000/svg" xmlns:xlink="http://www.w3.org/1999/xlink" x="0px" y="0px"
	 viewBox="0 0 406 192" style="enable-background:new 0 0 406 192;" xml:space="preserve">
<style type="text/css">
	.st0{fill:none;stroke:#D3D3D3;stroke-miterlimit:10;}
	.st1{fill:#8E8E8E;}
	.st2{fill:#FF9D00;}
</style>
<rect x="58.5" y="12.5" class="st0" width="53" height="30"/>
<rect x="111.5" y="12.5" class="st0" width="54" height="30"/>
<rect x="165.5" y="12.5" class="st0" width="53" height="30"/>
<rect x="218.5" y="12.5" class="st0" width="54" height="30"/>
<rect x="272.5" y="12.5" class="st0" width="53" height="30"/>
<rect x="325.5" y="12.5" class="st0" width="53" height="30"/>
<rect x="58.5" y="42.5" class="st0" width="53" height="30"/>
<rect x="111.5" y="42.5" class="st0" width="54" height="30"/>
<rect x="165.5" y="42.5" class="st0" width="53" height="30"/>
<rect x="218.5" y="42.5" class="st0" width="54" height="30"/>
<rect x="272.5" y="42.5" class="st0" width="53" height="30"/>
<rect x="325.5" y="42.5" class="st0" width="53" height="30"/>
<rect x="58.5" y="72.5" class="st0" width="53" height="31"/>
<rect x="111.5" y="72.5" class="st0" width="54" height="31"/>
<rect x="165.5" y="72.5" class="st0" width="53" height="31"/>
<rect x="218.5" y="72.5" class="st0" width="54" height="31"/>
<rect x="272.5" y="72.5" class="st0" width="53" height="31"/>
<rect x="325.5" y="72.5" class="st0" width="53" height="31"/>
<rect x="58.5" y="103.5" class="st0" width="53" height="30"/>
<rect x="111.5" y="103.5" class="st0" width="54" height="30"/>
<rect x="165.5" y="103.5" class="st0" width="53" height="30"/>
<rect x="218.5" y="103.5" class="st0" width="54" height="30"/>
<rect x="272.5" y="103.5" class="st0" width="53" height="30"/>
<rect x="325.5" y="103.5" class="st0" width="53" height="30"/>
<rect x="58.5" y="133.5" class="st0" width="53" height="30"/>
<rect x="111.5" y="133.5" class="st0" width="54" height="30"/>
<rect x="165.5" y="133.5" class="st0" width="53" height="30"/>
<rect x="218.5" y="133.5" class="st0" width="54" height="30"/>
<rect x="272.5" y="133.5" class="st0" width="53" height="30"/>
<rect x="325.5" y="133.5" class="st0" width="53" height="30"/>
<line class="st0" x1="378.4" y1="163.8" x2="378.4" y2="167.2"/>
<line class="st0" x1="325.6" y1="163.8" x2="325.6" y2="167.2"/>
<line class="st0" x1="272.6" y1="163.8" x2="272.6" y2="167.2"/>
<line class="st0" x1="218.4" y1="163.8" x2="218.4" y2="167.2"/>
<line class="st0" x1="165.6" y1="163.8" x2="165.6" y2="167.2"/>
<line class="st0" x1="111.6" y1="163.7" x2="111.6" y2="167"/>
<line class="st0" x1="58.4" y1="163.8" x2="58.4" y2="167.2"/>
<line class="st0" x1="58.4" y1="12.5" x2="55" y2="12.5"/>
<line class="st0" x1="58.4" y1="42.7" x2="55" y2="42.7"/>
<line class="st0" x1="58.4" y1="72.4" x2="55" y2="72.4"/>
<line class="st0" x1="58.7" y1="103.4" x2="55.3" y2="103.4"/>
<line class="st0" x1="58.4" y1="133.3" x2="55" y2="133.3"/>
<line class="st0" x1="58.4" y1="163.5" x2="55" y2="163.5"/>
<g>
	<path d="M12.5,150.5h1.6v-5.9h-1.3v-0.4c0.6-0.1,1-0.3,1.4-0.5h0.5v6.8h1.5v0.5h-3.8L12.5,150.5L12.5,150.5z"/>
	<path d="M17.5,147.3c0-2.5,0.8-3.7,2.1-3.7c1.3,0,2.1,1.2,2.1,3.7c0,2.6-0.8,3.8-2.1,3.8S17.5,149.9,17.5,147.3z M21.2,147.3
		c0-2.2-0.6-3.3-1.6-3.3s-1.6,1.1-1.6,3.3s0.6,3.3,1.6,3.3S21.2,149.5,21.2,147.3z"/>
	<path d="M31.8,149.3H28v2.4h-0.5v-2.4h-4.7v-0.5h1.7v-2.7h3v-1.7h-2.6c-0.5,0.8-1,1.5-1.6,2.1c-0.1-0.1-0.3-0.2-0.4-0.3
		c1-0.8,1.8-2.1,2.4-3.5l0.5,0.1c-0.2,0.4-0.3,0.8-0.5,1.2h6.2v0.5H28v1.7h3.1v0.5H28v2.3h3.7L31.8,149.3L31.8,149.3z M27.6,148.9
		v-2.3H25v2.3H27.6z"/>
	<path d="M37,148.9c-1.4,0.6-3,1.3-4.1,1.8l-0.2-0.5c0.4-0.2,0.9-0.4,1.4-0.6l-0.1-6.4h0.5l0.1,6.2c0.7-0.3,1.5-0.7,2.3-1L37,148.9z
		 M41.5,151.7c-0.5-0.7-1.6-1.9-2.5-2.8c-0.8,1.2-1.9,2.2-3.6,2.8c-0.1-0.1-0.3-0.3-0.4-0.4c3.6-1.3,4.6-3.7,5.1-8.2l0.5,0.1
		c-0.3,2.2-0.6,3.9-1.4,5.3c0.9,0.9,2.1,2.2,2.6,2.9L41.5,151.7z M37.6,146.6c-0.3-0.7-0.9-1.7-1.6-2.4l0.4-0.2
		c0.7,0.7,1.3,1.7,1.6,2.4L37.6,146.6z"/>
	<path d="M51.7,150.8v0.5h-8.8v-0.5h3.8v-7.9h0.5v3.2h3.9v0.5h-3.9v4.3h4.5V150.8z"/>
</g>
<g>
	<path d="M21.2,120.7l0.3-0.4c0.4,0.4,1,0.9,1.9,0.9s1.7-0.8,1.7-1.9c0-1.2-0.7-1.9-1.7-1.9c-0.5,0-0.9,0.2-1.3,0.5l-0.4-0.2
		l0.2-3.3h3.3v0.5h-2.8l-0.2,2.4c0.3-0.2,0.7-0.3,1.2-0.3c1.2,0,2.2,0.7,2.2,2.3c0,1.6-1.1,2.5-2.3,2.5
		C22.3,121.6,21.7,121.1,21.2,120.7z"/>
	<path d="M27.9,117.6c-0.3,0-0.6,0.2-0.9,0.7l-0.3-0.2c0.3-0.6,0.8-0.9,1.2-0.9c0.8,0,1.4,1,2,1c0.3,0,0.6-0.2,0.9-0.7l0.4,0.2
		c-0.3,0.6-0.8,0.9-1.2,0.9C29.1,118.6,28.6,117.6,27.9,117.6z"/>
	<path d="M32.5,121h1.6v-5.9h-1.3v-0.4c0.6-0.1,1-0.3,1.4-0.5h0.5v6.8h1.5v0.5h-3.8L32.5,121L32.5,121z"/>
	<path d="M37.5,117.8c0-2.5,0.8-3.7,2.1-3.7s2.1,1.2,2.1,3.7c0,2.6-0.8,3.8-2.1,3.8C38.3,121.6,37.5,120.4,37.5,117.8z M41.2,117.8
		c0-2.2-0.6-3.3-1.6-3.3s-1.6,1.1-1.6,3.3c0,2.2,0.6,3.3,1.6,3.3C40.6,121.1,41.2,120,41.2,117.8z"/>
	<path d="M51.8,119.8H48v2.4h-0.5v-2.4h-4.7v-0.5h1.7v-2.7h3v-1.7h-2.6c-0.5,0.8-1,1.5-1.6,2.1c-0.1-0.1-0.3-0.2-0.4-0.3
		c1-0.8,1.8-2.1,2.4-3.5l0.5,0.1c-0.2,0.4-0.3,0.8-0.5,1.2h6.2v0.5H48v1.7h3.1v0.5H48v2.3h3.7L51.8,119.8L51.8,119.8z M47.6,119.4
		v-2.3H45v2.3H47.6z"/>
</g>
<g>
	<path d="M26.6,88.6l0.3-0.4c0.4,0.4,1,0.9,1.9,0.9s1.6-0.6,1.6-1.6s-0.7-1.6-2.4-1.6v-0.5c1.6,0,2.2-0.7,2.2-1.6
		c0-0.8-0.5-1.3-1.4-1.3c-0.6,0-1.2,0.3-1.6,0.8l-0.3-0.4c0.5-0.5,1.1-0.8,1.9-0.9c1.1,0,2,0.6,2,1.8c0,0.9-0.6,1.5-1.3,1.8l0,0
		c0.9,0.2,1.6,0.8,1.6,1.9c0,1.3-1,2.1-2.2,2.1C27.7,89.6,27,89.1,26.6,88.6z"/>
	<path d="M33.3,85.6c-0.3,0-0.6,0.2-0.9,0.7l-0.3-0.2c0.3-0.6,0.8-0.9,1.2-0.9c0.8,0,1.4,1,2,1c0.3,0,0.6-0.2,0.9-0.7l0.4,0.2
		c-0.3,0.6-0.8,0.9-1.2,0.9C34.4,86.6,33.9,85.6,33.3,85.6z"/>
	<path d="M37.2,88.7l0.3-0.4c0.4,0.4,1,0.9,1.9,0.9s1.7-0.8,1.7-1.9c0-1.2-0.6-1.9-1.7-1.9c-0.5,0-0.9,0.2-1.3,0.5l-0.4-0.2l0.3-3.3
		h3.3v0.5h-2.8l-0.2,2.4c0.3-0.2,0.7-0.3,1.2-0.3c1.2,0,2.2,0.7,2.2,2.3c0,1.6-1.1,2.5-2.3,2.5C38.4,89.6,37.7,89.1,37.2,88.7z"/>
	<path d="M51.8,87.8H48v2.4h-0.5v-2.4h-4.7v-0.5h1.7v-2.7h3v-1.7h-2.6c-0.5,0.8-1,1.5-1.6,2.1c-0.1-0.1-0.3-0.2-0.4-0.3
		c1-0.8,1.8-2.1,2.4-3.5l0.5,0.1c-0.2,0.4-0.3,0.8-0.5,1.2h6.2V83H48v1.7h3.1v0.5H48v2.3h3.7L51.8,87.8L51.8,87.8z M47.6,87.4v-2.3
		H45v2.3H47.6z"/>
</g>
<g>
	<path d="M27.2,60h1.6v-5.9h-1.3v-0.4c0.6-0.1,1-0.3,1.4-0.5h0.5V60h1.5v0.5h-3.8L27.2,60L27.2,60z"/>
	<path d="M33.3,56.6c-0.3,0-0.6,0.2-0.9,0.7l-0.3-0.2c0.3-0.6,0.8-0.9,1.2-0.9c0.8,0,1.4,1,2,1c0.3,0,0.6-0.2,0.9-0.7l0.4,0.2
		c-0.3,0.6-0.8,0.9-1.2,0.9C34.4,57.6,33.9,56.6,33.3,56.6z"/>
	<path d="M37.3,59.6l0.3-0.4c0.4,0.4,1,0.9,1.9,0.9s1.6-0.6,1.6-1.6s-0.7-1.6-2.4-1.6v-0.5c1.6,0,2.2-0.7,2.2-1.6
		c0-0.8-0.5-1.3-1.4-1.3c-0.6,0-1.2,0.3-1.6,0.8l-0.3-0.4c0.5-0.5,1.1-0.8,1.9-0.9c1.1,0,2,0.6,2,1.8c0,0.9-0.6,1.5-1.3,1.8l0,0
		c0.9,0.2,1.6,0.8,1.6,1.9c0,1.3-1,2.1-2.2,2.1C38.4,60.6,37.7,60.1,37.3,59.6z"/>
	<path d="M51.8,58.8H48v2.4h-0.5v-2.4h-4.7v-0.5h1.7v-2.7h3v-1.7h-2.6c-0.5,0.8-1,1.5-1.6,2.1c-0.1-0.1-0.3-0.2-0.4-0.3
		c1-0.8,1.8-2.1,2.4-3.5l0.5,0.1c-0.2,0.4-0.3,0.8-0.5,1.2h6.2V54H48v1.7h3.1v0.5H48v2.3h3.7L51.8,58.8L51.8,58.8z M47.6,58.4v-2.3
		H45v2.3H47.6z"/>
</g>
<g>
	<path d="M21.8,25.8v0.5h-9v-0.5H21.8z"/>
	<path d="M31.8,28.3H28v2.4h-0.5v-2.4h-4.7v-0.5h1.7v-2.7h3v-1.7h-2.6c-0.5,0.8-1,1.5-1.6,2.1c-0.1-0.1-0.3-0.2-0.4-0.3
		c1-0.8,1.8-2.1,2.4-3.5l0.5,0.1c-0.2,0.4-0.3,0.8-0.5,1.2h6.2v0.5H28v1.7h3.1v0.5H28V28h3.7L31.8,28.3L31.8,28.3z M27.6,27.9v-2.3
		H25v2.3H27.6z"/>
	<path d="M37,27.9c-1.4,0.6-3,1.3-4.1,1.8l-0.2-0.5c0.4-0.2,0.9-0.4,1.4-0.6L34,22.2h0.5l0.1,6.2c0.7-0.3,1.5-0.7,2.3-1L37,27.9z
		 M41.5,30.7C41,30,40,28.8,39.1,27.9c-0.8,1.2-1.9,2.2-3.6,2.8c-0.1-0.1-0.3-0.3-0.4-0.4c3.6-1.3,4.6-3.7,5.1-8.2l0.5,0.1
		c-0.3,2.2-0.6,3.9-1.4,5.3c0.9,0.9,2.1,2.2,2.6,2.9L41.5,30.7z M37.6,25.6c-0.3-0.7-0.9-1.7-1.6-2.4l0.4-0.2
		c0.7,0.7,1.3,1.7,1.6,2.4L37.6,25.6z"/>
	<path d="M47.4,22.9v1.9l0.1-0.1c1.2,0.6,2.8,1.5,3.6,2.1l-0.3,0.4c-0.7-0.6-2.2-1.5-3.4-2.1v5.5h-0.5v-7.8h-4v-0.5h8.8v0.5h-4.3
		V22.9z"/>
</g>
<g>
	<path d="M57.4,177c0-0.8,0.1-1.5,0.3-2s0.4-0.9,0.8-1.2c0.3-0.3,0.8-0.4,1.3-0.4c0.4,0,0.7,0.1,1,0.2s0.5,0.4,0.7,0.7
		s0.3,0.6,0.4,1.1s0.2,1,0.2,1.7c0,0.8-0.1,1.5-0.3,2s-0.4,0.9-0.8,1.2c-0.3,0.3-0.8,0.4-1.3,0.4c-0.7,0-1.2-0.2-1.6-0.7
		C57.7,179.3,57.4,178.3,57.4,177z M58.3,177c0,1.2,0.1,2,0.4,2.3c0.3,0.4,0.6,0.6,1,0.6s0.7-0.2,1-0.6c0.3-0.4,0.4-1.2,0.4-2.3
		c0-1.2-0.1-2-0.4-2.3c-0.3-0.4-0.6-0.6-1-0.6s-0.7,0.2-1,0.5C58.5,175,58.3,175.8,58.3,177z"/>
</g>
<g>
	<path d="M100.6,180.5h-0.9v-5.6c-0.2,0.2-0.5,0.4-0.8,0.6s-0.7,0.4-0.9,0.5v-0.8c0.5-0.2,0.9-0.5,1.3-0.8s0.6-0.6,0.8-1h0.6
		L100.6,180.5L100.6,180.5z"/>
	<path d="M102.8,178.6l0.9-0.1c0.1,0.4,0.2,0.8,0.5,1s0.5,0.3,0.9,0.3s0.8-0.2,1.1-0.5s0.4-0.7,0.4-1.3c0-0.5-0.1-0.9-0.4-1.2
		s-0.7-0.4-1.1-0.4c-0.3,0-0.5,0.1-0.8,0.2c-0.2,0.1-0.4,0.3-0.5,0.5L103,177l0.7-3.7h3.6v0.8h-2.9L104,176c0.4-0.3,0.9-0.4,1.4-0.4
		c0.6,0,1.2,0.2,1.6,0.6s0.6,1,0.6,1.7c0,0.6-0.2,1.2-0.6,1.7c-0.5,0.6-1.1,0.9-1.9,0.9c-0.7,0-1.2-0.2-1.6-0.5
		S102.9,179.2,102.8,178.6z"/>
	<path d="M108.4,177c0-0.8,0.1-1.5,0.3-2s0.4-0.9,0.8-1.2s0.8-0.4,1.3-0.4c0.4,0,0.7,0.1,1,0.2c0.3,0.2,0.5,0.4,0.7,0.7
		s0.3,0.6,0.4,1.1s0.2,1,0.2,1.7c0,0.8-0.1,1.5-0.3,2c-0.2,0.5-0.4,0.9-0.8,1.2s-0.8,0.4-1.3,0.4c-0.7,0-1.2-0.2-1.6-0.7
		C108.6,179.3,108.4,178.3,108.4,177z M109.3,177c0,1.2,0.1,2,0.4,2.3s0.6,0.6,1,0.6s0.7-0.2,1-0.6s0.4-1.2,0.4-2.3
		c0-1.2-0.1-2-0.4-2.3s-0.6-0.6-1-0.6s-0.7,0.2-1,0.5C109.4,175,109.3,175.8,109.3,177z"/>
	<path d="M113.9,177c0-0.8,0.1-1.5,0.3-2s0.4-0.9,0.8-1.2s0.8-0.4,1.3-0.4c0.4,0,0.7,0.1,1,0.2c0.3,0.2,0.5,0.4,0.7,0.7
		s0.3,0.6,0.4,1.1s0.2,1,0.2,1.7c0,0.8-0.1,1.5-0.3,2c-0.2,0.5-0.4,0.9-0.8,1.2s-0.8,0.4-1.3,0.4c-0.7,0-1.2-0.2-1.6-0.7
		C114.2,179.3,113.9,178.3,113.9,177z M114.8,177c0,1.2,0.1,2,0.4,2.3s0.6,0.6,1,0.6s0.7-0.2,1-0.6s0.4-1.2,0.4-2.3
		c0-1.2-0.1-2-0.4-2.3s-0.6-0.6-1-0.6s-0.7,0.2-1,0.5C115,175,114.8,175.8,114.8,177z"/>
	<path d="M119.5,177c0-0.8,0.1-1.5,0.3-2s0.4-0.9,0.8-1.2s0.8-0.4,1.3-0.4c0.4,0,0.7,0.1,1,0.2c0.3,0.2,0.5,0.4,0.7,0.7
		s0.3,0.6,0.4,1.1s0.2,1,0.2,1.7c0,0.8-0.1,1.5-0.3,2c-0.2,0.5-0.4,0.9-0.8,1.2s-0.8,0.4-1.3,0.4c-0.7,0-1.2-0.2-1.6-0.7
		C119.7,179.3,119.5,178.3,119.5,177z M120.4,177c0,1.2,0.1,2,0.4,2.3s0.6,0.6,1,0.6s0.7-0.2,1-0.6s0.4-1.2,0.4-2.3
		c0-1.2-0.1-2-0.4-2.3s-0.6-0.6-1-0.6s-0.7,0.2-1,0.5C120.6,175,120.4,175.8,120.4,177z"/>
</g>
<g>
	<path d="M151,178.6l0.9-0.1c0.1,0.5,0.3,0.9,0.5,1.1s0.5,0.3,0.9,0.3s0.8-0.1,1-0.4s0.4-0.6,0.4-1.1c0-0.4-0.1-0.7-0.4-1
		s-0.6-0.4-1-0.4c-0.2,0-0.4,0-0.6,0.1l0.1-0.8c0.1,0,0.1,0,0.1,0c0.4,0,0.7-0.1,1-0.3s0.4-0.5,0.4-0.9c0-0.3-0.1-0.6-0.3-0.8
		s-0.5-0.3-0.8-0.3s-0.6,0.1-0.9,0.3c-0.2,0.2-0.4,0.5-0.4,1l-0.9-0.2c0.1-0.6,0.4-1,0.7-1.4s0.9-0.5,1.4-0.5c0.4,0,0.8,0.1,1.1,0.3
		s0.6,0.4,0.8,0.7s0.3,0.6,0.3,0.9c0,0.3-0.1,0.6-0.2,0.8s-0.4,0.5-0.7,0.6c0.4,0.1,0.8,0.3,1,0.6s0.4,0.7,0.4,1.2
		c0,0.6-0.2,1.2-0.7,1.6c-0.5,0.4-1,0.7-1.7,0.7c-0.6,0-1.1-0.2-1.6-0.6S151.1,179.2,151,178.6z"/>
	<path d="M156.6,177c0-0.8,0.1-1.5,0.3-2s0.4-0.9,0.8-1.2s0.8-0.4,1.3-0.4c0.4,0,0.7,0.1,1,0.2c0.3,0.2,0.5,0.4,0.7,0.7
		s0.3,0.6,0.4,1.1s0.2,1,0.2,1.7c0,0.8-0.1,1.5-0.3,2s-0.4,0.9-0.8,1.2s-0.8,0.4-1.3,0.4c-0.7,0-1.2-0.2-1.6-0.7
		C156.8,179.3,156.6,178.3,156.6,177z M157.5,177c0,1.2,0.1,2,0.4,2.3s0.6,0.6,1,0.6s0.7-0.2,1-0.6s0.4-1.2,0.4-2.3
		c0-1.2-0.1-2-0.4-2.3s-0.6-0.6-1-0.6s-0.7,0.2-1,0.5C157.6,175,157.5,175.8,157.5,177z"/>
	<path d="M162.1,177c0-0.8,0.1-1.5,0.3-2s0.4-0.9,0.8-1.2s0.8-0.4,1.3-0.4c0.4,0,0.7,0.1,1,0.2c0.3,0.2,0.5,0.4,0.7,0.7
		s0.3,0.6,0.4,1.1s0.2,1,0.2,1.7c0,0.8-0.1,1.5-0.3,2s-0.4,0.9-0.8,1.2s-0.8,0.4-1.3,0.4c-0.7,0-1.2-0.2-1.6-0.7
		C162.4,179.3,162.1,178.3,162.1,177z M163,177c0,1.2,0.1,2,0.4,2.3s0.6,0.6,1,0.6s0.7-0.2,1-0.6s0.4-1.2,0.4-2.3
		c0-1.2-0.1-2-0.4-2.3s-0.6-0.6-1-0.6s-0.7,0.2-1,0.5C163.2,175,163,175.8,163,177z"/>
	<path d="M167.7,177c0-0.8,0.1-1.5,0.3-2s0.4-0.9,0.8-1.2s0.8-0.4,1.3-0.4c0.4,0,0.7,0.1,1,0.2c0.3,0.2,0.5,0.4,0.7,0.7
		s0.3,0.6,0.4,1.1s0.2,1,0.2,1.7c0,0.8-0.1,1.5-0.3,2s-0.4,0.9-0.8,1.2s-0.8,0.4-1.3,0.4c-0.7,0-1.2-0.2-1.6-0.7
		C167.9,179.3,167.7,178.3,167.7,177z M168.6,177c0,1.2,0.1,2,0.4,2.3s0.6,0.6,1,0.6s0.7-0.2,1-0.6s0.4-1.2,0.4-2.3
		c0-1.2-0.1-2-0.4-2.3s-0.6-0.6-1-0.6s-0.7,0.2-1,0.5C168.8,175,168.6,175.8,168.6,177z"/>
	<path d="M173.3,177c0-0.8,0.1-1.5,0.3-2s0.4-0.9,0.8-1.2s0.8-0.4,1.3-0.4c0.4,0,0.7,0.1,1,0.2c0.3,0.2,0.5,0.4,0.7,0.7
		s0.3,0.6,0.4,1.1s0.2,1,0.2,1.7c0,0.8-0.1,1.5-0.3,2s-0.4,0.9-0.8,1.2s-0.8,0.4-1.3,0.4c-0.7,0-1.2-0.2-1.6-0.7
		C173.5,179.3,173.3,178.3,173.3,177z M174.2,177c0,1.2,0.1,2,0.4,2.3s0.6,0.6,1,0.6s0.7-0.2,1-0.6s0.4-1.2,0.4-2.3
		c0-1.2-0.1-2-0.4-2.3s-0.6-0.6-1-0.6s-0.7,0.2-1,0.5C174.3,175,174.2,175.8,174.2,177z"/>
</g>
<g>
	<path d="M207.6,180.5v-1.7h-3.1V178l3.3-4.6h0.7v4.6h1v0.8h-1v1.7H207.6z M207.6,178v-3.2l-2.2,3.2H207.6z"/>
	<path d="M210.3,178.6l0.9-0.1c0.1,0.4,0.2,0.8,0.5,1s0.5,0.3,0.9,0.3s0.8-0.2,1.1-0.5s0.4-0.7,0.4-1.3c0-0.5-0.1-0.9-0.4-1.2
		s-0.7-0.4-1.1-0.4c-0.3,0-0.5,0.1-0.8,0.2c-0.2,0.1-0.4,0.3-0.5,0.5l-0.8-0.1l0.7-3.7h3.6v0.8h-2.9l-0.4,1.9
		c0.4-0.3,0.9-0.4,1.4-0.4c0.6,0,1.2,0.2,1.6,0.6s0.6,1,0.6,1.7c0,0.6-0.2,1.2-0.6,1.7c-0.5,0.6-1.1,0.9-1.9,0.9
		c-0.7,0-1.2-0.2-1.6-0.5S210.4,179.2,210.3,178.6z"/>
	<path d="M215.9,177c0-0.8,0.1-1.5,0.3-2s0.4-0.9,0.8-1.2s0.8-0.4,1.3-0.4c0.4,0,0.7,0.1,1,0.2c0.3,0.2,0.5,0.4,0.7,0.7
		s0.3,0.6,0.4,1.1s0.2,1,0.2,1.7c0,0.8-0.1,1.5-0.3,2s-0.4,0.9-0.8,1.2s-0.8,0.4-1.3,0.4c-0.7,0-1.2-0.2-1.6-0.7
		C216.1,179.3,215.9,178.3,215.9,177z M216.8,177c0,1.2,0.1,2,0.4,2.3s0.6,0.6,1,0.6s0.7-0.2,1-0.6s0.4-1.2,0.4-2.3
		c0-1.2-0.1-2-0.4-2.3s-0.6-0.6-1-0.6s-0.7,0.2-1,0.5C216.9,175,216.8,175.8,216.8,177z"/>
	<path d="M221.4,177c0-0.8,0.1-1.5,0.3-2s0.4-0.9,0.8-1.2s0.8-0.4,1.3-0.4c0.4,0,0.7,0.1,1,0.2c0.3,0.2,0.5,0.4,0.7,0.7
		s0.3,0.6,0.4,1.1s0.2,1,0.2,1.7c0,0.8-0.1,1.5-0.3,2s-0.4,0.9-0.8,1.2s-0.8,0.4-1.3,0.4c-0.7,0-1.2-0.2-1.6-0.7
		C221.7,179.3,221.4,178.3,221.4,177z M222.3,177c0,1.2,0.1,2,0.4,2.3s0.6,0.6,1,0.6s0.7-0.2,1-0.6s0.4-1.2,0.4-2.3
		c0-1.2-0.1-2-0.4-2.3s-0.6-0.6-1-0.6s-0.7,0.2-1,0.5C222.5,175,222.3,175.8,222.3,177z"/>
	<path d="M227,177c0-0.8,0.1-1.5,0.3-2s0.4-0.9,0.8-1.2s0.8-0.4,1.3-0.4c0.4,0,0.7,0.1,1,0.2c0.3,0.2,0.5,0.4,0.7,0.7
		s0.3,0.6,0.4,1.1s0.2,1,0.2,1.7c0,0.8-0.1,1.5-0.3,2s-0.4,0.9-0.8,1.2s-0.8,0.4-1.3,0.4c-0.7,0-1.2-0.2-1.6-0.7
		C227.2,179.3,227,178.3,227,177z M227.9,177c0,1.2,0.1,2,0.4,2.3s0.6,0.6,1,0.6s0.7-0.2,1-0.6s0.4-1.2,0.4-2.3c0-1.2-0.1-2-0.4-2.3
		s-0.6-0.6-1-0.6s-0.7,0.2-1,0.5C228.1,175,227.9,175.8,227.9,177z"/>
</g>
<g>
	<path d="M263.1,175.1l-0.9,0.1c-0.1-0.3-0.2-0.6-0.3-0.8c-0.2-0.3-0.5-0.4-0.9-0.4c-0.3,0-0.5,0.1-0.7,0.2
		c-0.3,0.2-0.5,0.5-0.7,0.9s-0.2,0.9-0.3,1.7c0.2-0.3,0.5-0.6,0.8-0.7c0.3-0.2,0.6-0.2,1-0.2c0.6,0,1.1,0.2,1.5,0.6s0.6,1,0.6,1.7
		c0,0.4-0.1,0.9-0.3,1.3s-0.5,0.7-0.8,0.9s-0.7,0.3-1.2,0.3c-0.7,0-1.3-0.3-1.8-0.8s-0.7-1.4-0.7-2.7c0-1.4,0.3-2.4,0.8-3
		c0.4-0.5,1-0.8,1.8-0.8c0.6,0,1,0.2,1.4,0.5S263,174.5,263.1,175.1z M259.5,178.2c0,0.3,0.1,0.6,0.2,0.9s0.3,0.5,0.5,0.6
		s0.5,0.2,0.7,0.2c0.4,0,0.7-0.1,1-0.4c0.3-0.3,0.4-0.7,0.4-1.2s-0.1-0.9-0.4-1.2s-0.6-0.4-1-0.4s-0.7,0.1-1,0.4
		C259.6,177.3,259.5,177.7,259.5,178.2z"/>
	<path d="M264.1,177c0-0.8,0.1-1.5,0.3-2s0.4-0.9,0.8-1.2s0.8-0.4,1.3-0.4c0.4,0,0.7,0.1,1,0.2c0.3,0.2,0.5,0.4,0.7,0.7
		s0.3,0.6,0.4,1.1s0.2,1,0.2,1.7c0,0.8-0.1,1.5-0.3,2c-0.2,0.5-0.4,0.9-0.8,1.2s-0.8,0.4-1.3,0.4c-0.7,0-1.2-0.2-1.6-0.7
		C264.3,179.3,264.1,178.3,264.1,177z M265,177c0,1.2,0.1,2,0.4,2.3s0.6,0.6,1,0.6s0.7-0.2,1-0.6s0.4-1.2,0.4-2.3
		c0-1.2-0.1-2-0.4-2.3s-0.6-0.6-1-0.6s-0.7,0.2-1,0.5C265.1,175,265,175.8,265,177z"/>
	<path d="M269.6,177c0-0.8,0.1-1.5,0.3-2s0.4-0.9,0.8-1.2s0.8-0.4,1.3-0.4c0.4,0,0.7,0.1,1,0.2c0.3,0.2,0.5,0.4,0.7,0.7
		s0.3,0.6,0.4,1.1s0.2,1,0.2,1.7c0,0.8-0.1,1.5-0.3,2c-0.2,0.5-0.4,0.9-0.8,1.2s-0.8,0.4-1.3,0.4c-0.7,0-1.2-0.2-1.6-0.7
		C269.9,179.3,269.6,178.3,269.6,177z M270.5,177c0,1.2,0.1,2,0.4,2.3s0.6,0.6,1,0.6s0.7-0.2,1-0.6s0.4-1.2,0.4-2.3
		c0-1.2-0.1-2-0.4-2.3s-0.6-0.6-1-0.6s-0.7,0.2-1,0.5C270.7,175,270.5,175.8,270.5,177z"/>
	<path d="M275.2,177c0-0.8,0.1-1.5,0.3-2s0.4-0.9,0.8-1.2s0.8-0.4,1.3-0.4c0.4,0,0.7,0.1,1,0.2c0.3,0.2,0.5,0.4,0.7,0.7
		s0.3,0.6,0.4,1.1s0.2,1,0.2,1.7c0,0.8-0.1,1.5-0.3,2c-0.2,0.5-0.4,0.9-0.8,1.2s-0.8,0.4-1.3,0.4c-0.7,0-1.2-0.2-1.6-0.7
		C275.4,179.3,275.2,178.3,275.2,177z M276.1,177c0,1.2,0.1,2,0.4,2.3s0.6,0.6,1,0.6s0.7-0.2,1-0.6s0.4-1.2,0.4-2.3
		c0-1.2-0.1-2-0.4-2.3s-0.6-0.6-1-0.6s-0.7,0.2-1,0.5C276.3,175,276.1,175.8,276.1,177z"/>
	<path d="M280.8,177c0-0.8,0.1-1.5,0.3-2s0.4-0.9,0.8-1.2s0.8-0.4,1.3-0.4c0.4,0,0.7,0.1,1,0.2c0.3,0.2,0.5,0.4,0.7,0.7
		s0.3,0.6,0.4,1.1s0.2,1,0.2,1.7c0,0.8-0.1,1.5-0.3,2c-0.2,0.5-0.4,0.9-0.8,1.2s-0.8,0.4-1.3,0.4c-0.7,0-1.2-0.2-1.6-0.7
		C281,179.3,280.8,178.3,280.8,177z M281.7,177c0,1.2,0.1,2,0.4,2.3s0.6,0.6,1,0.6s0.7-0.2,1-0.6s0.4-1.2,0.4-2.3
		c0-1.2-0.1-2-0.4-2.3s-0.6-0.6-1-0.6s-0.7,0.2-1,0.5C281.8,175,281.7,175.8,281.7,177z"/>
</g>
<g>
	<path d="M312.3,174.3v-0.8h4.6v0.7c-0.5,0.5-0.9,1.1-1.4,1.9s-0.8,1.6-1,2.5c-0.2,0.6-0.3,1.3-0.3,2h-0.9c0-0.6,0.1-1.2,0.3-2
		c0.2-0.8,0.5-1.6,0.9-2.3s0.8-1.4,1.3-1.9L312.3,174.3L312.3,174.3z"/>
	<path d="M317.8,178.6l0.9-0.1c0.1,0.4,0.2,0.8,0.5,1s0.5,0.3,0.9,0.3s0.8-0.2,1.1-0.5s0.4-0.7,0.4-1.3c0-0.5-0.1-0.9-0.4-1.2
		s-0.7-0.4-1.1-0.4c-0.3,0-0.5,0.1-0.8,0.2c-0.2,0.1-0.4,0.3-0.5,0.5L318,177l0.7-3.7h3.6v0.8h-2.9L319,176c0.4-0.3,0.9-0.4,1.4-0.4
		c0.6,0,1.2,0.2,1.6,0.6s0.6,1,0.6,1.7c0,0.6-0.2,1.2-0.6,1.7c-0.5,0.6-1.1,0.9-1.9,0.9c-0.7,0-1.2-0.2-1.6-0.5
		S317.9,179.2,317.8,178.6z"/>
	<path d="M323.4,177c0-0.8,0.1-1.5,0.3-2s0.4-0.9,0.8-1.2s0.8-0.4,1.3-0.4c0.4,0,0.7,0.1,1,0.2c0.3,0.2,0.5,0.4,0.7,0.7
		s0.3,0.6,0.4,1.1s0.2,1,0.2,1.7c0,0.8-0.1,1.5-0.3,2c-0.2,0.5-0.4,0.9-0.8,1.2s-0.8,0.4-1.3,0.4c-0.7,0-1.2-0.2-1.6-0.7
		C323.6,179.3,323.4,178.3,323.4,177z M324.3,177c0,1.2,0.1,2,0.4,2.3s0.6,0.6,1,0.6s0.7-0.2,1-0.6s0.4-1.2,0.4-2.3
		c0-1.2-0.1-2-0.4-2.3s-0.6-0.6-1-0.6s-0.7,0.2-1,0.5C324.4,175,324.3,175.8,324.3,177z"/>
	<path d="M328.9,177c0-0.8,0.1-1.5,0.3-2s0.4-0.9,0.8-1.2s0.8-0.4,1.3-0.4c0.4,0,0.7,0.1,1,0.2c0.3,0.2,0.5,0.4,0.7,0.7
		s0.3,0.6,0.4,1.1s0.2,1,0.2,1.7c0,0.8-0.1,1.5-0.3,2c-0.2,0.5-0.4,0.9-0.8,1.2s-0.8,0.4-1.3,0.4c-0.7,0-1.2-0.2-1.6-0.7
		C329.2,179.3,328.9,178.3,328.9,177z M329.8,177c0,1.2,0.1,2,0.4,2.3s0.6,0.6,1,0.6s0.7-0.2,1-0.6s0.4-1.2,0.4-2.3
		c0-1.2-0.1-2-0.4-2.3s-0.6-0.6-1-0.6s-0.7,0.2-1,0.5C330,175,329.8,175.8,329.8,177z"/>
	<path d="M334.5,177c0-0.8,0.1-1.5,0.3-2s0.4-0.9,0.8-1.2s0.8-0.4,1.3-0.4c0.4,0,0.7,0.1,1,0.2c0.3,0.2,0.5,0.4,0.7,0.7
		s0.3,0.6,0.4,1.1s0.2,1,0.2,1.7c0,0.8-0.1,1.5-0.3,2c-0.2,0.5-0.4,0.9-0.8,1.2s-0.8,0.4-1.3,0.4c-0.7,0-1.2-0.2-1.6-0.7
		C334.7,179.3,334.5,178.3,334.5,177z M335.4,177c0,1.2,0.1,2,0.4,2.3s0.6,0.6,1,0.6s0.7-0.2,1-0.6s0.4-1.2,0.4-2.3
		c0-1.2-0.1-2-0.4-2.3s-0.6-0.6-1-0.6s-0.7,0.2-1,0.5C335.6,175,335.4,175.8,335.4,177z"/>
</g>
<g>
	<path d="M366.1,178.8l0.8-0.1c0.1,0.4,0.2,0.7,0.4,0.9c0.2,0.2,0.5,0.3,0.8,0.3s0.5-0.1,0.7-0.2s0.4-0.3,0.5-0.5s0.2-0.5,0.3-0.8
		s0.1-0.7,0.1-1.1c0,0,0-0.1,0-0.2c-0.2,0.3-0.4,0.5-0.7,0.7s-0.6,0.3-1,0.3c-0.6,0-1.1-0.2-1.5-0.6s-0.6-1-0.6-1.7s0.2-1.3,0.6-1.8
		s1-0.7,1.6-0.7c0.5,0,0.9,0.1,1.3,0.4s0.7,0.6,0.9,1.1s0.3,1.1,0.3,2s-0.1,1.6-0.3,2.2c-0.2,0.5-0.5,1-0.9,1.2s-0.9,0.4-1.4,0.4
		c-0.6,0-1-0.2-1.4-0.5C366.4,179.8,366.2,179.4,366.1,178.8z M369.7,175.7c0-0.5-0.1-0.9-0.4-1.2s-0.6-0.4-1-0.4s-0.7,0.2-1,0.5
		s-0.4,0.7-0.4,1.2s0.1,0.8,0.4,1.1s0.6,0.4,1,0.4s0.7-0.1,1-0.4S369.7,176.2,369.7,175.7z"/>
	<path d="M371.6,177c0-0.8,0.1-1.5,0.3-2s0.4-0.9,0.8-1.2s0.8-0.4,1.3-0.4c0.4,0,0.7,0.1,1,0.2c0.3,0.2,0.5,0.4,0.7,0.7
		s0.3,0.6,0.4,1.1s0.2,1,0.2,1.7c0,0.8-0.1,1.5-0.3,2c-0.2,0.5-0.4,0.9-0.8,1.2s-0.8,0.4-1.3,0.4c-0.7,0-1.2-0.2-1.6-0.7
		C371.8,179.3,371.6,178.3,371.6,177z M372.5,177c0,1.2,0.1,2,0.4,2.3s0.6,0.6,1,0.6s0.7-0.2,1-0.6s0.4-1.2,0.4-2.3
		c0-1.2-0.1-2-0.4-2.3s-0.6-0.6-1-0.6s-0.7,0.2-1,0.5C372.6,175,372.5,175.8,372.5,177z"/>
	<path d="M377.1,177c0-0.8,0.1-1.5,0.3-2s0.4-0.9,0.8-1.2s0.8-0.4,1.3-0.4c0.4,0,0.7,0.1,1,0.2c0.3,0.2,0.5,0.4,0.7,0.7
		s0.3,0.6,0.4,1.1s0.2,1,0.2,1.7c0,0.8-0.1,1.5-0.3,2c-0.2,0.5-0.4,0.9-0.8,1.2s-0.8,0.4-1.3,0.4c-0.7,0-1.2-0.2-1.6-0.7
		C377.4,179.3,377.1,178.3,377.1,177z M378,177c0,1.2,0.1,2,0.4,2.3s0.6,0.6,1,0.6s0.7-0.2,1-0.6s0.4-1.2,0.4-2.3
		c0-1.2-0.1-2-0.4-2.3s-0.6-0.6-1-0.6s-0.7,0.2-1,0.5C378.2,175,378,175.8,378,177z"/>
	<path d="M382.7,177c0-0.8,0.1-1.5,0.3-2s0.4-0.9,0.8-1.2s0.8-0.4,1.3-0.4c0.4,0,0.7,0.1,1,0.2c0.3,0.2,0.5,0.4,0.7,0.7
		s0.3,0.6,0.4,1.1s0.2,1,0.2,1.7c0,0.8-0.1,1.5-0.3,2c-0.2,0.5-0.4,0.9-0.8,1.2s-0.8,0.4-1.3,0.4c-0.7,0-1.2-0.2-1.6-0.7
		C382.9,179.3,382.7,178.3,382.7,177z M383.6,177c0,1.2,0.1,2,0.4,2.3s0.6,0.6,1,0.6s0.7-0.2,1-0.6s0.4-1.2,0.4-2.3
		c0-1.2-0.1-2-0.4-2.3s-0.6-0.6-1-0.6s-0.7,0.2-1,0.5C383.8,175,383.6,175.8,383.6,177z"/>
	<path d="M388.3,177c0-0.8,0.1-1.5,0.3-2s0.4-0.9,0.8-1.2s0.8-0.4,1.3-0.4c0.4,0,0.7,0.1,1,0.2c0.3,0.2,0.5,0.4,0.7,0.7
		s0.3,0.6,0.4,1.1s0.2,1,0.2,1.7c0,0.8-0.1,1.5-0.3,2c-0.2,0.5-0.4,0.9-0.8,1.2s-0.8,0.4-1.3,0.4c-0.7,0-1.2-0.2-1.6-0.7
		C388.5,179.3,388.3,178.3,388.3,177z M389.2,177c0,1.2,0.1,2,0.4,2.3s0.6,0.6,1,0.6s0.7-0.2,1-0.6s0.4-1.2,0.4-2.3
		c0-1.2-0.1-2-0.4-2.3s-0.6-0.6-1-0.6s-0.7,0.2-1,0.5C389.3,175,389.2,175.8,389.2,177z"/>
</g>
<g>
	<path class="st1" d="M202.2,27.9l0.9-0.1c0.1,0.5,0.3,0.9,0.5,1.1s0.5,0.3,0.9,0.3s0.8-0.1,1-0.4c0.3-0.3,0.4-0.6,0.4-1.1
		c0-0.4-0.1-0.7-0.4-1s-0.6-0.4-1-0.4c-0.2,0-0.4,0-0.6,0.1l0.1-0.8c0.1,0,0.1,0,0.1,0c0.4,0,0.7-0.1,1-0.3s0.4-0.5,0.4-0.9
		c0-0.3-0.1-0.6-0.3-0.8s-0.5-0.3-0.8-0.3s-0.6,0.1-0.9,0.3s-0.4,0.5-0.4,1l-0.9-0.2c0.1-0.6,0.4-1,0.7-1.4s0.9-0.5,1.4-0.5
		c0.4,0,0.8,0.1,1.1,0.3s0.6,0.4,0.8,0.7c0.2,0.3,0.3,0.6,0.3,0.9s-0.1,0.6-0.2,0.8s-0.4,0.5-0.7,0.6c0.4,0.1,0.8,0.3,1,0.6
		s0.4,0.7,0.4,1.2c0,0.6-0.2,1.2-0.7,1.6s-1,0.7-1.7,0.7c-0.6,0-1.2-0.2-1.6-0.6C202.5,28.9,202.2,28.5,202.2,27.9z"/>
	<path class="st1" d="M207.9,28.1l0.8-0.1c0.1,0.4,0.2,0.7,0.4,0.9s0.5,0.3,0.8,0.3s0.5-0.1,0.7-0.2s0.4-0.3,0.5-0.5
		s0.2-0.5,0.3-0.8s0.1-0.7,0.1-1.1c0,0,0-0.1,0-0.2c-0.2,0.3-0.4,0.5-0.7,0.7s-0.6,0.3-1,0.3c-0.6,0-1.1-0.2-1.5-0.6s-0.6-1-0.6-1.7
		s0.2-1.3,0.6-1.8c0.4-0.4,1-0.7,1.6-0.7c0.5,0,0.9,0.1,1.3,0.4c0.4,0.3,0.7,0.6,0.9,1.1s0.3,1.1,0.3,2s-0.1,1.6-0.3,2.2
		s-0.5,1-0.9,1.2c-0.4,0.3-0.9,0.4-1.4,0.4c-0.6,0-1-0.2-1.4-0.5S207.9,28.7,207.9,28.1z M211.5,24.9c0-0.5-0.1-0.9-0.4-1.2
		c-0.3-0.3-0.6-0.4-1-0.4s-0.7,0.2-1,0.5s-0.4,0.7-0.4,1.2s0.1,0.8,0.4,1.1c0.3,0.3,0.6,0.4,1,0.4s0.7-0.1,1-0.4
		C211.3,25.8,211.5,25.4,211.5,24.9z"/>
	<path class="st1" d="M213.8,29.8v-1h1v1c0,0.4-0.1,0.7-0.2,0.9s-0.3,0.4-0.6,0.5l-0.2-0.4c0.2-0.1,0.3-0.2,0.4-0.4s0.1-0.4,0.1-0.7
		h-0.5V29.8z"/>
	<path class="st1" d="M216.1,26.2c0-0.8,0.1-1.5,0.3-2s0.4-0.9,0.8-1.2c0.3-0.3,0.8-0.4,1.3-0.4c0.4,0,0.7,0.1,1,0.2
		s0.5,0.4,0.7,0.7s0.3,0.6,0.4,1.1s0.2,1,0.2,1.7c0,0.8-0.1,1.5-0.3,2s-0.4,0.9-0.8,1.2c-0.3,0.3-0.8,0.4-1.3,0.4
		c-0.7,0-1.2-0.2-1.6-0.7C216.3,28.5,216.1,27.6,216.1,26.2z M217,26.2c0,1.2,0.1,2,0.4,2.3c0.3,0.4,0.6,0.6,1,0.6s0.7-0.2,1-0.6
		s0.4-1.2,0.4-2.3c0-1.2-0.1-2-0.4-2.3c-0.3-0.4-0.6-0.6-1-0.6s-0.7,0.2-1,0.5C217.1,24.2,217,25,217,26.2z"/>
	<path class="st1" d="M221.6,26.2c0-0.8,0.1-1.5,0.3-2s0.4-0.9,0.8-1.2c0.3-0.3,0.8-0.4,1.3-0.4c0.4,0,0.7,0.1,1,0.2
		s0.5,0.4,0.7,0.7s0.3,0.6,0.4,1.1s0.2,1,0.2,1.7c0,0.8-0.1,1.5-0.3,2s-0.4,0.9-0.8,1.2c-0.3,0.3-0.8,0.4-1.3,0.4
		c-0.7,0-1.2-0.2-1.6-0.7C221.9,28.5,221.6,27.6,221.6,26.2z M222.5,26.2c0,1.2,0.1,2,0.4,2.3c0.3,0.4,0.6,0.6,1,0.6s0.7-0.2,1-0.6
		s0.4-1.2,0.4-2.3c0-1.2-0.1-2-0.4-2.3c-0.3-0.4-0.6-0.6-1-0.6s-0.7,0.2-1,0.5C222.7,24.2,222.5,25,222.5,26.2z"/>
	<path class="st1" d="M227.2,26.2c0-0.8,0.1-1.5,0.3-2s0.4-0.9,0.8-1.2c0.3-0.3,0.8-0.4,1.3-0.4c0.4,0,0.7,0.1,1,0.2
		s0.5,0.4,0.7,0.7s0.3,0.6,0.4,1.1s0.2,1,0.2,1.7c0,0.8-0.1,1.5-0.3,2s-0.4,0.9-0.8,1.2c-0.3,0.3-0.8,0.4-1.3,0.4
		c-0.7,0-1.2-0.2-1.6-0.7C227.4,28.5,227.2,27.6,227.2,26.2z M228.1,26.2c0,1.2,0.1,2,0.4,2.3c0.3,0.4,0.6,0.6,1,0.6s0.7-0.2,1-0.6
		s0.4-1.2,0.4-2.3c0-1.2-0.1-2-0.4-2.3c-0.3-0.4-0.6-0.6-1-0.6s-0.7,0.2-1,0.5C228.2,24.2,228.1,25,228.1,26.2z"/>
</g>
<g>
	<path class="st1" d="M212.5,60.2v-1.7h-3.1v-0.8l3.3-4.6h0.7v4.6h1v0.8h-1v1.7H212.5z M212.5,57.7v-3.2l-2.2,3.2H212.5z"/>
	<path class="st1" d="M218.5,60.2h-0.9v-5.6c-0.2,0.2-0.5,0.4-0.8,0.6c-0.3,0.2-0.7,0.4-0.9,0.5v-0.8c0.5-0.2,0.9-0.5,1.3-0.8
		s0.6-0.6,0.8-1h0.6v7.1H218.5z"/>
	<path class="st1" d="M221.3,60.2v-1h1v1c0,0.4-0.1,0.7-0.2,0.9s-0.3,0.4-0.6,0.5l-0.2-0.4c0.2-0.1,0.3-0.2,0.4-0.4s0.1-0.4,0.1-0.7
		h-0.5V60.2z"/>
	<path class="st1" d="M223.6,56.7c0-0.8,0.1-1.5,0.3-2s0.4-0.9,0.8-1.2c0.3-0.3,0.8-0.4,1.3-0.4c0.4,0,0.7,0.1,1,0.2
		s0.5,0.4,0.7,0.7s0.3,0.6,0.4,1.1s0.2,1,0.2,1.7c0,0.8-0.1,1.5-0.3,2s-0.4,0.9-0.8,1.2c-0.3,0.3-0.8,0.4-1.3,0.4
		c-0.7,0-1.2-0.2-1.6-0.7C223.8,59,223.6,58,223.6,56.7z M224.5,56.7c0,1.2,0.1,2,0.4,2.3c0.3,0.4,0.6,0.6,1,0.6s0.7-0.2,1-0.6
		c0.3-0.4,0.4-1.2,0.4-2.3c0-1.2-0.1-2-0.4-2.3c-0.3-0.4-0.6-0.6-1-0.6s-0.7,0.2-1,0.5C224.6,54.7,224.5,55.5,224.5,56.7z"/>
	<path class="st1" d="M229.1,56.7c0-0.8,0.1-1.5,0.3-2s0.4-0.9,0.8-1.2c0.3-0.3,0.8-0.4,1.3-0.4c0.4,0,0.7,0.1,1,0.2
		s0.5,0.4,0.7,0.7s0.3,0.6,0.4,1.1s0.2,1,0.2,1.7c0,0.8-0.1,1.5-0.3,2s-0.4,0.9-0.8,1.2c-0.3,0.3-0.8,0.4-1.3,0.4
		c-0.7,0-1.2-0.2-1.6-0.7C229.4,59,229.1,58,229.1,56.7z M230,56.7c0,1.2,0.1,2,0.4,2.3c0.3,0.4,0.6,0.6,1,0.6s0.7-0.2,1-0.6
		c0.3-0.4,0.4-1.2,0.4-2.3c0-1.2-0.1-2-0.4-2.3c-0.3-0.4-0.6-0.6-1-0.6s-0.7,0.2-1,0.5C230.2,54.7,230,55.5,230,56.7z"/>
	<path class="st1" d="M234.7,56.7c0-0.8,0.1-1.5,0.3-2s0.4-0.9,0.8-1.2c0.3-0.3,0.8-0.4,1.3-0.4c0.4,0,0.7,0.1,1,0.2
		s0.5,0.4,0.7,0.7s0.3,0.6,0.4,1.1s0.2,1,0.2,1.7c0,0.8-0.1,1.5-0.3,2s-0.4,0.9-0.8,1.2c-0.3,0.3-0.8,0.4-1.3,0.4
		c-0.7,0-1.2-0.2-1.6-0.7C234.9,59,234.7,58,234.7,56.7z M235.6,56.7c0,1.2,0.1,2,0.4,2.3c0.3,0.4,0.6,0.6,1,0.6s0.7-0.2,1-0.6
		c0.3-0.4,0.4-1.2,0.4-2.3c0-1.2-0.1-2-0.4-2.3c-0.3-0.4-0.6-0.6-1-0.6s-0.7,0.2-1,0.5C235.7,54.7,235.6,55.5,235.6,56.7z"/>
</g>
<g>
	<path class="st1" d="M223.2,90.6v-1.7h-3.1v-0.8l3.3-4.6h0.7v4.6h1v0.8h-1v1.7H223.2z M223.2,88.1v-3.2l-2.2,3.2H223.2z"/>
	<path class="st1" d="M228.8,90.6v-1.7h-3.1v-0.8l3.3-4.6h0.7v4.6h1v0.8h-1v1.7H228.8z M228.8,88.1v-3.2l-2.2,3.2H228.8z"/>
	<path class="st1" d="M232,90.6v-1h1v1c0,0.4-0.1,0.7-0.2,0.9s-0.3,0.4-0.6,0.5l-0.2-0.4c0.2-0.1,0.3-0.2,0.4-0.4s0.1-0.4,0.1-0.7
		L232,90.6L232,90.6z"/>
	<path class="st1" d="M234.3,87.1c0-0.8,0.1-1.5,0.3-2s0.4-0.9,0.8-1.2c0.3-0.3,0.8-0.4,1.3-0.4c0.4,0,0.7,0.1,1,0.2
		s0.5,0.4,0.7,0.7s0.3,0.6,0.4,1.1s0.2,1,0.2,1.7c0,0.8-0.1,1.5-0.3,2s-0.4,0.9-0.8,1.2c-0.3,0.3-0.8,0.4-1.3,0.4
		c-0.7,0-1.2-0.2-1.6-0.7C234.6,89.4,234.3,88.4,234.3,87.1z M235.2,87.1c0,1.2,0.1,2,0.4,2.3c0.3,0.4,0.6,0.6,1,0.6s0.7-0.2,1-0.6
		s0.4-1.2,0.4-2.3c0-1.2-0.1-2-0.4-2.3c-0.3-0.4-0.6-0.6-1-0.6s-0.7,0.2-1,0.5C235.4,85.1,235.2,85.9,235.2,87.1z"/>
	<path class="st1" d="M239.9,87.1c0-0.8,0.1-1.5,0.3-2s0.4-0.9,0.8-1.2c0.3-0.3,0.8-0.4,1.3-0.4c0.4,0,0.7,0.1,1,0.2
		s0.5,0.4,0.7,0.7s0.3,0.6,0.4,1.1s0.2,1,0.2,1.7c0,0.8-0.1,1.5-0.3,2s-0.4,0.9-0.8,1.2c-0.3,0.3-0.8,0.4-1.3,0.4
		c-0.7,0-1.2-0.2-1.6-0.7C240.1,89.4,239.9,88.4,239.9,87.1z M240.8,87.1c0,1.2,0.1,2,0.4,2.3c0.3,0.4,0.6,0.6,1,0.6s0.7-0.2,1-0.6
		s0.4-1.2,0.4-2.3c0-1.2-0.1-2-0.4-2.3c-0.3-0.4-0.6-0.6-1-0.6s-0.7,0.2-1,0.5C240.9,85.1,240.8,85.9,240.8,87.1z"/>
	<path class="st1" d="M245.4,87.1c0-0.8,0.1-1.5,0.3-2s0.4-0.9,0.8-1.2c0.3-0.3,0.8-0.4,1.3-0.4c0.4,0,0.7,0.1,1,0.2
		s0.5,0.4,0.7,0.7s0.3,0.6,0.4,1.1s0.2,1,0.2,1.7c0,0.8-0.1,1.5-0.3,2s-0.4,0.9-0.8,1.2c-0.3,0.3-0.8,0.4-1.3,0.4
		c-0.7,0-1.2-0.2-1.6-0.7C245.7,89.4,245.4,88.4,245.4,87.1z M246.3,87.1c0,1.2,0.1,2,0.4,2.3c0.3,0.4,0.6,0.6,1,0.6s0.7-0.2,1-0.6
		s0.4-1.2,0.4-2.3c0-1.2-0.1-2-0.4-2.3c-0.3-0.4-0.6-0.6-1-0.6s-0.7,0.2-1,0.5C246.5,85.1,246.3,85.9,246.3,87.1z"/>
</g>
<g>
	<path class="st1" d="M233.7,121.1v-1.7h-3.1v-0.8l3.3-4.6h0.7v4.6h1v0.8h-1v1.7H233.7z M233.7,118.5v-3.2l-2.2,3.2H233.7z"/>
	<path class="st1" d="M236.5,114.8V114h4.6v0.7c-0.5,0.5-0.9,1.1-1.4,1.9c-0.4,0.8-0.8,1.6-1,2.5c-0.2,0.6-0.3,1.3-0.3,2h-0.9
		c0-0.6,0.1-1.2,0.3-2s0.5-1.6,0.9-2.3c0.4-0.7,0.8-1.4,1.3-1.9L236.5,114.8L236.5,114.8z"/>
	<path class="st1" d="M242.5,121.1v-1h1v1c0,0.4-0.1,0.7-0.2,0.9s-0.3,0.4-0.6,0.5l-0.2-0.4c0.2-0.1,0.3-0.2,0.4-0.4
		s0.1-0.4,0.1-0.7L242.5,121.1L242.5,121.1z"/>
	<path class="st1" d="M244.8,117.5c0-0.8,0.1-1.5,0.3-2s0.4-0.9,0.8-1.2c0.3-0.3,0.8-0.4,1.3-0.4c0.4,0,0.7,0.1,1,0.2
		s0.5,0.4,0.7,0.7s0.3,0.6,0.4,1.1s0.2,1,0.2,1.7c0,0.8-0.1,1.5-0.3,2s-0.4,0.9-0.8,1.2c-0.3,0.3-0.8,0.4-1.3,0.4
		c-0.7,0-1.2-0.2-1.6-0.7C245.1,119.8,244.8,118.9,244.8,117.5z M245.7,117.5c0,1.2,0.1,2,0.4,2.3c0.3,0.4,0.6,0.6,1,0.6
		s0.7-0.2,1-0.6s0.4-1.2,0.4-2.3c0-1.2-0.1-2-0.4-2.3c-0.3-0.4-0.6-0.6-1-0.6s-0.7,0.2-1,0.5C245.9,115.6,245.7,116.4,245.7,117.5z"
		/>
	<path class="st1" d="M250.4,117.5c0-0.8,0.1-1.5,0.3-2s0.4-0.9,0.8-1.2c0.3-0.3,0.8-0.4,1.3-0.4c0.4,0,0.7,0.1,1,0.2
		s0.5,0.4,0.7,0.7s0.3,0.6,0.4,1.1s0.2,1,0.2,1.7c0,0.8-0.1,1.5-0.3,2s-0.4,0.9-0.8,1.2c-0.3,0.3-0.8,0.4-1.3,0.4
		c-0.7,0-1.2-0.2-1.6-0.7C250.6,119.8,250.4,118.9,250.4,117.5z M251.3,117.5c0,1.2,0.1,2,0.4,2.3c0.3,0.4,0.6,0.6,1,0.6
		s0.7-0.2,1-0.6s0.4-1.2,0.4-2.3c0-1.2-0.1-2-0.4-2.3c-0.3-0.4-0.6-0.6-1-0.6s-0.7,0.2-1,0.5C251.4,115.6,251.3,116.4,251.3,117.5z"
		/>
	<path class="st1" d="M255.9,117.5c0-0.8,0.1-1.5,0.3-2c0.2-0.5,0.4-0.9,0.8-1.2c0.3-0.3,0.8-0.4,1.3-0.4c0.4,0,0.7,0.1,1,0.2
		s0.5,0.4,0.7,0.7s0.3,0.6,0.4,1.1s0.2,1,0.2,1.7c0,0.8-0.1,1.5-0.3,2s-0.4,0.9-0.8,1.2c-0.3,0.3-0.8,0.4-1.3,0.4
		c-0.7,0-1.2-0.2-1.6-0.7C256.2,119.8,255.9,118.9,255.9,117.5z M256.8,117.5c0,1.2,0.1,2,0.4,2.3c0.3,0.4,0.6,0.6,1,0.6
		s0.7-0.2,1-0.6s0.4-1.2,0.4-2.3c0-1.2-0.1-2-0.4-2.3c-0.3-0.4-0.6-0.6-1-0.6s-0.7,0.2-1,0.5C257,115.6,256.8,116.4,256.8,117.5z"/>
</g>
<g>
	<path class="st1" d="M240.4,149.6l0.9-0.1c0.1,0.4,0.2,0.8,0.5,1c0.2,0.2,0.5,0.3,0.9,0.3s0.8-0.2,1.1-0.5s0.4-0.7,0.4-1.3
		c0-0.5-0.1-0.9-0.4-1.2c-0.3-0.3-0.7-0.4-1.1-0.4c-0.3,0-0.5,0.1-0.8,0.2s-0.4,0.3-0.5,0.5l-0.8-0.1l0.7-3.7h3.6v0.8H242l-0.4,1.9
		c0.4-0.3,0.9-0.4,1.4-0.4c0.6,0,1.2,0.2,1.6,0.6s0.6,1,0.6,1.7c0,0.6-0.2,1.2-0.6,1.7c-0.5,0.6-1.1,0.9-1.9,0.9
		c-0.7,0-1.2-0.2-1.6-0.5S240.5,150.2,240.4,149.6z"/>
	<path class="st1" d="M246,148c0-0.8,0.1-1.5,0.3-2s0.4-0.9,0.8-1.2c0.3-0.3,0.8-0.4,1.3-0.4c0.4,0,0.7,0.1,1,0.2s0.5,0.4,0.7,0.7
		s0.3,0.6,0.4,1.1s0.2,1,0.2,1.7c0,0.8-0.1,1.5-0.3,2s-0.4,0.9-0.8,1.2c-0.3,0.3-0.8,0.4-1.3,0.4c-0.7,0-1.2-0.2-1.6-0.7
		C246.2,150.3,246,149.3,246,148z M246.9,148c0,1.2,0.1,2,0.4,2.3c0.3,0.4,0.6,0.6,1,0.6s0.7-0.2,1-0.6c0.3-0.4,0.4-1.2,0.4-2.3
		c0-1.2-0.1-2-0.4-2.3c-0.3-0.4-0.6-0.6-1-0.6s-0.7,0.2-1,0.5C247,146,246.9,146.8,246.9,148z"/>
	<path class="st1" d="M252,151.5v-1h1v1c0,0.4-0.1,0.7-0.2,0.9s-0.3,0.4-0.6,0.5l-0.2-0.4c0.2-0.1,0.3-0.2,0.4-0.4s0.1-0.4,0.1-0.7
		L252,151.5L252,151.5z"/>
	<path class="st1" d="M254.3,148c0-0.8,0.1-1.5,0.3-2s0.4-0.9,0.8-1.2c0.3-0.3,0.8-0.4,1.3-0.4c0.4,0,0.7,0.1,1,0.2s0.5,0.4,0.7,0.7
		s0.3,0.6,0.4,1.1s0.2,1,0.2,1.7c0,0.8-0.1,1.5-0.3,2s-0.4,0.9-0.8,1.2c-0.3,0.3-0.8,0.4-1.3,0.4c-0.7,0-1.2-0.2-1.6-0.7
		C254.6,150.3,254.3,149.3,254.3,148z M255.2,148c0,1.2,0.1,2,0.4,2.3c0.3,0.4,0.6,0.6,1,0.6s0.7-0.2,1-0.6c0.3-0.4,0.4-1.2,0.4-2.3
		c0-1.2-0.1-2-0.4-2.3c-0.3-0.4-0.6-0.6-1-0.6s-0.7,0.2-1,0.5C255.4,146,255.2,146.8,255.2,148z"/>
	<path class="st1" d="M259.9,148c0-0.8,0.1-1.5,0.3-2c0.2-0.5,0.4-0.9,0.8-1.2c0.3-0.3,0.8-0.4,1.3-0.4c0.4,0,0.7,0.1,1,0.2
		s0.5,0.4,0.7,0.7s0.3,0.6,0.4,1.1s0.2,1,0.2,1.7c0,0.8-0.1,1.5-0.3,2s-0.4,0.9-0.8,1.2c-0.3,0.3-0.8,0.4-1.3,0.4
		c-0.7,0-1.2-0.2-1.6-0.7C260.1,150.3,259.9,149.3,259.9,148z M260.8,148c0,1.2,0.1,2,0.4,2.3c0.3,0.4,0.6,0.6,1,0.6s0.7-0.2,1-0.6
		c0.3-0.4,0.4-1.2,0.4-2.3c0-1.2-0.1-2-0.4-2.3c-0.3-0.4-0.6-0.6-1-0.6s-0.7,0.2-1,0.5C260.9,146,260.8,146.8,260.8,148z"/>
	<path class="st1" d="M265.4,148c0-0.8,0.1-1.5,0.3-2c0.2-0.5,0.4-0.9,0.8-1.2c0.3-0.3,0.8-0.4,1.3-0.4c0.4,0,0.7,0.1,1,0.2
		s0.5,0.4,0.7,0.7s0.3,0.6,0.4,1.1s0.2,1,0.2,1.7c0,0.8-0.1,1.5-0.3,2s-0.4,0.9-0.8,1.2c-0.3,0.3-0.8,0.4-1.3,0.4
		c-0.7,0-1.2-0.2-1.6-0.7C265.7,150.3,265.4,149.3,265.4,148z M266.3,148c0,1.2,0.1,2,0.4,2.3c0.3,0.4,0.6,0.6,1,0.6s0.7-0.2,1-0.6
		c0.3-0.4,0.4-1.2,0.4-2.3c0-1.2-0.1-2-0.4-2.3c-0.3-0.4-0.6-0.6-1-0.6s-0.7,0.2-1,0.5C266.5,146,266.3,146.8,266.3,148z"/>
</g>
<rect x="59" y="22.8" class="st2" width="138.5" height="9"/>
<rect x="59" y="53.1" class="st2" width="145.6" height="9"/>
<rect x="59" y="83.3" class="st2" width="156.4" height="9"/>
<rect x="59" y="113.6" class="st2" width="167.3" height="9"/>
<rect x="59" y="143.8" class="st2" width="177.6" height="9"/>
</svg>
