<?xml version="1.0" encoding="utf-8"?>
<!-- Generator: Adobe Illustrator 19.2.0, SVG Export Plug-In . SVG Version: 6.00 Build 0)  -->
<svg version="1.1" id="圖層_1" xmlns="http://www.w3.org/2000/svg" xmlns:xlink="http://www.w3.org/1999/xlink" x="0px" y="0px"
	 viewBox="0 0 406 192" style="enable-background:new 0 0 406 192;" xml:space="preserve">
<style type="text/css">
	.st0{fill:none;stroke:#D3D3D3;stroke-miterlimit:10;}
	.st1{fill:#8E8E8E;}
	.st2{fill:#FF9D00;}
</style>
<rect x="330.5" y="11.5" class="st0" width="46" height="30"/>
<rect x="285.5" y="11.5" class="st0" width="45" height="30"/>
<rect x="239.5" y="11.5" class="st0" width="46" height="30"/>
<rect x="193.5" y="11.5" class="st0" width="46" height="30"/>
<rect x="147.5" y="11.5" class="st0" width="46" height="30"/>
<rect x="102.5" y="11.5" class="st0" width="45" height="30"/>
<rect x="56.5" y="11.5" class="st0" width="46" height="30"/>
<rect x="330.5" y="41.5" class="st0" width="46" height="30"/>
<rect x="285.5" y="41.5" class="st0" width="45" height="30"/>
<rect x="239.5" y="41.5" class="st0" width="46" height="30"/>
<rect x="193.5" y="41.5" class="st0" width="46" height="30"/>
<rect x="147.5" y="41.5" class="st0" width="46" height="30"/>
<rect x="102.5" y="41.5" class="st0" width="45" height="30"/>
<rect x="56.5" y="41.5" class="st0" width="46" height="30"/>
<rect x="330.5" y="71.5" class="st0" width="46" height="31"/>
<rect x="285.5" y="71.5" class="st0" width="45" height="31"/>
<rect x="239.5" y="71.5" class="st0" width="46" height="31"/>
<rect x="193.5" y="71.5" class="st0" width="46" height="31"/>
<rect x="147.5" y="71.5" class="st0" width="46" height="31"/>
<rect x="102.5" y="71.5" class="st0" width="45" height="31"/>
<rect x="56.5" y="71.5" class="st0" width="46" height="31"/>
<rect x="330.5" y="102.5" class="st0" width="46" height="30"/>
<rect x="285.5" y="102.5" class="st0" width="45" height="30"/>
<rect x="239.5" y="102.5" class="st0" width="46" height="30"/>
<rect x="193.5" y="102.5" class="st0" width="46" height="30"/>
<rect x="147.5" y="102.5" class="st0" width="46" height="30"/>
<rect x="102.5" y="102.5" class="st0" width="45" height="30"/>
<rect x="56.5" y="102.5" class="st0" width="46" height="30"/>
<rect x="330.5" y="132.5" class="st0" width="46" height="30"/>
<rect x="285.5" y="132.5" class="st0" width="45" height="30"/>
<rect x="239.5" y="132.5" class="st0" width="46" height="30"/>
<rect x="193.5" y="132.5" class="st0" width="46" height="30"/>
<rect x="147.5" y="132.5" class="st0" width="46" height="30"/>
<rect x="102.5" y="132.5" class="st0" width="45" height="30"/>
<rect x="56.5" y="132.5" class="st0" width="46" height="30"/>
<line class="st0" x1="376.5" y1="162.8" x2="376.5" y2="166.2"/>
<line class="st0" x1="285.6" y1="162.8" x2="285.6" y2="166.2"/>
<line class="st0" x1="330.5" y1="162.8" x2="330.5" y2="166.2"/>
<line class="st0" x1="239.5" y1="162.8" x2="239.5" y2="166.2"/>
<line class="st0" x1="193.6" y1="162.8" x2="193.6" y2="166.2"/>
<line class="st0" x1="147.5" y1="162.8" x2="147.5" y2="166.2"/>
<line class="st0" x1="102.5" y1="162.7" x2="102.5" y2="166"/>
<line class="st0" x1="56.4" y1="162.8" x2="56.4" y2="166.2"/>
<line class="st0" x1="56.4" y1="11.5" x2="53" y2="11.5"/>
<line class="st0" x1="56.4" y1="41.7" x2="53" y2="41.7"/>
<line class="st0" x1="56.4" y1="71.4" x2="53" y2="71.4"/>
<line class="st0" x1="56.7" y1="102.4" x2="53.3" y2="102.4"/>
<line class="st0" x1="56.4" y1="132.3" x2="53" y2="132.3"/>
<line class="st0" x1="56.4" y1="162.6" x2="53" y2="162.6"/>
<g>
	<path d="M10.5,149.5h1.6v-5.9h-1.3v-0.4c0.6-0.1,1-0.3,1.4-0.5h0.5v6.8h1.5v0.5h-3.8v-0.5H10.5z"/>
	<path d="M15.5,146.3c0-2.5,0.8-3.7,2.1-3.7c1.3,0,2.1,1.2,2.1,3.7c0,2.6-0.8,3.8-2.1,3.8S15.5,148.9,15.5,146.3z M19.2,146.3
		c0-2.2-0.6-3.3-1.6-3.3s-1.6,1.1-1.6,3.3s0.6,3.3,1.6,3.3S19.2,148.5,19.2,146.3z"/>
	<path d="M29.8,148.3H26v2.4h-0.5v-2.4h-4.7v-0.5h1.7v-2.7h3v-1.7h-2.6c-0.5,0.8-1,1.5-1.6,2.1c-0.1-0.1-0.3-0.2-0.4-0.3
		c1-0.8,1.8-2.1,2.4-3.5l0.5,0.1c-0.2,0.4-0.3,0.8-0.5,1.2h6.2v0.5H26v1.7h3.1v0.5H26v2.3h3.7L29.8,148.3L29.8,148.3z M25.6,147.9
		v-2.3H23v2.3H25.6z"/>
	<path d="M35,147.9c-1.4,0.6-3,1.3-4.1,1.8l-0.2-0.5c0.4-0.2,0.9-0.4,1.4-0.6l-0.1-6.4h0.5l0.1,6.2c0.7-0.3,1.5-0.7,2.3-1L35,147.9z
		 M39.5,150.7c-0.5-0.7-1.6-1.9-2.5-2.8c-0.8,1.2-1.9,2.2-3.6,2.8c-0.1-0.1-0.3-0.3-0.4-0.4c3.6-1.3,4.6-3.7,5.1-8.2l0.5,0.1
		c-0.3,2.2-0.6,3.9-1.4,5.3c0.9,0.9,2.1,2.2,2.6,2.9L39.5,150.7z M35.6,145.6c-0.3-0.7-0.9-1.7-1.6-2.4l0.4-0.2
		c0.7,0.7,1.3,1.7,1.6,2.4L35.6,145.6z"/>
	<path d="M49.7,149.8v0.5h-8.8v-0.5h3.8v-7.9h0.5v3.2h3.9v0.5h-3.9v4.3h4.5V149.8z"/>
</g>
<g>
	<path d="M19.2,119.7l0.3-0.4c0.4,0.4,1,0.9,1.9,0.9s1.7-0.8,1.7-1.9c0-1.2-0.7-1.9-1.7-1.9c-0.5,0-0.9,0.2-1.3,0.5l-0.4-0.2
		l0.2-3.3h3.3v0.5h-2.8l-0.2,2.4c0.3-0.2,0.7-0.3,1.2-0.3c1.2,0,2.2,0.7,2.2,2.3c0,1.6-1.1,2.5-2.3,2.5
		C20.3,120.6,19.7,120.1,19.2,119.7z"/>
	<path d="M25.9,116.6c-0.3,0-0.6,0.2-0.9,0.7l-0.3-0.2c0.3-0.6,0.8-0.9,1.2-0.9c0.8,0,1.4,1,2,1c0.3,0,0.6-0.2,0.9-0.7l0.4,0.2
		c-0.3,0.6-0.8,0.9-1.2,0.9C27.1,117.6,26.6,116.6,25.9,116.6z"/>
	<path d="M30.5,120h1.6v-5.9h-1.3v-0.4c0.6-0.1,1-0.3,1.4-0.5h0.5v6.8h1.5v0.5h-3.8L30.5,120L30.5,120z"/>
	<path d="M35.5,116.8c0-2.5,0.8-3.7,2.1-3.7s2.1,1.2,2.1,3.7c0,2.6-0.8,3.8-2.1,3.8C36.3,120.6,35.5,119.4,35.5,116.8z M39.2,116.8
		c0-2.2-0.6-3.3-1.6-3.3s-1.6,1.1-1.6,3.3c0,2.2,0.6,3.3,1.6,3.3C38.6,120.1,39.2,119,39.2,116.8z"/>
	<path d="M49.8,118.8H46v2.4h-0.5v-2.4h-4.7v-0.5h1.7v-2.7h3v-1.7h-2.6c-0.5,0.8-1,1.5-1.6,2.1c-0.1-0.1-0.3-0.2-0.4-0.3
		c1-0.8,1.8-2.1,2.4-3.5l0.5,0.1c-0.2,0.4-0.3,0.8-0.5,1.2h6.2v0.5H46v1.7h3.1v0.5H46v2.3h3.7L49.8,118.8L49.8,118.8z M45.6,118.4
		v-2.3H43v2.3H45.6z"/>
</g>
<g>
	<path d="M24.6,87.6l0.3-0.4c0.4,0.4,1,0.9,1.9,0.9s1.6-0.6,1.6-1.6s-0.7-1.6-2.4-1.6v-0.5c1.6,0,2.2-0.7,2.2-1.6
		c0-0.8-0.5-1.3-1.4-1.3c-0.6,0-1.2,0.3-1.6,0.8l-0.3-0.4c0.5-0.5,1.1-0.8,1.9-0.9c1.1,0,2,0.6,2,1.8c0,0.9-0.6,1.5-1.3,1.8l0,0
		c0.9,0.2,1.6,0.8,1.6,1.9c0,1.3-1,2.1-2.2,2.1C25.7,88.6,25,88.1,24.6,87.6z"/>
	<path d="M31.3,84.6c-0.3,0-0.6,0.2-0.9,0.7l-0.3-0.2c0.3-0.6,0.8-0.9,1.2-0.9c0.8,0,1.4,1,2,1c0.3,0,0.6-0.2,0.9-0.7l0.4,0.2
		c-0.3,0.6-0.8,0.9-1.2,0.9C32.4,85.6,31.9,84.6,31.3,84.6z"/>
	<path d="M35.2,87.7l0.3-0.4c0.4,0.4,1,0.9,1.9,0.9s1.7-0.8,1.7-1.9c0-1.2-0.6-1.9-1.7-1.9c-0.5,0-0.9,0.2-1.3,0.5l-0.4-0.2l0.3-3.3
		h3.3v0.5h-2.8l-0.2,2.4c0.3-0.2,0.7-0.3,1.2-0.3c1.2,0,2.2,0.7,2.2,2.3c0,1.6-1.1,2.5-2.3,2.5C36.4,88.6,35.7,88.1,35.2,87.7z"/>
	<path d="M49.8,86.8H46v2.4h-0.5v-2.4h-4.7v-0.5h1.7v-2.7h3v-1.7h-2.6c-0.5,0.8-1,1.5-1.6,2.1c-0.1-0.1-0.3-0.2-0.4-0.3
		c1-0.8,1.8-2.1,2.4-3.5l0.5,0.1c-0.2,0.4-0.3,0.8-0.5,1.2h6.2V82H46v1.7h3.1v0.5H46v2.3h3.7L49.8,86.8L49.8,86.8z M45.6,86.4v-2.3
		H43v2.3H45.6z"/>
</g>
<g>
	<path d="M25.2,59h1.6v-5.9h-1.3v-0.4c0.6-0.1,1-0.3,1.4-0.5h0.5V59h1.5v0.5h-3.8L25.2,59L25.2,59z"/>
	<path d="M31.3,55.6c-0.3,0-0.6,0.2-0.9,0.7l-0.3-0.2c0.3-0.6,0.8-0.9,1.2-0.9c0.8,0,1.4,1,2,1c0.3,0,0.6-0.2,0.9-0.7l0.4,0.2
		c-0.3,0.6-0.8,0.9-1.2,0.9C32.4,56.6,31.9,55.6,31.3,55.6z"/>
	<path d="M35.3,58.6l0.3-0.4c0.4,0.4,1,0.9,1.9,0.9s1.6-0.6,1.6-1.6s-0.7-1.6-2.4-1.6v-0.5c1.6,0,2.2-0.7,2.2-1.6
		c0-0.8-0.5-1.3-1.4-1.3c-0.6,0-1.2,0.3-1.6,0.8l-0.3-0.4c0.5-0.5,1.1-0.8,1.9-0.9c1.1,0,2,0.6,2,1.8c0,0.9-0.6,1.5-1.3,1.8l0,0
		c0.9,0.2,1.6,0.8,1.6,1.9c0,1.3-1,2.1-2.2,2.1C36.4,59.6,35.7,59.1,35.3,58.6z"/>
	<path d="M49.8,57.8H46v2.4h-0.5v-2.4h-4.7v-0.5h1.7v-2.7h3v-1.7h-2.6c-0.5,0.8-1,1.5-1.6,2.1c-0.1-0.1-0.3-0.2-0.4-0.3
		c1-0.8,1.8-2.1,2.4-3.5l0.5,0.1c-0.2,0.4-0.3,0.8-0.5,1.2h6.2V53H46v1.7h3.1v0.5H46v2.3h3.7L49.8,57.8L49.8,57.8z M45.6,57.4v-2.3
		H43v2.3H45.6z"/>
</g>
<g>
	<path d="M19.8,24.8v0.5h-9v-0.5H19.8z"/>
	<path d="M29.8,27.3H26v2.4h-0.5v-2.4h-4.7v-0.5h1.7v-2.7h3v-1.7h-2.6c-0.5,0.8-1,1.5-1.6,2.1c-0.1-0.1-0.3-0.2-0.4-0.3
		c1-0.8,1.8-2.1,2.4-3.5l0.5,0.1c-0.2,0.4-0.3,0.8-0.5,1.2h6.2v0.5H26v1.7h3.1v0.5H26V27h3.7L29.8,27.3L29.8,27.3z M25.6,26.9v-2.3
		H23v2.3H25.6z"/>
	<path d="M35,26.9c-1.4,0.6-3,1.3-4.1,1.8l-0.2-0.5c0.4-0.2,0.9-0.4,1.4-0.6L32,21.2h0.5l0.1,6.2c0.7-0.3,1.5-0.7,2.3-1L35,26.9z
		 M39.5,29.7C39,29,38,27.8,37.1,26.9c-0.8,1.2-1.9,2.2-3.6,2.8c-0.1-0.1-0.3-0.3-0.4-0.4c3.6-1.3,4.6-3.7,5.1-8.2l0.5,0.1
		c-0.3,2.2-0.6,3.9-1.4,5.3c0.9,0.9,2.1,2.2,2.6,2.9L39.5,29.7z M35.6,24.6c-0.3-0.7-0.9-1.7-1.6-2.4l0.4-0.2
		c0.7,0.7,1.3,1.7,1.6,2.4L35.6,24.6z"/>
	<path d="M45.4,21.9v1.9l0.1-0.1c1.2,0.6,2.8,1.5,3.6,2.1l-0.3,0.4c-0.7-0.6-2.2-1.5-3.4-2.1v5.5h-0.5v-7.8h-4v-0.5h8.8v0.5h-4.3
		V21.9z"/>
</g>
<g>
	<path d="M55.4,177.3c0-0.8,0.1-1.5,0.3-2s0.4-0.9,0.8-1.2c0.3-0.3,0.8-0.4,1.3-0.4c0.4,0,0.7,0.1,1,0.2s0.5,0.4,0.7,0.7
		s0.3,0.6,0.4,1.1s0.2,1,0.2,1.7c0,0.8-0.1,1.5-0.3,2s-0.4,0.9-0.8,1.2c-0.3,0.3-0.8,0.4-1.3,0.4c-0.7,0-1.2-0.2-1.6-0.7
		C55.7,179.6,55.4,178.6,55.4,177.3z M56.3,177.3c0,1.2,0.1,2,0.4,2.3c0.3,0.4,0.6,0.6,1,0.6s0.7-0.2,1-0.6c0.3-0.4,0.4-1.2,0.4-2.3
		c0-1.2-0.1-2-0.4-2.3c-0.3-0.4-0.6-0.6-1-0.6s-0.7,0.2-1,0.5C56.5,175.3,56.3,176.1,56.3,177.3z"/>
</g>
<g>
	<path d="M93.2,180.8h-0.9v-5.6c-0.2,0.2-0.5,0.4-0.8,0.6c-0.3,0.2-0.7,0.4-0.9,0.5v-0.8c0.5-0.2,0.9-0.5,1.3-0.8s0.6-0.6,0.8-1h0.6
		L93.2,180.8L93.2,180.8z"/>
	<path d="M95.4,179l0.9-0.1c0.1,0.4,0.2,0.8,0.5,1s0.5,0.3,0.9,0.3s0.8-0.2,1.1-0.5s0.4-0.7,0.4-1.3c0-0.5-0.1-0.9-0.4-1.2
		s-0.7-0.4-1.1-0.4c-0.3,0-0.5,0.1-0.8,0.2c-0.2,0.1-0.4,0.3-0.5,0.5l-0.8-0.1l0.7-3.7h3.6v0.8H97l-0.4,1.9c0.4-0.3,0.9-0.4,1.4-0.4
		c0.6,0,1.2,0.2,1.6,0.6s0.6,1,0.6,1.7c0,0.6-0.2,1.2-0.6,1.7c-0.5,0.6-1.1,0.9-1.9,0.9c-0.7,0-1.2-0.2-1.6-0.5
		C95.7,180,95.5,179.6,95.4,179z"/>
	<path d="M101,177.3c0-0.8,0.1-1.5,0.3-2c0.2-0.5,0.4-0.9,0.8-1.2c0.3-0.3,0.8-0.4,1.3-0.4c0.4,0,0.7,0.1,1,0.2
		c0.3,0.2,0.5,0.4,0.7,0.7s0.3,0.6,0.4,1.1s0.2,1,0.2,1.7c0,0.8-0.1,1.5-0.3,2c-0.2,0.5-0.4,0.9-0.8,1.2c-0.3,0.3-0.8,0.4-1.3,0.4
		c-0.7,0-1.2-0.2-1.6-0.7C101.2,179.6,101,178.6,101,177.3z M101.9,177.3c0,1.2,0.1,2,0.4,2.3c0.3,0.4,0.6,0.6,1,0.6s0.7-0.2,1-0.6
		c0.3-0.4,0.4-1.2,0.4-2.3c0-1.2-0.1-2-0.4-2.3c-0.3-0.4-0.6-0.6-1-0.6s-0.7,0.2-1,0.5C102.1,175.3,101.9,176.1,101.9,177.3z"/>
	<path d="M106.6,177.3c0-0.8,0.1-1.5,0.3-2c0.2-0.5,0.4-0.9,0.8-1.2c0.3-0.3,0.8-0.4,1.3-0.4c0.4,0,0.7,0.1,1,0.2
		c0.3,0.2,0.5,0.4,0.7,0.7s0.3,0.6,0.4,1.1s0.2,1,0.2,1.7c0,0.8-0.1,1.5-0.3,2c-0.2,0.5-0.4,0.9-0.8,1.2c-0.3,0.3-0.8,0.4-1.3,0.4
		c-0.7,0-1.2-0.2-1.6-0.7C106.8,179.6,106.6,178.6,106.6,177.3z M107.5,177.3c0,1.2,0.1,2,0.4,2.3c0.3,0.4,0.6,0.6,1,0.6
		s0.7-0.2,1-0.6c0.3-0.4,0.4-1.2,0.4-2.3c0-1.2-0.1-2-0.4-2.3c-0.3-0.4-0.6-0.6-1-0.6s-0.7,0.2-1,0.5
		C107.6,175.3,107.5,176.1,107.5,177.3z"/>
	<path d="M112.1,177.3c0-0.8,0.1-1.5,0.3-2c0.2-0.5,0.4-0.9,0.8-1.2c0.3-0.3,0.8-0.4,1.3-0.4c0.4,0,0.7,0.1,1,0.2
		c0.3,0.2,0.5,0.4,0.7,0.7s0.3,0.6,0.4,1.1s0.2,1,0.2,1.7c0,0.8-0.1,1.5-0.3,2c-0.2,0.5-0.4,0.9-0.8,1.2c-0.3,0.3-0.8,0.4-1.3,0.4
		c-0.7,0-1.2-0.2-1.6-0.7C112.4,179.6,112.1,178.6,112.1,177.3z M113,177.3c0,1.2,0.1,2,0.4,2.3c0.3,0.4,0.6,0.6,1,0.6
		s0.7-0.2,1-0.6c0.3-0.4,0.4-1.2,0.4-2.3c0-1.2-0.1-2-0.4-2.3c-0.3-0.4-0.6-0.6-1-0.6s-0.7,0.2-1,0.5
		C113.2,175.3,113,176.1,113,177.3z"/>
</g>
<g>
	<path d="M135.7,178.9l0.9-0.1c0.1,0.5,0.3,0.9,0.5,1.1c0.2,0.2,0.5,0.3,0.9,0.3s0.8-0.1,1-0.4c0.3-0.3,0.4-0.6,0.4-1.1
		c0-0.4-0.1-0.7-0.4-1s-0.6-0.4-1-0.4c-0.2,0-0.4,0-0.6,0.1l0.1-0.8c0.1,0,0.1,0,0.1,0c0.4,0,0.7-0.1,1-0.3s0.4-0.5,0.4-0.9
		c0-0.3-0.1-0.6-0.3-0.8s-0.5-0.3-0.8-0.3s-0.6,0.1-0.9,0.3c-0.2,0.2-0.4,0.5-0.4,1l-0.9-0.2c0.1-0.6,0.4-1,0.7-1.4s0.9-0.5,1.4-0.5
		c0.4,0,0.8,0.1,1.1,0.3s0.6,0.4,0.8,0.7s0.3,0.6,0.3,0.9c0,0.3-0.1,0.6-0.2,0.8s-0.4,0.5-0.7,0.6c0.4,0.1,0.8,0.3,1,0.6
		s0.4,0.7,0.4,1.2c0,0.6-0.2,1.2-0.7,1.6c-0.5,0.4-1,0.7-1.7,0.7c-0.6,0-1.2-0.2-1.6-0.6S135.8,179.5,135.7,178.9z"/>
	<path d="M141.3,177.3c0-0.8,0.1-1.5,0.3-2s0.4-0.9,0.8-1.2c0.3-0.3,0.8-0.4,1.3-0.4c0.4,0,0.7,0.1,1,0.2c0.3,0.2,0.5,0.4,0.7,0.7
		s0.3,0.6,0.4,1.1s0.2,1,0.2,1.7c0,0.8-0.1,1.5-0.3,2s-0.4,0.9-0.8,1.2c-0.3,0.3-0.8,0.4-1.3,0.4c-0.7,0-1.2-0.2-1.6-0.7
		C141.5,179.6,141.3,178.6,141.3,177.3z M142.2,177.3c0,1.2,0.1,2,0.4,2.3c0.3,0.4,0.6,0.6,1,0.6s0.7-0.2,1-0.6
		c0.3-0.4,0.4-1.2,0.4-2.3c0-1.2-0.1-2-0.4-2.3c-0.3-0.4-0.6-0.6-1-0.6s-0.7,0.2-1,0.5C142.4,175.3,142.2,176.1,142.2,177.3z"/>
	<path d="M146.9,177.3c0-0.8,0.1-1.5,0.3-2s0.4-0.9,0.8-1.2c0.3-0.3,0.8-0.4,1.3-0.4c0.4,0,0.7,0.1,1,0.2c0.3,0.2,0.5,0.4,0.7,0.7
		s0.3,0.6,0.4,1.1s0.2,1,0.2,1.7c0,0.8-0.1,1.5-0.3,2s-0.4,0.9-0.8,1.2c-0.3,0.3-0.8,0.4-1.3,0.4c-0.7,0-1.2-0.2-1.6-0.7
		C147.1,179.6,146.9,178.6,146.9,177.3z M147.8,177.3c0,1.2,0.1,2,0.4,2.3c0.3,0.4,0.6,0.6,1,0.6s0.7-0.2,1-0.6
		c0.3-0.4,0.4-1.2,0.4-2.3c0-1.2-0.1-2-0.4-2.3c-0.3-0.4-0.6-0.6-1-0.6s-0.7,0.2-1,0.5C147.9,175.3,147.8,176.1,147.8,177.3z"/>
	<path d="M152.4,177.3c0-0.8,0.1-1.5,0.3-2s0.4-0.9,0.8-1.2c0.3-0.3,0.8-0.4,1.3-0.4c0.4,0,0.7,0.1,1,0.2c0.3,0.2,0.5,0.4,0.7,0.7
		s0.3,0.6,0.4,1.1s0.2,1,0.2,1.7c0,0.8-0.1,1.5-0.3,2s-0.4,0.9-0.8,1.2c-0.3,0.3-0.8,0.4-1.3,0.4c-0.7,0-1.2-0.2-1.6-0.7
		C152.7,179.6,152.4,178.6,152.4,177.3z M153.3,177.3c0,1.2,0.1,2,0.4,2.3c0.3,0.4,0.6,0.6,1,0.6s0.7-0.2,1-0.6
		c0.3-0.4,0.4-1.2,0.4-2.3c0-1.2-0.1-2-0.4-2.3c-0.3-0.4-0.6-0.6-1-0.6s-0.7,0.2-1,0.5C153.5,175.3,153.3,176.1,153.3,177.3z"/>
	<path d="M158,177.3c0-0.8,0.1-1.5,0.3-2s0.4-0.9,0.8-1.2c0.3-0.3,0.8-0.4,1.3-0.4c0.4,0,0.7,0.1,1,0.2c0.3,0.2,0.5,0.4,0.7,0.7
		s0.3,0.6,0.4,1.1s0.2,1,0.2,1.7c0,0.8-0.1,1.5-0.3,2s-0.4,0.9-0.8,1.2c-0.3,0.3-0.8,0.4-1.3,0.4c-0.7,0-1.2-0.2-1.6-0.7
		C158.2,179.6,158,178.6,158,177.3z M158.9,177.3c0,1.2,0.1,2,0.4,2.3c0.3,0.4,0.6,0.6,1,0.6s0.7-0.2,1-0.6c0.3-0.4,0.4-1.2,0.4-2.3
		c0-1.2-0.1-2-0.4-2.3c-0.3-0.4-0.6-0.6-1-0.6s-0.7,0.2-1,0.5C159,175.3,158.9,176.1,158.9,177.3z"/>
</g>
<g>
	<path d="M184.4,180.8v-1.7h-3.1v-0.8l3.3-4.6h0.7v4.6h1v0.8h-1v1.7H184.4z M184.4,178.3v-3.2l-2.2,3.2H184.4z"/>
	<path d="M187.2,179l0.9-0.1c0.1,0.4,0.2,0.8,0.5,1s0.5,0.3,0.9,0.3s0.8-0.2,1.1-0.5s0.4-0.7,0.4-1.3c0-0.5-0.1-0.9-0.4-1.2
		c-0.3-0.3-0.7-0.4-1.1-0.4c-0.3,0-0.5,0.1-0.8,0.2c-0.2,0.1-0.4,0.3-0.5,0.5l-0.8-0.1l0.7-3.7h3.6v0.8h-2.9l-0.4,1.9
		c0.4-0.3,0.9-0.4,1.4-0.4c0.6,0,1.2,0.2,1.6,0.6s0.6,1,0.6,1.7c0,0.6-0.2,1.2-0.6,1.7c-0.5,0.6-1.1,0.9-1.9,0.9
		c-0.7,0-1.2-0.2-1.6-0.5C187.4,180,187.2,179.6,187.2,179z"/>
	<path d="M192.7,177.3c0-0.8,0.1-1.5,0.3-2s0.4-0.9,0.8-1.2c0.3-0.3,0.8-0.4,1.3-0.4c0.4,0,0.7,0.1,1,0.2c0.3,0.2,0.5,0.4,0.7,0.7
		s0.3,0.6,0.4,1.1s0.2,1,0.2,1.7c0,0.8-0.1,1.5-0.3,2s-0.4,0.9-0.8,1.2c-0.3,0.3-0.8,0.4-1.3,0.4c-0.7,0-1.2-0.2-1.6-0.7
		C193,179.6,192.7,178.6,192.7,177.3z M193.6,177.3c0,1.2,0.1,2,0.4,2.3c0.3,0.4,0.6,0.6,1,0.6s0.7-0.2,1-0.6
		c0.3-0.4,0.4-1.2,0.4-2.3c0-1.2-0.1-2-0.4-2.3c-0.3-0.4-0.6-0.6-1-0.6s-0.7,0.2-1,0.5C193.8,175.3,193.6,176.1,193.6,177.3z"/>
	<path d="M198.3,177.3c0-0.8,0.1-1.5,0.3-2s0.4-0.9,0.8-1.2c0.3-0.3,0.8-0.4,1.3-0.4c0.4,0,0.7,0.1,1,0.2c0.3,0.2,0.5,0.4,0.7,0.7
		s0.3,0.6,0.4,1.1s0.2,1,0.2,1.7c0,0.8-0.1,1.5-0.3,2s-0.4,0.9-0.8,1.2c-0.3,0.3-0.8,0.4-1.3,0.4c-0.7,0-1.2-0.2-1.6-0.7
		C198.5,179.6,198.3,178.6,198.3,177.3z M199.2,177.3c0,1.2,0.1,2,0.4,2.3c0.3,0.4,0.6,0.6,1,0.6s0.7-0.2,1-0.6
		c0.3-0.4,0.4-1.2,0.4-2.3c0-1.2-0.1-2-0.4-2.3c-0.3-0.4-0.6-0.6-1-0.6s-0.7,0.2-1,0.5C199.3,175.3,199.2,176.1,199.2,177.3z"/>
	<path d="M203.8,177.3c0-0.8,0.1-1.5,0.3-2s0.4-0.9,0.8-1.2c0.3-0.3,0.8-0.4,1.3-0.4c0.4,0,0.7,0.1,1,0.2c0.3,0.2,0.5,0.4,0.7,0.7
		s0.3,0.6,0.4,1.1s0.2,1,0.2,1.7c0,0.8-0.1,1.5-0.3,2s-0.4,0.9-0.8,1.2c-0.3,0.3-0.8,0.4-1.3,0.4c-0.7,0-1.2-0.2-1.6-0.7
		C204.1,179.6,203.8,178.6,203.8,177.3z M204.7,177.3c0,1.2,0.1,2,0.4,2.3c0.3,0.4,0.6,0.6,1,0.6s0.7-0.2,1-0.6
		c0.3-0.4,0.4-1.2,0.4-2.3c0-1.2-0.1-2-0.4-2.3c-0.3-0.4-0.6-0.6-1-0.6s-0.7,0.2-1,0.5C204.9,175.3,204.7,176.1,204.7,177.3z"/>
</g>
<g>
	<path d="M232,175.4l-0.9,0.1c-0.1-0.3-0.2-0.6-0.3-0.8c-0.2-0.3-0.5-0.4-0.9-0.4c-0.3,0-0.5,0.1-0.7,0.2c-0.3,0.2-0.5,0.5-0.7,0.9
		s-0.2,0.9-0.2,1.7c0.2-0.3,0.5-0.6,0.8-0.7c0.3-0.2,0.6-0.2,1-0.2c0.6,0,1.1,0.2,1.5,0.6c0.4,0.4,0.6,1,0.6,1.7
		c0,0.4-0.1,0.9-0.3,1.3c-0.2,0.4-0.5,0.7-0.8,0.9s-0.7,0.3-1.2,0.3c-0.7,0-1.3-0.3-1.8-0.8s-0.7-1.4-0.7-2.7c0-1.4,0.3-2.4,0.8-3
		c0.4-0.5,1-0.8,1.8-0.8c0.6,0,1,0.2,1.4,0.5C231.7,174.4,231.9,174.9,232,175.4z M228.4,178.5c0,0.3,0.1,0.6,0.2,0.9
		c0.1,0.3,0.3,0.5,0.5,0.6s0.5,0.2,0.7,0.2c0.4,0,0.7-0.1,1-0.4c0.3-0.3,0.4-0.7,0.4-1.2s-0.1-0.9-0.4-1.2s-0.6-0.4-1-0.4
		s-0.7,0.1-1,0.4C228.6,177.7,228.4,178.1,228.4,178.5z"/>
	<path d="M233,177.3c0-0.8,0.1-1.5,0.3-2s0.4-0.9,0.8-1.2c0.3-0.3,0.8-0.4,1.3-0.4c0.4,0,0.7,0.1,1,0.2c0.3,0.2,0.5,0.4,0.7,0.7
		s0.3,0.6,0.4,1.1s0.2,1,0.2,1.7c0,0.8-0.1,1.5-0.3,2s-0.4,0.9-0.8,1.2c-0.3,0.3-0.8,0.4-1.3,0.4c-0.7,0-1.2-0.2-1.6-0.7
		C233.2,179.6,233,178.6,233,177.3z M233.9,177.3c0,1.2,0.1,2,0.4,2.3c0.3,0.4,0.6,0.6,1,0.6s0.7-0.2,1-0.6c0.3-0.4,0.4-1.2,0.4-2.3
		c0-1.2-0.1-2-0.4-2.3c-0.3-0.4-0.6-0.6-1-0.6s-0.7,0.2-1,0.5C234.1,175.3,233.9,176.1,233.9,177.3z"/>
	<path d="M238.6,177.3c0-0.8,0.1-1.5,0.3-2s0.4-0.9,0.8-1.2c0.3-0.3,0.8-0.4,1.3-0.4c0.4,0,0.7,0.1,1,0.2c0.3,0.2,0.5,0.4,0.7,0.7
		s0.3,0.6,0.4,1.1s0.2,1,0.2,1.7c0,0.8-0.1,1.5-0.3,2s-0.4,0.9-0.8,1.2c-0.3,0.3-0.8,0.4-1.3,0.4c-0.7,0-1.2-0.2-1.6-0.7
		C238.8,179.6,238.6,178.6,238.6,177.3z M239.5,177.3c0,1.2,0.1,2,0.4,2.3c0.3,0.4,0.6,0.6,1,0.6s0.7-0.2,1-0.6
		c0.3-0.4,0.4-1.2,0.4-2.3c0-1.2-0.1-2-0.4-2.3c-0.3-0.4-0.6-0.6-1-0.6s-0.7,0.2-1,0.5C239.6,175.3,239.5,176.1,239.5,177.3z"/>
	<path d="M244.1,177.3c0-0.8,0.1-1.5,0.3-2s0.4-0.9,0.8-1.2c0.3-0.3,0.8-0.4,1.3-0.4c0.4,0,0.7,0.1,1,0.2c0.3,0.2,0.5,0.4,0.7,0.7
		s0.3,0.6,0.4,1.1s0.2,1,0.2,1.7c0,0.8-0.1,1.5-0.3,2s-0.4,0.9-0.8,1.2c-0.3,0.3-0.8,0.4-1.3,0.4c-0.7,0-1.2-0.2-1.6-0.7
		C244.4,179.6,244.1,178.6,244.1,177.3z M245,177.3c0,1.2,0.1,2,0.4,2.3c0.3,0.4,0.6,0.6,1,0.6s0.7-0.2,1-0.6
		c0.3-0.4,0.4-1.2,0.4-2.3c0-1.2-0.1-2-0.4-2.3c-0.3-0.4-0.6-0.6-1-0.6s-0.7,0.2-1,0.5C245.2,175.3,245,176.1,245,177.3z"/>
	<path d="M249.7,177.3c0-0.8,0.1-1.5,0.3-2s0.4-0.9,0.8-1.2c0.3-0.3,0.8-0.4,1.3-0.4c0.4,0,0.7,0.1,1,0.2c0.3,0.2,0.5,0.4,0.7,0.7
		s0.3,0.6,0.4,1.1s0.2,1,0.2,1.7c0,0.8-0.1,1.5-0.3,2s-0.4,0.9-0.8,1.2c-0.3,0.3-0.8,0.4-1.3,0.4c-0.7,0-1.2-0.2-1.6-0.7
		C249.9,179.6,249.7,178.6,249.7,177.3z M250.6,177.3c0,1.2,0.1,2,0.4,2.3c0.3,0.4,0.6,0.6,1,0.6s0.7-0.2,1-0.6
		c0.3-0.4,0.4-1.2,0.4-2.3c0-1.2-0.1-2-0.4-2.3c-0.3-0.4-0.6-0.6-1-0.6s-0.7,0.2-1,0.5C250.7,175.3,250.6,176.1,250.6,177.3z"/>
</g>
<g>
	<path d="M273.4,174.6v-0.8h4.6v0.7c-0.5,0.5-0.9,1.1-1.4,1.9c-0.4,0.8-0.8,1.6-1,2.5c-0.2,0.6-0.3,1.3-0.3,2h-0.9
		c0-0.6,0.1-1.2,0.3-2c0.2-0.8,0.5-1.6,0.9-2.3s0.8-1.4,1.3-1.9L273.4,174.6L273.4,174.6z"/>
	<path d="M278.9,179l0.9-0.1c0.1,0.4,0.2,0.8,0.5,1s0.5,0.3,0.9,0.3s0.8-0.2,1.1-0.5s0.4-0.7,0.4-1.3c0-0.5-0.1-0.9-0.4-1.2
		s-0.7-0.4-1.1-0.4c-0.3,0-0.5,0.1-0.8,0.2c-0.2,0.1-0.4,0.3-0.5,0.5l-0.8-0.1l0.7-3.7h3.6v0.8h-2.9l-0.4,1.9
		c0.4-0.3,0.9-0.4,1.4-0.4c0.6,0,1.2,0.2,1.6,0.6s0.6,1,0.6,1.7c0,0.6-0.2,1.2-0.6,1.7c-0.5,0.6-1.1,0.9-1.9,0.9
		c-0.7,0-1.2-0.2-1.6-0.5C279.2,180,278.9,179.6,278.9,179z"/>
	<path d="M284.4,177.3c0-0.8,0.1-1.5,0.3-2c0.2-0.5,0.4-0.9,0.8-1.2c0.3-0.3,0.8-0.4,1.3-0.4c0.4,0,0.7,0.1,1,0.2
		c0.3,0.2,0.5,0.4,0.7,0.7s0.3,0.6,0.4,1.1s0.2,1,0.2,1.7c0,0.8-0.1,1.5-0.3,2c-0.2,0.5-0.4,0.9-0.8,1.2c-0.3,0.3-0.8,0.4-1.3,0.4
		c-0.7,0-1.2-0.2-1.6-0.7C284.7,179.6,284.4,178.6,284.4,177.3z M285.3,177.3c0,1.2,0.1,2,0.4,2.3c0.3,0.4,0.6,0.6,1,0.6
		s0.7-0.2,1-0.6c0.3-0.4,0.4-1.2,0.4-2.3c0-1.2-0.1-2-0.4-2.3c-0.3-0.4-0.6-0.6-1-0.6s-0.7,0.2-1,0.5
		C285.5,175.3,285.3,176.1,285.3,177.3z"/>
	<path d="M290,177.3c0-0.8,0.1-1.5,0.3-2c0.2-0.5,0.4-0.9,0.8-1.2c0.3-0.3,0.8-0.4,1.3-0.4c0.4,0,0.7,0.1,1,0.2
		c0.3,0.2,0.5,0.4,0.7,0.7s0.3,0.6,0.4,1.1s0.2,1,0.2,1.7c0,0.8-0.1,1.5-0.3,2c-0.2,0.5-0.4,0.9-0.8,1.2c-0.3,0.3-0.8,0.4-1.3,0.4
		c-0.7,0-1.2-0.2-1.6-0.7C290.2,179.6,290,178.6,290,177.3z M290.9,177.3c0,1.2,0.1,2,0.4,2.3c0.3,0.4,0.6,0.6,1,0.6s0.7-0.2,1-0.6
		c0.3-0.4,0.4-1.2,0.4-2.3c0-1.2-0.1-2-0.4-2.3c-0.3-0.4-0.6-0.6-1-0.6s-0.7,0.2-1,0.5C291,175.3,290.9,176.1,290.9,177.3z"/>
	<path d="M295.5,177.3c0-0.8,0.1-1.5,0.3-2c0.2-0.5,0.4-0.9,0.8-1.2c0.3-0.3,0.8-0.4,1.3-0.4c0.4,0,0.7,0.1,1,0.2
		c0.3,0.2,0.5,0.4,0.7,0.7s0.3,0.6,0.4,1.1s0.2,1,0.2,1.7c0,0.8-0.1,1.5-0.3,2c-0.2,0.5-0.4,0.9-0.8,1.2c-0.3,0.3-0.8,0.4-1.3,0.4
		c-0.7,0-1.2-0.2-1.6-0.7C295.8,179.6,295.5,178.6,295.5,177.3z M296.5,177.3c0,1.2,0.1,2,0.4,2.3c0.3,0.4,0.6,0.6,1,0.6
		s0.7-0.2,1-0.6c0.3-0.4,0.4-1.2,0.4-2.3c0-1.2-0.1-2-0.4-2.3c-0.3-0.4-0.6-0.6-1-0.6s-0.7,0.2-1,0.5
		C296.6,175.3,296.5,176.1,296.5,177.3z"/>
</g>
<g>
	<path d="M319.3,179.2l0.8-0.1c0.1,0.4,0.2,0.7,0.4,0.9c0.2,0.2,0.5,0.3,0.8,0.3s0.5-0.1,0.7-0.2c0.2-0.1,0.4-0.3,0.5-0.5
		s0.2-0.5,0.3-0.8s0.1-0.7,0.1-1.1c0,0,0-0.1,0-0.2c-0.2,0.3-0.4,0.5-0.7,0.7c-0.3,0.2-0.6,0.3-1,0.3c-0.6,0-1.1-0.2-1.5-0.6
		s-0.6-1-0.6-1.7s0.2-1.3,0.6-1.8c0.4-0.4,1-0.7,1.6-0.7c0.5,0,0.9,0.1,1.3,0.4s0.7,0.6,0.9,1.1s0.3,1.1,0.3,2s-0.1,1.6-0.3,2.2
		c-0.2,0.5-0.5,1-0.9,1.2c-0.4,0.3-0.9,0.4-1.4,0.4c-0.6,0-1-0.2-1.4-0.5C319.6,180.2,319.4,179.7,319.3,179.2z M322.9,176
		c0-0.5-0.1-0.9-0.4-1.2s-0.6-0.4-1-0.4s-0.7,0.2-1,0.5s-0.4,0.7-0.4,1.2s0.1,0.8,0.4,1.1s0.6,0.4,1,0.4s0.7-0.1,1-0.4
		C322.8,176.9,322.9,176.5,322.9,176z"/>
	<path d="M324.7,177.3c0-0.8,0.1-1.5,0.3-2c0.2-0.5,0.4-0.9,0.8-1.2c0.3-0.3,0.8-0.4,1.3-0.4c0.4,0,0.7,0.1,1,0.2
		c0.3,0.2,0.5,0.4,0.7,0.7s0.3,0.6,0.4,1.1s0.2,1,0.2,1.7c0,0.8-0.1,1.5-0.3,2c-0.2,0.5-0.4,0.9-0.8,1.2c-0.3,0.3-0.8,0.4-1.3,0.4
		c-0.7,0-1.2-0.2-1.6-0.7C325,179.6,324.7,178.6,324.7,177.3z M325.6,177.3c0,1.2,0.1,2,0.4,2.3c0.3,0.4,0.6,0.6,1,0.6
		s0.7-0.2,1-0.6c0.3-0.4,0.4-1.2,0.4-2.3c0-1.2-0.1-2-0.4-2.3c-0.3-0.4-0.6-0.6-1-0.6s-0.7,0.2-1,0.5
		C325.8,175.3,325.6,176.1,325.6,177.3z"/>
	<path d="M330.3,177.3c0-0.8,0.1-1.5,0.3-2c0.2-0.5,0.4-0.9,0.8-1.2c0.3-0.3,0.8-0.4,1.3-0.4c0.4,0,0.7,0.1,1,0.2
		c0.3,0.2,0.5,0.4,0.7,0.7s0.3,0.6,0.4,1.1s0.2,1,0.2,1.7c0,0.8-0.1,1.5-0.3,2c-0.2,0.5-0.4,0.9-0.8,1.2c-0.3,0.3-0.8,0.4-1.3,0.4
		c-0.7,0-1.2-0.2-1.6-0.7C330.5,179.6,330.3,178.6,330.3,177.3z M331.2,177.3c0,1.2,0.1,2,0.4,2.3c0.3,0.4,0.6,0.6,1,0.6
		s0.7-0.2,1-0.6c0.3-0.4,0.4-1.2,0.4-2.3c0-1.2-0.1-2-0.4-2.3c-0.3-0.4-0.6-0.6-1-0.6s-0.7,0.2-1,0.5
		C331.3,175.3,331.2,176.1,331.2,177.3z"/>
	<path d="M335.8,177.3c0-0.8,0.1-1.5,0.3-2c0.2-0.5,0.4-0.9,0.8-1.2c0.3-0.3,0.8-0.4,1.3-0.4c0.4,0,0.7,0.1,1,0.2
		c0.3,0.2,0.5,0.4,0.7,0.7s0.3,0.6,0.4,1.1s0.2,1,0.2,1.7c0,0.8-0.1,1.5-0.3,2c-0.2,0.5-0.4,0.9-0.8,1.2c-0.3,0.3-0.8,0.4-1.3,0.4
		c-0.7,0-1.2-0.2-1.6-0.7C336.1,179.6,335.8,178.6,335.8,177.3z M336.7,177.3c0,1.2,0.1,2,0.4,2.3c0.3,0.4,0.6,0.6,1,0.6
		s0.7-0.2,1-0.6c0.3-0.4,0.4-1.2,0.4-2.3c0-1.2-0.1-2-0.4-2.3c-0.3-0.4-0.6-0.6-1-0.6s-0.7,0.2-1,0.5
		C336.9,175.3,336.7,176.1,336.7,177.3z"/>
	<path d="M341.4,177.3c0-0.8,0.1-1.5,0.3-2c0.2-0.5,0.4-0.9,0.8-1.2c0.3-0.3,0.8-0.4,1.3-0.4c0.4,0,0.7,0.1,1,0.2
		c0.3,0.2,0.5,0.4,0.7,0.7s0.3,0.6,0.4,1.1s0.2,1,0.2,1.7c0,0.8-0.1,1.5-0.3,2c-0.2,0.5-0.4,0.9-0.8,1.2c-0.3,0.3-0.8,0.4-1.3,0.4
		c-0.7,0-1.2-0.2-1.6-0.7C341.6,179.6,341.4,178.6,341.4,177.3z M342.3,177.3c0,1.2,0.1,2,0.4,2.3c0.3,0.4,0.6,0.6,1,0.6
		s0.7-0.2,1-0.6c0.3-0.4,0.4-1.2,0.4-2.3c0-1.2-0.1-2-0.4-2.3c-0.3-0.4-0.6-0.6-1-0.6s-0.7,0.2-1,0.5
		C342.5,175.3,342.3,176.1,342.3,177.3z"/>
</g>
<g>
	<path d="M365.5,180.8h-0.9v-5.6c-0.2,0.2-0.5,0.4-0.8,0.6c-0.3,0.2-0.7,0.4-0.9,0.5v-0.8c0.5-0.2,0.9-0.5,1.3-0.8s0.6-0.6,0.8-1
		h0.6v7.1H365.5z"/>
	<path d="M367.8,177.3c0-0.8,0.1-1.5,0.3-2c0.2-0.5,0.4-0.9,0.8-1.2c0.3-0.3,0.8-0.4,1.3-0.4c0.4,0,0.7,0.1,1,0.2s0.5,0.4,0.7,0.7
		s0.3,0.6,0.4,1.1s0.2,1,0.2,1.7c0,0.8-0.1,1.5-0.3,2s-0.4,0.9-0.8,1.2c-0.3,0.3-0.8,0.4-1.3,0.4c-0.7,0-1.2-0.2-1.6-0.7
		C368,179.6,367.8,178.6,367.8,177.3z M368.7,177.3c0,1.2,0.1,2,0.4,2.3c0.3,0.4,0.6,0.6,1,0.6s0.7-0.2,1-0.6
		c0.3-0.4,0.4-1.2,0.4-2.3c0-1.2-0.1-2-0.4-2.3c-0.3-0.4-0.6-0.6-1-0.6s-0.7,0.2-1,0.5C368.8,175.3,368.7,176.1,368.7,177.3z"/>
	<path d="M373.4,179l0.9-0.1c0.1,0.4,0.2,0.8,0.5,1s0.5,0.3,0.9,0.3s0.8-0.2,1.1-0.5s0.4-0.7,0.4-1.3c0-0.5-0.1-0.9-0.4-1.2
		s-0.7-0.4-1.1-0.4c-0.3,0-0.5,0.1-0.8,0.2s-0.4,0.3-0.5,0.5l-0.8-0.1l0.7-3.7h3.6v0.8H375l-0.4,1.9c0.4-0.3,0.9-0.4,1.4-0.4
		c0.6,0,1.2,0.2,1.6,0.6s0.6,1,0.6,1.7c0,0.6-0.2,1.2-0.6,1.7c-0.5,0.6-1.1,0.9-1.9,0.9c-0.7,0-1.2-0.2-1.6-0.5
		C373.6,180,373.4,179.6,373.4,179z"/>
	<path d="M378.9,177.3c0-0.8,0.1-1.5,0.3-2c0.2-0.5,0.4-0.9,0.8-1.2c0.3-0.3,0.8-0.4,1.3-0.4c0.4,0,0.7,0.1,1,0.2s0.5,0.4,0.7,0.7
		s0.3,0.6,0.4,1.1s0.2,1,0.2,1.7c0,0.8-0.1,1.5-0.3,2s-0.4,0.9-0.8,1.2c-0.3,0.3-0.8,0.4-1.3,0.4c-0.7,0-1.2-0.2-1.6-0.7
		C379.2,179.6,378.9,178.6,378.9,177.3z M379.8,177.3c0,1.2,0.1,2,0.4,2.3c0.3,0.4,0.6,0.6,1,0.6s0.7-0.2,1-0.6
		c0.3-0.4,0.4-1.2,0.4-2.3c0-1.2-0.1-2-0.4-2.3c-0.3-0.4-0.6-0.6-1-0.6s-0.7,0.2-1,0.5C380,175.3,379.8,176.1,379.8,177.3z"/>
	<path d="M384.5,177.3c0-0.8,0.1-1.5,0.3-2c0.2-0.5,0.4-0.9,0.8-1.2c0.3-0.3,0.8-0.4,1.3-0.4c0.4,0,0.7,0.1,1,0.2s0.5,0.4,0.7,0.7
		s0.3,0.6,0.4,1.1s0.2,1,0.2,1.7c0,0.8-0.1,1.5-0.3,2s-0.4,0.9-0.8,1.2c-0.3,0.3-0.8,0.4-1.3,0.4c-0.7,0-1.2-0.2-1.6-0.7
		C384.7,179.6,384.5,178.6,384.5,177.3z M385.4,177.3c0,1.2,0.1,2,0.4,2.3c0.3,0.4,0.6,0.6,1,0.6s0.7-0.2,1-0.6
		c0.3-0.4,0.4-1.2,0.4-2.3c0-1.2-0.1-2-0.4-2.3c-0.3-0.4-0.6-0.6-1-0.6s-0.7,0.2-1,0.5C385.5,175.3,385.4,176.1,385.4,177.3z"/>
	<path d="M390,177.3c0-0.8,0.1-1.5,0.3-2c0.2-0.5,0.4-0.9,0.8-1.2c0.3-0.3,0.8-0.4,1.3-0.4c0.4,0,0.7,0.1,1,0.2s0.5,0.4,0.7,0.7
		s0.3,0.6,0.4,1.1s0.2,1,0.2,1.7c0,0.8-0.1,1.5-0.3,2s-0.4,0.9-0.8,1.2c-0.3,0.3-0.8,0.4-1.3,0.4c-0.7,0-1.2-0.2-1.6-0.7
		C390.3,179.6,390,178.6,390,177.3z M390.9,177.3c0,1.2,0.1,2,0.4,2.3c0.3,0.4,0.6,0.6,1,0.6s0.7-0.2,1-0.6c0.3-0.4,0.4-1.2,0.4-2.3
		c0-1.2-0.1-2-0.4-2.3c-0.3-0.4-0.6-0.6-1-0.6s-0.7,0.2-1,0.5C391.1,175.3,390.9,176.1,390.9,177.3z"/>
</g>
<g>
	<path class="st1" d="M211.2,28.8V27h-3.1v-0.8l3.3-4.6h0.7v4.6h1V27h-1v1.7L211.2,28.8L211.2,28.8z M211.2,26.2V23l-2.2,3.2H211.2z
		"/>
	<path class="st1" d="M215.3,24.9c-0.4-0.1-0.6-0.3-0.8-0.6s-0.3-0.5-0.3-0.9c0-0.5,0.2-1,0.6-1.3s0.9-0.5,1.5-0.5s1.1,0.2,1.5,0.5
		s0.6,0.8,0.6,1.3c0,0.3-0.1,0.6-0.3,0.9c-0.2,0.2-0.4,0.4-0.8,0.6c0.4,0.1,0.8,0.4,1,0.7c0.2,0.3,0.3,0.7,0.3,1.1
		c0,0.6-0.2,1.1-0.6,1.5s-1,0.6-1.7,0.6s-1.3-0.2-1.7-0.6s-0.6-0.9-0.6-1.6c0-0.5,0.1-0.9,0.4-1.2C214.6,25.2,214.9,25,215.3,24.9z
		 M214.9,26.7c0,0.3,0.1,0.5,0.2,0.7c0.1,0.2,0.3,0.4,0.5,0.5s0.5,0.2,0.8,0.2c0.4,0,0.8-0.1,1-0.4s0.4-0.6,0.4-1s-0.1-0.8-0.4-1
		c-0.3-0.3-0.6-0.4-1.1-0.4c-0.4,0-0.8,0.1-1,0.4C215,25.9,214.9,26.3,214.9,26.7z M215.2,23.4c0,0.3,0.1,0.6,0.3,0.8
		s0.5,0.3,0.8,0.3s0.6-0.1,0.8-0.3c0.2-0.2,0.3-0.5,0.3-0.8s-0.1-0.6-0.3-0.8c-0.2-0.2-0.5-0.3-0.8-0.3s-0.6,0.1-0.8,0.3
		S215.2,23.1,215.2,23.4z"/>
	<path class="st1" d="M220,28.8v-1h1v1c0,0.4-0.1,0.7-0.2,0.9s-0.3,0.4-0.6,0.5l-0.2-0.4c0.2-0.1,0.3-0.2,0.4-0.4s0.1-0.4,0.1-0.7
		H220V28.8z"/>
	<path class="st1" d="M222.3,25.2c0-0.8,0.1-1.5,0.3-2s0.4-0.9,0.8-1.2c0.3-0.3,0.8-0.4,1.3-0.4c0.4,0,0.7,0.1,1,0.2
		s0.5,0.4,0.7,0.7s0.3,0.6,0.4,1.1s0.2,1,0.2,1.7c0,0.8-0.1,1.5-0.3,2s-0.4,0.9-0.8,1.2c-0.3,0.3-0.8,0.4-1.3,0.4
		c-0.7,0-1.2-0.2-1.6-0.7C222.6,27.5,222.3,26.6,222.3,25.2z M223.2,25.2c0,1.2,0.1,2,0.4,2.3c0.3,0.4,0.6,0.6,1,0.6s0.7-0.2,1-0.6
		s0.4-1.2,0.4-2.3c0-1.2-0.1-2-0.4-2.3c-0.3-0.4-0.6-0.6-1-0.6s-0.7,0.2-1,0.5C223.4,23.2,223.2,24,223.2,25.2z"/>
	<path class="st1" d="M227.9,25.2c0-0.8,0.1-1.5,0.3-2s0.4-0.9,0.8-1.2c0.3-0.3,0.8-0.4,1.3-0.4c0.4,0,0.7,0.1,1,0.2
		s0.5,0.4,0.7,0.7s0.3,0.6,0.4,1.1s0.2,1,0.2,1.7c0,0.8-0.1,1.5-0.3,2s-0.4,0.9-0.8,1.2c-0.3,0.3-0.8,0.4-1.3,0.4
		c-0.7,0-1.2-0.2-1.6-0.7C228.1,27.5,227.9,26.6,227.9,25.2z M228.8,25.2c0,1.2,0.1,2,0.4,2.3c0.3,0.4,0.6,0.6,1,0.6s0.7-0.2,1-0.6
		s0.4-1.2,0.4-2.3c0-1.2-0.1-2-0.4-2.3c-0.3-0.4-0.6-0.6-1-0.6s-0.7,0.2-1,0.5C228.9,23.2,228.8,24,228.8,25.2z"/>
	<path class="st1" d="M233.4,25.2c0-0.8,0.1-1.5,0.3-2s0.4-0.9,0.8-1.2c0.3-0.3,0.8-0.4,1.3-0.4c0.4,0,0.7,0.1,1,0.2
		s0.5,0.4,0.7,0.7s0.3,0.6,0.4,1.1s0.2,1,0.2,1.7c0,0.8-0.1,1.5-0.3,2s-0.4,0.9-0.8,1.2c-0.3,0.3-0.8,0.4-1.3,0.4
		c-0.7,0-1.2-0.2-1.6-0.7C233.7,27.5,233.4,26.6,233.4,25.2z M234.3,25.2c0,1.2,0.1,2,0.4,2.3c0.3,0.4,0.6,0.6,1,0.6s0.7-0.2,1-0.6
		s0.4-1.2,0.4-2.3c0-1.2-0.1-2-0.4-2.3c-0.3-0.4-0.6-0.6-1-0.6s-0.7,0.2-1,0.5C234.5,23.2,234.3,24,234.3,25.2z"/>
</g>
<g>
	<path class="st1" d="M220.9,57.3l0.9-0.1c0.1,0.4,0.2,0.8,0.5,1c0.2,0.2,0.5,0.3,0.9,0.3s0.8-0.2,1.1-0.5s0.4-0.7,0.4-1.3
		c0-0.5-0.1-0.9-0.4-1.2c-0.3-0.3-0.7-0.4-1.1-0.4c-0.3,0-0.5,0.1-0.8,0.2s-0.4,0.3-0.5,0.5l-0.8-0.1l0.7-3.7h3.6v1h-2.9l-0.4,1.9
		c0.4-0.3,0.9-0.4,1.4-0.4c0.6,0,1.2,0.2,1.6,0.6s0.6,1,0.6,1.7c0,0.6-0.2,1.2-0.6,1.7c-0.5,0.6-1.1,0.9-1.9,0.9
		c-0.7,0-1.2-0.2-1.6-0.5C221.2,58.4,221,57.9,220.9,57.3z"/>
	<path class="st1" d="M231.1,58.3v0.8h-4.7c0-0.2,0-0.4,0.1-0.6c0.1-0.3,0.3-0.6,0.6-1c0.3-0.3,0.6-0.7,1.2-1.1
		c0.8-0.6,1.3-1.1,1.6-1.5s0.4-0.7,0.4-1.1c0-0.3-0.1-0.6-0.4-0.9c-0.2-0.2-0.6-0.4-1-0.4s-0.8,0.1-1,0.4s-0.4,0.6-0.4,1.1l-0.9-0.1
		c0.1-0.7,0.3-1.2,0.7-1.5s0.9-0.5,1.6-0.5c0.7,0,1.2,0.2,1.6,0.6s0.6,0.9,0.6,1.4c0,0.3-0.1,0.6-0.2,0.8s-0.3,0.6-0.6,0.9
		c-0.3,0.3-0.7,0.7-1.4,1.3c-0.5,0.4-0.9,0.7-1,0.9s-0.3,0.3-0.4,0.5C227.5,58.3,231.1,58.3,231.1,58.3z"/>
	<path class="st1" d="M232.5,59.2v-1h1v1c0,0.4-0.1,0.7-0.2,0.9s-0.3,0.4-0.6,0.5l-0.2-0.4c0.2-0.1,0.3-0.2,0.4-0.4s0.1-0.4,0.1-0.7
		h-0.5V59.2z"/>
	<path class="st1" d="M234.8,55.7c0-0.8,0.1-1.5,0.3-2s0.4-0.9,0.8-1.2c0.3-0.3,0.8-0.4,1.3-0.4c0.4,0,0.7,0.1,1,0.2
		s0.5,0.4,0.7,0.7s0.3,0.6,0.4,1.1s0.2,1,0.2,1.7c0,0.8-0.1,1.5-0.3,2s-0.4,0.9-0.8,1.2c-0.3,0.3-0.8,0.4-1.3,0.4
		c-0.7,0-1.2-0.2-1.6-0.7C235.1,58,234.8,57,234.8,55.7z M235.7,55.7c0,1.2,0.1,2,0.4,2.3c0.3,0.4,0.6,0.6,1,0.6s0.7-0.2,1-0.6
		c0.3-0.4,0.4-1.2,0.4-2.3c0-1.2-0.1-2-0.4-2.3c-0.3-0.4-0.6-0.6-1-0.6s-0.7,0.2-1,0.5C235.9,53.7,235.7,54.5,235.7,55.7z"/>
	<path class="st1" d="M240.4,55.7c0-0.8,0.1-1.5,0.3-2s0.4-0.9,0.8-1.2c0.3-0.3,0.8-0.4,1.3-0.4c0.4,0,0.7,0.1,1,0.2
		s0.5,0.4,0.7,0.7s0.3,0.6,0.4,1.1s0.2,1,0.2,1.7c0,0.8-0.1,1.5-0.3,2s-0.4,0.9-0.8,1.2c-0.3,0.3-0.8,0.4-1.3,0.4
		c-0.7,0-1.2-0.2-1.6-0.7C240.6,58,240.4,57,240.4,55.7z M241.3,55.7c0,1.2,0.1,2,0.4,2.3c0.3,0.4,0.6,0.6,1,0.6s0.7-0.2,1-0.6
		c0.3-0.4,0.4-1.2,0.4-2.3c0-1.2-0.1-2-0.4-2.3c-0.3-0.4-0.6-0.6-1-0.6s-0.7,0.2-1,0.5C241.4,53.7,241.3,54.5,241.3,55.7z"/>
	<path class="st1" d="M245.9,55.7c0-0.8,0.1-1.5,0.3-2s0.4-0.9,0.8-1.2c0.3-0.3,0.8-0.4,1.3-0.4c0.4,0,0.7,0.1,1,0.2
		s0.5,0.4,0.7,0.7s0.3,0.6,0.4,1.1s0.2,1,0.2,1.7c0,0.8-0.1,1.5-0.3,2s-0.4,0.9-0.8,1.2c-0.3,0.3-0.8,0.4-1.3,0.4
		c-0.7,0-1.2-0.2-1.6-0.7C246.2,58,245.9,57,245.9,55.7z M246.8,55.7c0,1.2,0.1,2,0.4,2.3c0.3,0.4,0.6,0.6,1,0.6s0.7-0.2,1-0.6
		c0.3-0.4,0.4-1.2,0.4-2.3c0-1.2-0.1-2-0.4-2.3c-0.3-0.4-0.6-0.6-1-0.6s-0.7,0.2-1,0.5C247,53.7,246.8,54.5,246.8,55.7z"/>
</g>
<g>
	<path class="st1" d="M236.2,87.8l0.9-0.1c0.1,0.4,0.2,0.8,0.5,1c0.2,0.2,0.5,0.3,0.9,0.3s0.8-0.2,1.1-0.5s0.4-0.7,0.4-1.3
		c0-0.5-0.1-0.9-0.4-1.2c-0.3-0.3-0.7-0.4-1.1-0.4c-0.3,0-0.5,0.1-0.8,0.2s-0.4,0.3-0.5,0.5l-0.8-0.1l0.7-3.7h3.6v0.8h-2.9l-0.4,1.9
		c0.4-0.3,0.9-0.4,1.4-0.4c0.6,0,1.2,0.2,1.6,0.6s0.6,1,0.6,1.7c0,0.6-0.2,1.2-0.6,1.7c-0.5,0.6-1.1,0.9-1.9,0.9
		c-0.7,0-1.2-0.2-1.6-0.5C236.5,88.8,236.2,88.4,236.2,87.8z"/>
	<path class="st1" d="M241.8,83.4v-0.8h4.6v0.7c-0.5,0.5-0.9,1.1-1.4,1.9c-0.4,0.8-0.8,1.6-1,2.5c-0.2,0.6-0.3,1.3-0.3,2h-0.9
		c0-0.6,0.1-1.2,0.3-2s0.5-1.6,0.9-2.3c0.4-0.7,0.8-1.4,1.3-1.9L241.8,83.4L241.8,83.4z"/>
	<path class="st1" d="M247.8,89.6v-1h1v1c0,0.4-0.1,0.7-0.2,0.9s-0.3,0.4-0.6,0.5l-0.2-0.4c0.2-0.1,0.3-0.2,0.4-0.4s0.1-0.4,0.1-0.7
		L247.8,89.6L247.8,89.6z"/>
	<path class="st1" d="M250.1,86.1c0-0.8,0.1-1.5,0.3-2s0.4-0.9,0.8-1.2c0.3-0.3,0.8-0.4,1.3-0.4c0.4,0,0.7,0.1,1,0.2
		s0.5,0.4,0.7,0.7s0.3,0.6,0.4,1.1s0.2,1,0.2,1.7c0,0.8-0.1,1.5-0.3,2s-0.4,0.9-0.8,1.2c-0.3,0.3-0.8,0.4-1.3,0.4
		c-0.7,0-1.2-0.2-1.6-0.7C250.3,88.4,250.1,87.4,250.1,86.1z M251,86.1c0,1.2,0.1,2,0.4,2.3c0.3,0.4,0.6,0.6,1,0.6s0.7-0.2,1-0.6
		s0.4-1.2,0.4-2.3c0-1.2-0.1-2-0.4-2.3c-0.3-0.4-0.6-0.6-1-0.6s-0.7,0.2-1,0.5C251.1,84.1,251,84.9,251,86.1z"/>
	<path class="st1" d="M255.6,86.1c0-0.8,0.1-1.5,0.3-2s0.4-0.9,0.8-1.2c0.3-0.3,0.8-0.4,1.3-0.4c0.4,0,0.7,0.1,1,0.2
		s0.5,0.4,0.7,0.7s0.3,0.6,0.4,1.1s0.2,1,0.2,1.7c0,0.8-0.1,1.5-0.3,2s-0.4,0.9-0.8,1.2c-0.3,0.3-0.8,0.4-1.3,0.4
		c-0.7,0-1.2-0.2-1.6-0.7C255.9,88.4,255.6,87.4,255.6,86.1z M256.5,86.1c0,1.2,0.1,2,0.4,2.3c0.3,0.4,0.6,0.6,1,0.6s0.7-0.2,1-0.6
		s0.4-1.2,0.4-2.3c0-1.2-0.1-2-0.4-2.3c-0.3-0.4-0.6-0.6-1-0.6s-0.7,0.2-1,0.5C256.7,84.1,256.5,84.9,256.5,86.1z"/>
	<path class="st1" d="M261.2,86.1c0-0.8,0.1-1.5,0.3-2c0.2-0.5,0.4-0.9,0.8-1.2c0.3-0.3,0.8-0.4,1.3-0.4c0.4,0,0.7,0.1,1,0.2
		s0.5,0.4,0.7,0.7s0.3,0.6,0.4,1.1s0.2,1,0.2,1.7c0,0.8-0.1,1.5-0.3,2s-0.4,0.9-0.8,1.2c-0.3,0.3-0.8,0.4-1.3,0.4
		c-0.7,0-1.2-0.2-1.6-0.7C261.4,88.4,261.2,87.4,261.2,86.1z M262.1,86.1c0,1.2,0.1,2,0.4,2.3c0.3,0.4,0.6,0.6,1,0.6s0.7-0.2,1-0.6
		s0.4-1.2,0.4-2.3c0-1.2-0.1-2-0.4-2.3c-0.3-0.4-0.6-0.6-1-0.6s-0.7,0.2-1,0.5C262.2,84.1,262.1,84.9,262.1,86.1z"/>
</g>
<g>
	<path class="st1" d="M251.7,114.7l-0.9,0.1c-0.1-0.3-0.2-0.6-0.3-0.8c-0.2-0.3-0.5-0.4-0.9-0.4c-0.3,0-0.5,0.1-0.7,0.2
		c-0.3,0.2-0.5,0.5-0.7,0.9s-0.2,0.9-0.2,1.7c0.2-0.3,0.5-0.6,0.8-0.7s0.6-0.2,1-0.2c0.6,0,1.1,0.2,1.5,0.6s0.6,1,0.6,1.7
		c0,0.4-0.1,0.9-0.3,1.3s-0.5,0.7-0.8,0.9s-0.7,0.3-1.2,0.3c-0.7,0-1.3-0.3-1.8-0.8s-0.7-1.4-0.7-2.7c0-1.4,0.3-2.4,0.8-3
		c0.4-0.5,1-0.8,1.8-0.8c0.6,0,1,0.2,1.4,0.5C251.4,113.7,251.7,114.1,251.7,114.7z M248.1,117.7c0,0.3,0.1,0.6,0.2,0.9
		c0.1,0.3,0.3,0.5,0.5,0.6s0.5,0.2,0.7,0.2c0.4,0,0.7-0.1,1-0.4s0.4-0.7,0.4-1.2s-0.1-0.9-0.4-1.2s-0.6-0.4-1-0.4s-0.7,0.1-1,0.4
		S248.1,117.3,248.1,117.7z"/>
	<path class="st1" d="M256,120.1h-0.9v-5.6c-0.2,0.2-0.5,0.4-0.8,0.6s-0.7,0.4-0.9,0.5v-0.8c0.5-0.2,0.9-0.5,1.3-0.8s0.6-0.6,0.8-1
		h0.6v7.1H256z"/>
	<path class="st1" d="M258.8,120.1v-1h1v1c0,0.4-0.1,0.7-0.2,0.9s-0.3,0.4-0.6,0.5l-0.2-0.4c0.2-0.1,0.3-0.2,0.4-0.4
		s0.1-0.4,0.1-0.7L258.8,120.1L258.8,120.1z"/>
	<path class="st1" d="M261.1,116.5c0-0.8,0.1-1.5,0.3-2c0.2-0.5,0.4-0.9,0.8-1.2c0.3-0.3,0.8-0.4,1.3-0.4c0.4,0,0.7,0.1,1,0.2
		s0.5,0.4,0.7,0.7s0.3,0.6,0.4,1.1s0.2,1,0.2,1.7c0,0.8-0.1,1.5-0.3,2s-0.4,0.9-0.8,1.2c-0.3,0.3-0.8,0.4-1.3,0.4
		c-0.7,0-1.2-0.2-1.6-0.7C261.3,118.8,261.1,117.9,261.1,116.5z M262,116.5c0,1.2,0.1,2,0.4,2.3c0.3,0.4,0.6,0.6,1,0.6
		s0.7-0.2,1-0.6s0.4-1.2,0.4-2.3c0-1.2-0.1-2-0.4-2.3c-0.3-0.4-0.6-0.6-1-0.6s-0.7,0.2-1,0.5C262.1,114.6,262,115.4,262,116.5z"/>
	<path class="st1" d="M266.6,116.5c0-0.8,0.1-1.5,0.3-2c0.2-0.5,0.4-0.9,0.8-1.2c0.3-0.3,0.8-0.4,1.3-0.4c0.4,0,0.7,0.1,1,0.2
		s0.5,0.4,0.7,0.7s0.3,0.6,0.4,1.1s0.2,1,0.2,1.7c0,0.8-0.1,1.5-0.3,2s-0.4,0.9-0.8,1.2c-0.3,0.3-0.8,0.4-1.3,0.4
		c-0.7,0-1.2-0.2-1.6-0.7C266.9,118.8,266.6,117.9,266.6,116.5z M267.5,116.5c0,1.2,0.1,2,0.4,2.3c0.3,0.4,0.6,0.6,1,0.6
		s0.7-0.2,1-0.6s0.4-1.2,0.4-2.3c0-1.2-0.1-2-0.4-2.3c-0.3-0.4-0.6-0.6-1-0.6s-0.7,0.2-1,0.5C267.7,114.6,267.5,115.4,267.5,116.5z"
		/>
	<path class="st1" d="M272.2,116.5c0-0.8,0.1-1.5,0.3-2c0.2-0.5,0.4-0.9,0.8-1.2c0.3-0.3,0.8-0.4,1.3-0.4c0.4,0,0.7,0.1,1,0.2
		s0.5,0.4,0.7,0.7s0.3,0.6,0.4,1.1s0.2,1,0.2,1.7c0,0.8-0.1,1.5-0.3,2s-0.4,0.9-0.8,1.2c-0.3,0.3-0.8,0.4-1.3,0.4
		c-0.7,0-1.2-0.2-1.6-0.7C272.4,118.8,272.2,117.9,272.2,116.5z M273.1,116.5c0,1.2,0.1,2,0.4,2.3c0.3,0.4,0.6,0.6,1,0.6
		s0.7-0.2,1-0.6s0.4-1.2,0.4-2.3c0-1.2-0.1-2-0.4-2.3c-0.3-0.4-0.6-0.6-1-0.6s-0.7,0.2-1,0.5C273.2,114.6,273.1,115.4,273.1,116.5z"
		/>
</g>
<g>
	<path class="st1" d="M267.2,145.1l-0.9,0.1c-0.1-0.3-0.2-0.6-0.3-0.8c-0.2-0.3-0.5-0.4-0.9-0.4c-0.3,0-0.5,0.1-0.7,0.2
		c-0.3,0.2-0.5,0.5-0.7,0.9s-0.2,0.9-0.2,1.7c0.2-0.3,0.5-0.6,0.8-0.7s0.6-0.2,1-0.2c0.6,0,1.1,0.2,1.5,0.6c0.4,0.4,0.6,1,0.6,1.7
		c0,0.4-0.1,0.9-0.3,1.3c-0.2,0.4-0.5,0.7-0.8,0.9s-0.7,0.3-1.2,0.3c-0.7,0-1.3-0.3-1.8-0.8s-0.7-1.4-0.7-2.7c0-1.4,0.3-2.4,0.8-3
		c0.4-0.5,1-0.8,1.8-0.8c0.6,0,1,0.2,1.4,0.5C266.9,144.1,267.2,144.5,267.2,145.1z M263.6,148.2c0,0.3,0.1,0.6,0.2,0.9
		c0.1,0.3,0.3,0.5,0.5,0.6s0.5,0.2,0.7,0.2c0.4,0,0.7-0.1,1-0.4s0.4-0.7,0.4-1.2s-0.1-0.9-0.4-1.2s-0.6-0.4-1-0.4s-0.7,0.1-1,0.4
		S263.6,147.7,263.6,148.2z"/>
	<path class="st1" d="M272.8,145.1l-0.9,0.1c-0.1-0.3-0.2-0.6-0.3-0.8c-0.2-0.3-0.5-0.4-0.9-0.4c-0.3,0-0.5,0.1-0.7,0.2
		c-0.3,0.2-0.5,0.5-0.7,0.9s-0.2,0.9-0.2,1.7c0.2-0.3,0.5-0.6,0.8-0.7s0.6-0.2,1-0.2c0.6,0,1.1,0.2,1.5,0.6c0.4,0.4,0.6,1,0.6,1.7
		c0,0.4-0.1,0.9-0.3,1.3c-0.2,0.4-0.5,0.7-0.8,0.9s-0.7,0.3-1.2,0.3c-0.7,0-1.3-0.3-1.8-0.8s-0.7-1.4-0.7-2.7c0-1.4,0.3-2.4,0.8-3
		c0.4-0.5,1-0.8,1.8-0.8c0.6,0,1,0.2,1.4,0.5C272.5,144.1,272.7,144.5,272.8,145.1z M269.2,148.2c0,0.3,0.1,0.6,0.2,0.9
		c0.1,0.3,0.3,0.5,0.5,0.6s0.5,0.2,0.7,0.2c0.4,0,0.7-0.1,1-0.4s0.4-0.7,0.4-1.2s-0.1-0.9-0.4-1.2s-0.6-0.4-1-0.4s-0.7,0.1-1,0.4
		S269.2,147.7,269.2,148.2z"/>
	<path class="st1" d="M274.3,150.5v-1h1v1c0,0.4-0.1,0.7-0.2,0.9s-0.3,0.4-0.6,0.5l-0.2-0.4c0.2-0.1,0.3-0.2,0.4-0.4
		s0.1-0.4,0.1-0.7L274.3,150.5L274.3,150.5z"/>
	<path class="st1" d="M276.6,147c0-0.8,0.1-1.5,0.3-2c0.2-0.5,0.4-0.9,0.8-1.2c0.3-0.3,0.8-0.4,1.3-0.4c0.4,0,0.7,0.1,1,0.2
		s0.5,0.4,0.7,0.7s0.3,0.6,0.4,1.1s0.2,1,0.2,1.7c0,0.8-0.1,1.5-0.3,2s-0.4,0.9-0.8,1.2c-0.3,0.3-0.8,0.4-1.3,0.4
		c-0.7,0-1.2-0.2-1.6-0.7C276.8,149.3,276.6,148.3,276.6,147z M277.5,147c0,1.2,0.1,2,0.4,2.3c0.3,0.4,0.6,0.6,1,0.6s0.7-0.2,1-0.6
		c0.3-0.4,0.4-1.2,0.4-2.3c0-1.2-0.1-2-0.4-2.3c-0.3-0.4-0.6-0.6-1-0.6s-0.7,0.2-1,0.5C277.6,145,277.5,145.8,277.5,147z"/>
	<path class="st1" d="M282.1,147c0-0.8,0.1-1.5,0.3-2c0.2-0.5,0.4-0.9,0.8-1.2c0.3-0.3,0.8-0.4,1.3-0.4c0.4,0,0.7,0.1,1,0.2
		s0.5,0.4,0.7,0.7s0.3,0.6,0.4,1.1s0.2,1,0.2,1.7c0,0.8-0.1,1.5-0.3,2s-0.4,0.9-0.8,1.2c-0.3,0.3-0.8,0.4-1.3,0.4
		c-0.7,0-1.2-0.2-1.6-0.7C282.4,149.3,282.1,148.3,282.1,147z M283,147c0,1.2,0.1,2,0.4,2.3c0.3,0.4,0.6,0.6,1,0.6s0.7-0.2,1-0.6
		c0.3-0.4,0.4-1.2,0.4-2.3c0-1.2-0.1-2-0.4-2.3c-0.3-0.4-0.6-0.6-1-0.6s-0.7,0.2-1,0.5C283.2,145,283,145.8,283,147z"/>
	<path class="st1" d="M287.7,147c0-0.8,0.1-1.5,0.3-2c0.2-0.5,0.4-0.9,0.8-1.2c0.3-0.3,0.8-0.4,1.3-0.4c0.4,0,0.7,0.1,1,0.2
		s0.5,0.4,0.7,0.7s0.3,0.6,0.4,1.1s0.2,1,0.2,1.7c0,0.8-0.1,1.5-0.3,2s-0.4,0.9-0.8,1.2c-0.3,0.3-0.8,0.4-1.3,0.4
		c-0.7,0-1.2-0.2-1.6-0.7C287.9,149.3,287.7,148.3,287.7,147z M288.6,147c0,1.2,0.1,2,0.4,2.3c0.3,0.4,0.6,0.6,1,0.6s0.7-0.2,1-0.6
		c0.3-0.4,0.4-1.2,0.4-2.3c0-1.2-0.1-2-0.4-2.3c-0.3-0.4-0.6-0.6-1-0.6s-0.7,0.2-1,0.5C288.7,145,288.6,145.8,288.6,147z"/>
</g>
<rect x="57.1" y="21" class="st2" width="146.5" height="9"/>
<rect x="57.1" y="51.3" class="st2" width="158.3" height="9"/>
<rect x="57.1" y="81.5" class="st2" width="173.1" height="9"/>
<rect x="57.1" y="111.8" class="st2" width="186" height="9"/>
<rect x="57.1" y="142" class="st2" width="200.6" height="9"/>
</svg>
